<svg width="218" height="224" viewBox="0 0 218 224" fill="none" xmlns="http://www.w3.org/2000/svg">
<g filter="url(#filter0_d_1915_2522)">
<path d="M123.734 189.445C80.5927 195.971 31.8829 178.832 25.3568 135.69C18.8307 92.5488 65.7652 29.9439 108.907 23.4177C152.048 16.8916 194.934 69.6882 201.46 112.83C207.986 155.971 166.888 182.931 123.734 189.445Z" fill="#F7F9FD"/>
<path d="M123.6 188.558L123.6 188.558C102.178 191.799 79.4022 189.156 61.204 180.385C43.0253 171.623 29.453 156.774 26.2433 135.556C23.0312 114.322 32.9834 88.1267 49.225 66.3594C65.4659 44.5931 87.7996 27.5174 109.041 24.3042C130.199 21.1035 151.432 32.4423 168.265 50.1167C185.085 67.7776 197.342 91.5982 200.574 112.964C203.783 134.178 195.305 151.413 180.638 164.197C165.946 177.004 145.056 185.32 123.6 188.558Z" stroke="#F7F9FD" stroke-width="1.79317"/>
</g>
<path d="M48.1606 154.468C44.6777 150.539 41.5047 146.399 38.7283 142.098C35.9395 137.797 33.5474 133.335 31.6138 128.786C29.6802 124.237 28.1929 119.577 27.2385 114.867C26.2841 110.17 25.8627 105.422 26.0362 100.688C26.2097 95.9529 26.9782 91.2305 28.4284 86.5825C29.8661 81.9345 31.9856 77.3485 34.8364 72.8865C37.6872 68.4244 41.3436 64.2846 45.6321 60.4794C49.9207 56.6743 54.829 53.2285 60.1958 50.1671C65.5627 47.1056 71.3758 44.416 77.474 42.1601C83.5721 39.9043 89.943 38.0575 96.413 36.6693C102.883 35.2811 109.44 34.3639 115.935 33.9301C122.429 33.4963 128.85 33.5582 135.022 34.1532C141.195 34.7481 147.107 35.8637 152.598 37.5493C158.089 39.235 163.146 41.4908 167.608 44.3416C172.07 47.1924 175.925 50.7248 179.234 54.7779C182.543 58.8309 185.283 63.4293 187.489 68.3996C189.695 73.3698 191.393 78.7367 192.595 84.3391C193.798 89.9415 194.504 95.7918 194.752 101.741C195 107.691 194.789 113.739 194.157 119.751C193.525 125.762 192.471 131.724 191.034 137.5" stroke="#B51F1F" stroke-width="4.14054" stroke-miterlimit="10" stroke-linecap="round" stroke-linejoin="round"/>
<path d="M182.857 154.464C180.964 159.409 178.56 163.776 175.729 167.61C172.899 171.444 169.643 174.746 166.031 177.552C162.42 180.357 158.465 182.664 154.251 184.505C150.024 186.349 145.537 187.728 140.848 188.68C136.159 189.631 131.293 190.152 126.299 190.293C121.304 190.435 116.213 190.166 111.087 189.55C105.962 188.934 100.789 187.961 95.6772 186.671C90.5654 185.382 85.4883 183.769 80.5555 181.873" stroke="#B51F1F" stroke-width="4.14054" stroke-miterlimit="10" stroke-linecap="round" stroke-linejoin="round"/>
<circle cx="11.3517" cy="11.3517" r="11.3517" transform="matrix(0.92284 -0.385183 -0.385183 -0.92284 9.62061 185.302)" fill="#BDBDBD"/>
<circle cx="2.83792" cy="2.83792" r="2.83792" transform="matrix(0.92284 -0.385183 -0.385183 -0.92284 27.5293 198.739)" fill="#BDBDBD"/>
<path d="M54.9609 189.317L50.3254 191.252L48.7906 187.575L45.7265 188.854L47.2612 192.531L42.61 194.472L43.8758 197.505L48.5271 195.563L50.0684 199.256L53.1325 197.977L51.5912 194.284L56.2268 192.35L54.9609 189.317Z" fill="#BDBDBD"/>
<circle cx="11.3517" cy="11.3517" r="11.3517" transform="matrix(-0.92284 0.385183 0.385183 0.92284 209.235 37.9668)" fill="#BDBDBD"/>
<circle cx="2.83792" cy="2.83792" r="2.83792" transform="matrix(-0.92284 0.385183 0.385183 0.92284 191.326 24.5283)" fill="#BDBDBD"/>
<path d="M163.895 33.9516L168.53 32.0168L170.065 35.6938L173.129 34.4149L171.594 30.7379L176.246 28.7965L174.98 25.7637L170.328 27.7051L168.787 24.0124L165.723 25.2914L167.264 28.9841L162.629 30.9189L163.895 33.9516Z" fill="#BDBDBD"/>
<path d="M88.941 93.9379C88.9753 93.9362 89.0097 93.935 89.044 93.9345H138.515L113.761 118.654L88.941 93.9379Z" fill="white" stroke="#7D889B" stroke-width="0.810062"/>
<path d="M116.551 122.036L141.904 96.7885C141.917 96.8885 141.926 96.9892 141.93 97.0903V132.6C141.93 133.434 141.599 134.235 141.009 134.825C140.419 135.415 139.618 135.747 138.784 135.747H89.0591C88.2245 135.747 87.4241 135.415 86.834 134.825C86.2439 134.235 85.9124 133.434 85.9124 132.6V97.0849C85.9125 97.0723 85.9128 97.0597 85.9131 97.047L110.972 122.036L110.972 122.037C111.713 122.773 112.716 123.187 113.762 123.187C114.807 123.187 115.81 122.773 116.551 122.037L116.551 122.036ZM91.492 133.005H91.6588L91.7772 132.887L104.723 120.048L105.012 119.761L104.725 119.474L102.221 116.97L101.935 116.685L101.649 116.969L88.7384 129.773L88.6185 129.892V130.06V132.6V133.005H89.0236H91.492ZM138.748 133.005H139.156L139.153 132.597L139.135 130.058L139.134 129.89L139.016 129.773L126.105 116.969L125.819 116.685L125.533 116.97L123.029 119.474L122.742 119.761L123.031 120.048L135.977 132.887L136.095 133.005H136.262H138.748Z" fill="white" stroke="#7D889B" stroke-width="0.810062"/>
<g filter="url(#filter1_d_1915_2522)">
<rect x="104.398" y="70.0898" width="50.8425" height="30.8267" rx="3.24025" fill="#B51F1F"/>
</g>
<path d="M112.243 109.919C113.069 105.995 114.785 103.672 110.342 99.8766H119.514C118.623 105.67 116.805 108.822 112.243 109.919Z" fill="#B51F1F"/>
<path d="M113.053 87.6426L114.695 81.053H116.886L118.519 87.6426H117.1L115.788 81.8963H115.797L114.472 87.6426H113.053ZM114.231 86.1168V85.0371H117.354V86.1168H114.231ZM120.74 80.6694V87.6426H119.375V80.6694H120.74ZM121.844 87.6426V82.9045H123.231V84.5374L122.946 84.359C122.979 84.1359 123.038 83.9307 123.124 83.7433C123.211 83.5559 123.322 83.3938 123.459 83.257C123.596 83.1172 123.758 83.0086 123.945 82.9313C124.136 82.854 124.353 82.8153 124.597 82.8153C124.787 82.8153 124.936 82.8302 125.043 82.8599C125.153 82.8867 125.221 82.9075 125.248 82.9224L125.02 84.1627C124.994 84.1478 124.934 84.124 124.842 84.0913C124.75 84.0586 124.631 84.0422 124.485 84.0422C124.247 84.0422 124.048 84.0824 123.887 84.1627C123.727 84.243 123.597 84.35 123.499 84.4839C123.404 84.6148 123.335 84.7605 123.294 84.9211C123.252 85.0817 123.231 85.2438 123.231 85.4074V87.6426H121.844ZM126.392 85.6885V84.7739H129.533L129.399 85.0059C129.399 84.9821 129.399 84.9598 129.399 84.9389C129.399 84.9152 129.399 84.8928 129.399 84.872C129.399 84.7025 129.359 84.5404 129.278 84.3857C129.198 84.2281 129.073 84.1002 128.904 84.002C128.737 83.9009 128.523 83.8504 128.261 83.8504C127.999 83.8504 127.773 83.9069 127.583 84.0199C127.396 84.1299 127.251 84.2891 127.15 84.4973C127.052 84.7055 127.003 84.9568 127.003 85.2512C127.003 85.5546 127.051 85.8149 127.146 86.032C127.244 86.2461 127.388 86.4112 127.579 86.5272C127.772 86.6432 128.011 86.7012 128.297 86.7012C128.481 86.7012 128.64 86.6849 128.774 86.6521C128.908 86.6164 129.017 86.5718 129.1 86.5183C129.186 86.4648 129.252 86.4053 129.296 86.3398C129.341 86.2744 129.368 86.2105 129.376 86.148H130.742C130.724 86.3473 130.655 86.5436 130.536 86.7369C130.417 86.9273 130.252 87.0998 130.041 87.2544C129.83 87.4061 129.573 87.5266 129.269 87.6158C128.969 87.705 128.625 87.7497 128.239 87.7497C127.715 87.7497 127.259 87.6456 126.869 87.4374C126.48 87.2262 126.178 86.9362 125.963 86.5674C125.749 86.1956 125.642 85.7673 125.642 85.2825C125.642 84.7917 125.751 84.3619 125.968 83.9931C126.188 83.6213 126.493 83.3328 126.883 83.1276C127.275 82.9194 127.729 82.8153 128.243 82.8153C128.77 82.8153 129.225 82.9209 129.608 83.1321C129.992 83.3403 130.288 83.6332 130.496 84.011C130.704 84.3857 130.809 84.823 130.809 85.3226C130.809 85.397 130.807 85.4684 130.804 85.5368C130.801 85.6052 130.797 85.6558 130.791 85.6885H126.392ZM133.279 87.7407C132.934 87.7407 132.626 87.6857 132.356 87.5757C132.088 87.4656 131.878 87.3065 131.726 87.0983C131.575 86.8901 131.499 86.6373 131.499 86.3398C131.499 86.0037 131.591 85.7301 131.776 85.5189C131.96 85.3078 132.204 85.1471 132.507 85.0371C132.814 84.9241 133.145 84.8497 133.502 84.814C134.023 84.7635 134.381 84.7174 134.577 84.6757C134.777 84.6341 134.876 84.5612 134.876 84.4571C134.876 84.4541 134.876 84.4512 134.876 84.4482C134.876 84.2727 134.791 84.1344 134.622 84.0333C134.455 83.9322 134.222 83.8816 133.921 83.8816C133.603 83.8816 133.359 83.9396 133.19 84.0556C133.023 84.1686 132.94 84.3426 132.94 84.5776H131.579C131.579 84.1969 131.682 83.8756 131.887 83.6139C132.095 83.3522 132.376 83.1544 132.73 83.0205C133.084 82.8837 133.484 82.8153 133.93 82.8153C134.347 82.8153 134.732 82.8793 135.086 83.0071C135.44 83.1321 135.724 83.3209 135.938 83.5738C136.155 83.8266 136.264 84.1478 136.264 84.5374C136.264 84.5999 136.264 84.6623 136.264 84.7248C136.264 84.7843 136.264 84.8453 136.264 84.9077V86.5852C136.264 86.7072 136.267 86.8246 136.273 86.9377C136.282 87.0477 136.299 87.1488 136.326 87.241C136.356 87.3451 136.393 87.4314 136.438 87.4998C136.482 87.5682 136.52 87.6158 136.549 87.6426H135.189C135.168 87.6218 135.135 87.5786 135.09 87.5132C135.049 87.4478 135.013 87.3719 134.983 87.2857C134.948 87.1816 134.921 87.0775 134.903 86.9734C134.888 86.8663 134.881 86.7414 134.881 86.5986L135.166 86.7949C135.083 86.9912 134.948 87.1607 134.76 87.3035C134.576 87.4433 134.356 87.5519 134.1 87.6292C133.847 87.7036 133.574 87.7407 133.279 87.7407ZM133.649 86.7057C133.866 86.7057 134.069 86.667 134.256 86.5897C134.446 86.5094 134.601 86.3845 134.72 86.2149C134.839 86.0454 134.899 85.8238 134.899 85.5502V85.0728L135.242 85.4074C135.046 85.4788 134.818 85.5383 134.559 85.5859C134.304 85.6305 134.048 85.6662 133.792 85.6929C133.489 85.7227 133.261 85.7747 133.11 85.8491C132.961 85.9205 132.886 86.0424 132.886 86.2149C132.886 86.3785 132.95 86.5019 133.078 86.5852C133.206 86.6655 133.397 86.7057 133.649 86.7057ZM139.257 87.7497C138.861 87.7497 138.497 87.656 138.164 87.4686C137.831 87.2782 137.563 86.9972 137.361 86.6254C137.158 86.2536 137.057 85.7955 137.057 85.2512C137.057 84.7307 137.16 84.2891 137.365 83.9262C137.573 83.5633 137.844 83.2882 138.177 83.1008C138.513 82.9105 138.873 82.8153 139.257 82.8153C139.632 82.8153 139.974 82.9105 140.283 83.1008C140.595 83.2912 140.845 83.5514 141.032 83.8816C141.22 84.2088 141.313 84.5865 141.313 85.0148C141.313 85.0297 141.313 85.0445 141.313 85.0594C141.313 85.0713 141.313 85.0847 141.313 85.0996L140.716 85.1085C140.716 85.0996 140.716 85.0906 140.716 85.0817C140.716 85.0698 140.716 85.0594 140.716 85.0505C140.716 84.8274 140.662 84.6356 140.555 84.475C140.448 84.3143 140.31 84.1909 140.14 84.1047C139.971 84.0154 139.794 83.9708 139.609 83.9708C139.303 83.9708 139.038 84.0734 138.815 84.2787C138.592 84.4809 138.48 84.8051 138.48 85.2512C138.48 85.6974 138.592 86.0261 138.815 86.2372C139.041 86.4454 139.306 86.5495 139.609 86.5495C139.8 86.5495 139.979 86.5049 140.149 86.4157C140.319 86.3235 140.455 86.1941 140.559 86.0275C140.664 85.861 140.716 85.6647 140.716 85.4386L141.313 85.4699C141.313 85.8952 141.221 86.2804 141.037 86.6254C140.855 86.9674 140.609 87.241 140.296 87.4463C139.987 87.6485 139.64 87.7497 139.257 87.7497ZM140.716 87.6426V80.6694H142.103V87.6426H140.716ZM143.55 89.6904C143.402 89.6904 143.268 89.6844 143.149 89.6725C143.033 89.6636 142.96 89.6532 142.93 89.6413V88.5929C142.969 88.6107 143.036 88.6241 143.131 88.633C143.229 88.6449 143.333 88.6509 143.443 88.6509C143.589 88.6509 143.72 88.6211 143.836 88.5616C143.955 88.5051 144.056 88.4233 144.139 88.3163C144.225 88.2122 144.292 88.0887 144.34 87.946L144.42 87.705L142.787 82.9045H144.228L145.259 86.7904H145.098L146.089 82.9045H147.512L145.884 87.879C145.762 88.2538 145.611 88.5765 145.433 88.8472C145.255 89.1178 145.017 89.326 144.719 89.4718C144.422 89.6175 144.032 89.6904 143.55 89.6904Z" fill="white"/>
<defs>
<filter id="filter0_d_1915_2522" x="22.9524" y="21.074" width="191.746" height="182.266" filterUnits="userSpaceOnUse" color-interpolation-filters="sRGB">
<feFlood flood-opacity="0" result="BackgroundImageFix"/>
<feColorMatrix in="SourceAlpha" type="matrix" values="0 0 0 0 0 0 0 0 0 0 0 0 0 0 0 0 0 0 127 0" result="hardAlpha"/>
<feOffset dx="5.37951" dy="5.37951"/>
<feGaussianBlur stdDeviation="3.58634"/>
<feComposite in2="hardAlpha" operator="out"/>
<feColorMatrix type="matrix" values="0 0 0 0 0 0 0 0 0 0 0 0 0 0 0 0 0 0 0.2 0"/>
<feBlend mode="normal" in2="BackgroundImageFix" result="effect1_dropShadow_1915_2522"/>
<feBlend mode="normal" in="SourceGraphic" in2="effect1_dropShadow_1915_2522" result="shape"/>
</filter>
<filter id="filter1_d_1915_2522" x="101.158" y="70.0898" width="57.3228" height="37.3067" filterUnits="userSpaceOnUse" color-interpolation-filters="sRGB">
<feFlood flood-opacity="0" result="BackgroundImageFix"/>
<feColorMatrix in="SourceAlpha" type="matrix" values="0 0 0 0 0 0 0 0 0 0 0 0 0 0 0 0 0 0 127 0" result="hardAlpha"/>
<feOffset dy="3.24025"/>
<feGaussianBlur stdDeviation="1.62012"/>
<feComposite in2="hardAlpha" operator="out"/>
<feColorMatrix type="matrix" values="0 0 0 0 0 0 0 0 0 0 0 0 0 0 0 0 0 0 0.25 0"/>
<feBlend mode="normal" in2="BackgroundImageFix" result="effect1_dropShadow_1915_2522"/>
<feBlend mode="normal" in="SourceGraphic" in2="effect1_dropShadow_1915_2522" result="shape"/>
</filter>
</defs>
</svg>
