<svg width="243" height="254" viewBox="0 0 243 254" fill="none" xmlns="http://www.w3.org/2000/svg">
<g filter="url(#filter0_dd_2040_410)">
<path d="M136.436 216.192C88.7403 223.407 34.8888 204.459 27.6738 156.764C20.4587 109.068 72.3476 39.8549 120.043 32.6399C167.738 25.4249 215.152 83.7946 222.367 131.49C229.582 179.185 184.145 208.992 136.436 216.192Z" fill="white"/>
</g>
<g filter="url(#filter1_d_2040_410)">
<path d="M136.436 216.192C88.7403 223.407 34.8888 204.459 27.6738 156.764C20.4587 109.068 72.3476 39.8549 120.043 32.6399C167.738 25.4249 215.152 83.7946 222.367 131.49C229.582 179.185 184.145 208.992 136.436 216.192Z" fill="#F7F9FD"/>
<path d="M136.361 215.698L136.361 215.698C112.596 219.293 87.3137 216.366 67.0917 206.619C46.8805 196.878 31.7459 180.34 28.1681 156.689C24.589 133.029 35.6739 103.936 53.6677 79.8207C71.6611 55.7056 96.4539 36.714 120.118 33.1343C143.735 29.5616 167.36 42.2226 186.023 61.8184C204.679 81.4066 218.282 107.832 221.872 131.565C225.45 155.213 215.986 174.427 199.669 188.65C183.338 202.885 160.148 212.108 136.361 215.698Z" stroke="#F7F9FD"/>
</g>
<g clip-path="url(#clip0_2040_410)">
<path d="M81.843 167.708C81.8088 167.788 81.7504 167.856 81.6759 167.902C81.6015 167.947 81.5146 167.969 81.4274 167.963L79.6335 167.852L78.3972 169.156C78.3369 169.219 78.2589 169.262 78.1736 169.279C78.0884 169.296 77.9999 169.287 77.9202 169.252C77.8404 169.217 77.7732 169.159 77.7275 169.085C77.6819 169.011 77.6599 168.925 77.6647 168.838L77.7754 167.043L76.4708 165.808C76.4081 165.747 76.3654 165.669 76.3483 165.584C76.3312 165.499 76.3406 165.41 76.3753 165.331C76.41 165.251 76.4682 165.184 76.5422 165.138C76.6162 165.092 76.7024 165.07 76.7893 165.075L78.5846 165.186L79.8195 163.881C79.8798 163.819 79.9578 163.776 80.043 163.759C80.1283 163.742 80.2168 163.751 80.2965 163.786C80.3763 163.82 80.4435 163.879 80.4892 163.953C80.5348 164.027 80.5568 164.113 80.552 164.2L80.4413 165.995L81.7459 167.23C81.8097 167.29 81.8534 167.368 81.8708 167.453C81.8882 167.539 81.8785 167.628 81.843 167.708Z" fill="#B51F1F"/>
</g>
<g clip-path="url(#clip1_2040_410)">
<path d="M172.217 151.983L172.215 151.985C172.196 152.009 172.17 152.026 172.141 152.034C172.112 152.042 172.081 152.041 172.052 152.031L172.052 152.031L172.051 152.03L170.766 151.578L170.691 151.552L170.621 151.593L169.451 152.286C169.451 152.286 169.451 152.286 169.451 152.287C169.424 152.302 169.394 152.309 169.363 152.306C169.333 152.304 169.304 152.292 169.28 152.273C169.256 152.253 169.239 152.227 169.23 152.197C169.222 152.168 169.223 152.137 169.233 152.108C169.233 152.107 169.233 152.107 169.233 152.107L169.685 150.823L169.712 150.747L169.671 150.678L168.976 149.508C168.961 149.482 168.954 149.451 168.957 149.421C168.959 149.39 168.971 149.361 168.99 149.337C169.01 149.313 169.036 149.296 169.066 149.288C169.095 149.279 169.126 149.28 169.155 149.29L170.44 149.743L170.516 149.769L170.585 149.728L171.755 149.034C171.781 149.019 171.812 149.012 171.842 149.014C171.873 149.016 171.902 149.028 171.926 149.048C171.95 149.067 171.967 149.094 171.975 149.123C171.984 149.153 171.983 149.184 171.973 149.213L171.52 150.498L171.494 150.573L171.535 150.643L172.23 151.813L172.23 151.814C172.246 151.84 172.253 151.87 172.251 151.901C172.248 151.931 172.237 151.96 172.217 151.983Z" fill="#B51F1F" stroke="#B51F1F" stroke-width="0.344271"/>
</g>
<g clip-path="url(#clip2_2040_410)">
<path d="M91.6355 179.397C91.6013 179.478 91.5429 179.545 91.4684 179.591C91.3939 179.637 91.3071 179.658 91.2199 179.652L89.426 179.542L88.1897 180.846C88.1294 180.909 88.0514 180.951 87.9661 180.968C87.8809 180.985 87.7924 180.976 87.7127 180.941C87.6329 180.907 87.5657 180.848 87.52 180.774C87.4743 180.7 87.4524 180.614 87.4571 180.527L87.5679 178.732L86.2633 177.497C86.2006 177.437 86.1578 177.359 86.1408 177.274C86.1237 177.188 86.1331 177.1 86.1678 177.02C86.2025 176.94 86.2607 176.873 86.3347 176.827C86.4087 176.782 86.4949 176.76 86.5817 176.765L88.3771 176.875L89.612 175.571C89.6723 175.508 89.7503 175.465 89.8355 175.448C89.9208 175.431 90.0092 175.441 90.089 175.475C90.1687 175.51 90.236 175.568 90.2816 175.642C90.3273 175.716 90.3493 175.802 90.3445 175.889L90.2337 177.685L91.5384 178.919C91.6022 178.979 91.6458 179.057 91.6632 179.143C91.6807 179.228 91.671 179.317 91.6355 179.397Z" fill="#B51F1F"/>
</g>
<g clip-path="url(#clip3_2040_410)">
<path d="M148.009 82.03C147.933 82.1231 147.831 82.1905 147.716 82.2228C147.6 82.255 147.478 82.2506 147.365 82.21L145.042 81.3926L142.924 82.6478C142.821 82.7079 142.702 82.735 142.584 82.7255C142.465 82.7161 142.352 82.6705 142.26 82.5949C142.168 82.5194 142.101 82.4174 142.068 82.3027C142.036 82.1881 142.039 82.0663 142.078 81.9536L142.897 79.629L141.64 77.5125C141.58 77.4096 141.553 77.2908 141.563 77.172C141.572 77.0532 141.618 76.9402 141.693 76.8481C141.769 76.756 141.871 76.6892 141.985 76.6567C142.1 76.6243 142.222 76.6277 142.335 76.6665L144.659 77.4853L146.776 76.2287C146.879 76.1686 146.997 76.1415 147.116 76.151C147.235 76.1604 147.348 76.206 147.44 76.2816C147.532 76.3572 147.599 76.4591 147.631 76.5738C147.664 76.6884 147.661 76.8102 147.622 76.9229L146.803 79.2475L148.06 81.364C148.121 81.4665 148.15 81.5858 148.14 81.7051C148.131 81.8245 148.085 81.938 148.009 82.03Z" fill="#B51F1F"/>
</g>
<g clip-path="url(#clip4_2040_410)">
<path d="M103.594 92.2838C103.464 92.4443 103.288 92.5605 103.089 92.6161C102.89 92.6718 102.679 92.6641 102.485 92.5942L98.48 91.185L94.8284 93.3489C94.6509 93.4525 94.4461 93.4992 94.2413 93.4829C94.0366 93.4666 93.8417 93.388 93.6829 93.2577C93.5241 93.1274 93.409 92.9517 93.353 92.754C93.297 92.5564 93.3029 92.3463 93.3698 92.1521L94.7814 88.1445L92.615 84.4957C92.5115 84.3183 92.4647 84.1135 92.481 83.9087C92.4973 83.7039 92.5759 83.5091 92.7062 83.3503C92.8365 83.1915 93.0123 83.0764 93.2099 83.0204C93.4076 82.9644 93.6176 82.9703 93.8118 83.0372L97.8195 84.4488L101.468 82.2824C101.646 82.1789 101.85 82.1321 102.055 82.1484C102.26 82.1647 102.455 82.2433 102.614 82.3736C102.772 82.5039 102.888 82.6797 102.944 82.8773C103 83.075 102.994 83.285 102.927 83.4792L101.515 87.4869L103.682 91.1356C103.788 91.3124 103.837 91.518 103.821 91.7237C103.805 91.9295 103.726 92.1253 103.594 92.2838Z" fill="#B51F1F"/>
</g>
<path d="M86.5141 163.965V163.932L86.5102 163.9L82.1037 126.606C82.121 124.115 84.1668 122.082 86.6574 122.082H163.461C165.956 122.082 168.002 124.115 168.019 126.606L163.612 163.9L163.608 163.932V163.965C163.608 166.467 161.558 168.521 159.052 168.521H91.0679C88.5651 168.521 86.5141 166.467 86.5141 163.965ZM92.8229 135.479V135.51L92.8263 135.54L95.2276 157.126C95.2449 159.263 96.9847 160.995 99.1265 160.995C101.279 160.995 103.028 159.246 103.028 157.094V157.063L103.024 157.032L100.621 135.446C100.604 133.307 98.8654 131.58 96.7219 131.58C94.5701 131.58 92.8229 133.324 92.8229 135.479ZM106.451 135.479V135.494L106.452 135.51L107.653 157.11C107.662 159.255 109.406 160.995 111.557 160.995C113.712 160.995 115.456 159.245 115.456 157.094V157.078L115.455 157.063L114.251 135.463C114.243 133.315 112.498 131.58 110.35 131.58C108.198 131.58 106.451 133.324 106.451 135.479ZM132.514 157.063L132.514 157.078V157.094C132.514 159.245 134.255 160.995 136.413 160.995C138.56 160.995 140.303 159.254 140.312 157.11L141.513 135.51L141.514 135.494V135.479C141.514 133.324 139.764 131.58 137.611 131.58C135.464 131.58 133.72 133.316 133.712 135.463L132.514 157.063ZM144.941 157.032L144.937 157.063V157.094C144.937 159.245 146.684 160.995 148.836 160.995C150.985 160.995 152.72 159.263 152.737 157.126L155.139 135.54L155.142 135.51V135.479C155.142 133.324 153.397 131.58 151.243 131.58C149.102 131.58 147.361 133.307 147.344 135.446L144.941 157.032ZM123.98 160.995C126.135 160.995 127.882 159.246 127.882 157.094V135.479C127.882 133.324 126.132 131.58 123.98 131.58C121.83 131.58 120.083 133.324 120.083 135.479V157.094C120.083 159.245 121.827 160.995 123.98 160.995Z" fill="white" stroke="#D4D8DD" stroke-width="1.11724"/>
<path d="M97.3946 154.29L94.99 132.672C94.99 132.657 94.9922 132.644 94.9922 132.629C94.0303 133.214 93.3848 134.269 93.3848 135.48L95.7893 157.095C95.7893 158.938 97.2862 160.438 99.1298 160.438C100.96 160.438 102.446 158.964 102.472 157.138C101.963 157.45 101.372 157.628 100.737 157.628C98.8893 157.628 97.3946 156.133 97.3946 154.29Z" fill="#B51F1F"/>
<path d="M109.819 154.29L108.619 132.672C108.619 132.657 108.621 132.644 108.621 132.629C107.659 133.214 107.014 134.269 107.014 135.48L108.216 157.095C108.216 158.938 109.713 160.438 111.561 160.438C113.389 160.438 114.875 158.964 114.899 157.138C114.39 157.45 113.798 157.628 113.164 157.628C111.316 157.628 109.819 156.133 109.819 154.29Z" fill="#B51F1F"/>
<path d="M123.985 157.627C122.141 157.627 120.646 156.133 120.646 154.289V157.094C120.646 158.938 122.143 160.437 123.985 160.437C125.828 160.437 127.327 158.938 127.327 157.094V154.289C127.325 156.133 125.828 157.627 123.985 157.627Z" fill="#B51F1F"/>
<path d="M139.35 132.629C139.35 132.644 139.352 132.657 139.352 132.672L138.152 154.29C138.152 156.133 136.657 157.628 134.809 157.628C134.174 157.628 133.581 157.45 133.076 157.138C133.102 158.964 134.586 160.438 136.417 160.438C138.262 160.438 139.757 158.938 139.757 157.095L140.959 135.48C140.957 134.269 140.314 133.214 139.35 132.629Z" fill="#B51F1F"/>
<path d="M152.984 132.629C152.984 132.644 152.986 132.657 152.986 132.672L150.58 154.29C150.58 156.133 149.081 157.628 147.239 157.628C146.602 157.628 146.007 157.45 145.502 157.138C145.526 158.964 147.01 160.438 148.84 160.438C150.688 160.438 152.183 158.938 152.183 157.095L154.59 135.48C154.587 134.269 153.944 133.214 152.984 132.629Z" fill="#B51F1F"/>
<path d="M173.009 114.059H173.013C175.676 114.059 177.959 116.553 177.959 119.787C177.959 123.025 175.676 125.519 173.013 125.519H173.009H77.1094C74.4512 125.519 72.1699 123.024 72.1699 119.787C72.1699 116.552 74.4488 114.059 77.1094 114.059H173.009Z" fill="white" stroke="#D4D8DD" stroke-width="1.11724"/>
<path d="M99.8435 119.85C99.8435 122.315 97.8467 124.312 95.3831 124.312C92.9195 124.312 90.9199 122.314 90.9199 119.85C90.9199 117.384 92.9195 115.389 95.3831 115.389C97.8467 115.387 99.8435 117.384 99.8435 119.85Z" fill="#D4D8DD"/>
<path d="M98.5103 119.978C98.5103 121.583 97.2062 122.889 95.5988 122.889C93.9914 122.889 92.6895 121.585 92.6895 119.978C92.6895 118.368 93.9914 117.066 95.5988 117.066C97.2062 117.064 98.5103 118.368 98.5103 119.978Z" fill="#B51F1F"/>
<path d="M158.734 120.151C158.734 122.616 156.738 124.613 154.272 124.613C151.81 124.613 149.811 122.615 149.811 120.151C149.811 117.685 151.808 115.689 154.272 115.689C156.737 115.688 158.734 117.685 158.734 120.151Z" fill="#D4D8DD"/>
<path d="M157.444 119.978C157.444 121.583 156.14 122.889 154.531 122.889C152.923 122.889 151.619 121.585 151.619 119.978C151.619 118.368 152.923 117.066 154.531 117.066C156.138 117.064 157.444 118.368 157.444 119.978Z" fill="#B51F1F"/>
<path d="M97.7337 119.806C97.294 120.566 96.2065 120.761 95.3032 120.239C94.402 119.719 94.0229 118.679 94.4626 117.917L117.404 85.9252C117.841 85.167 118.929 84.9721 119.83 85.4942C120.733 86.0141 121.114 87.0539 120.675 87.8164L97.7337 119.806Z" fill="#B51F1F"/>
<path d="M117.664 86.0819L94.7253 118.071C94.6885 118.132 94.7643 118.412 95.0871 118.594C95.4055 118.78 95.6828 118.702 95.7175 118.646L118.654 86.6517C118.689 86.5953 118.615 86.3137 118.295 86.1296C117.978 85.9455 117.701 86.0213 117.664 86.0819Z" fill="#B51F1F"/>
<path d="M152.1 119.806C152.538 120.566 153.623 120.761 154.528 120.239C155.43 119.719 155.809 118.679 155.371 117.917L132.428 85.9273C131.99 85.1669 130.903 84.972 130.002 85.494C129.096 86.0139 128.719 87.0538 129.157 87.8163L152.1 119.806Z" fill="#B51F1F"/>
<path d="M132.16 86.0819L155.099 118.071C155.131 118.132 155.06 118.412 154.739 118.594C154.416 118.78 154.141 118.702 154.106 118.646L131.17 86.6517C131.135 86.5953 131.211 86.3137 131.527 86.1296C131.848 85.9455 132.127 86.0213 132.16 86.0819Z" fill="#B51F1F"/>
<path d="M124.702 85.4946C124.702 88.1808 122.522 90.3601 119.836 90.3601C117.15 90.3601 114.971 88.183 114.971 85.4946C114.971 82.8084 117.15 80.627 119.836 80.627C122.522 80.6291 124.702 82.8084 124.702 85.4946Z" fill="#D4D8DD"/>
<path d="M121.874 85.494C121.874 86.6204 120.96 87.5368 119.834 87.5368C118.703 87.5368 117.791 86.6226 117.791 85.494C117.791 84.3653 118.703 83.4512 119.834 83.4512C120.958 83.4512 121.874 84.3653 121.874 85.494Z" fill="#B51F1F"/>
<path d="M134.868 85.4946C134.868 88.1808 132.691 90.3601 130.002 90.3601C127.314 90.3601 125.135 88.183 125.135 85.4946C125.135 82.8084 127.314 80.627 130.002 80.627C132.689 80.6291 134.868 82.8084 134.868 85.4946Z" fill="#D4D8DD"/>
<path d="M132.042 85.494C132.042 86.6204 131.128 87.5368 130.002 87.5368C128.873 87.5368 127.959 86.6226 127.959 85.494C127.959 84.3653 128.873 83.4512 130.002 83.4512C131.128 83.4512 132.042 84.3653 132.042 85.494Z" fill="#B51F1F"/>
<path d="M52.8868 177.518C49.0363 173.175 45.5283 168.598 42.4588 163.843C39.3756 159.088 36.731 154.155 34.5933 149.126C32.4556 144.097 30.8113 138.944 29.7561 133.737C28.701 128.544 28.2351 123.296 28.4269 118.061C28.6188 112.827 29.4684 107.606 31.0716 102.467C32.6612 97.3284 35.0044 92.2583 38.1561 87.3252C41.3078 82.3922 45.3502 77.8153 50.0914 73.6085C54.8326 69.4017 60.259 65.5923 66.1924 62.2076C72.1258 58.823 78.5525 55.8494 85.2944 53.3555C92.0363 50.8615 99.0796 48.8198 106.233 47.2851C113.386 45.7503 120.634 44.7363 127.815 44.2567C134.995 43.7771 142.093 43.8456 148.917 44.5033C155.742 45.1611 162.278 46.3944 168.348 48.258C174.419 50.1216 180.01 52.6155 184.943 55.7672C189.876 58.9189 194.137 62.8243 197.796 67.3051C201.455 71.786 204.483 76.8698 206.922 82.3647C209.361 87.8597 211.239 93.7931 212.568 99.9868C213.897 106.181 214.678 112.648 214.952 119.226C215.226 125.803 214.993 132.49 214.294 139.136C213.596 145.782 212.431 152.373 210.841 158.759" stroke="#B51F1F" stroke-width="4.57761" stroke-miterlimit="10" stroke-linecap="round" stroke-linejoin="round"/>
<path d="M201.8 177.519C199.707 182.986 197.049 187.814 193.919 192.053C190.79 196.292 187.19 199.942 183.198 203.044C179.205 206.146 174.833 208.696 170.174 210.731C165.501 212.77 160.54 214.294 155.356 215.346C150.173 216.399 144.793 216.974 139.271 217.13C133.749 217.287 128.12 216.99 122.454 216.309C116.788 215.628 111.069 214.552 105.417 213.126C99.7659 211.701 94.1529 209.917 88.6993 207.822" stroke="#B51F1F" stroke-width="4.57761" stroke-miterlimit="10" stroke-linecap="round" stroke-linejoin="round"/>
<circle cx="12.55" cy="12.55" r="12.55" transform="matrix(0.92284 -0.385183 -0.385183 -0.92284 10.2754 211.611)" fill="#BDBDBD"/>
<circle cx="3.13749" cy="3.13749" r="3.13749" transform="matrix(0.92284 -0.385183 -0.385183 -0.92284 30.0762 226.467)" fill="#BDBDBD"/>
<path d="M60.3427 215.914L55.2178 218.053L53.5211 213.988L50.1335 215.402L51.8302 219.467L46.688 221.613L48.0874 224.966L53.2297 222.82L54.9337 226.902L58.3213 225.488L56.6173 221.406L61.7422 219.267L60.3427 215.914Z" fill="#BDBDBD"/>
<circle cx="12.55" cy="12.55" r="12.55" transform="matrix(-0.92284 0.385183 0.385183 0.92284 233.338 42.584)" fill="#BDBDBD"/>
<circle cx="3.13749" cy="3.13749" r="3.13749" transform="matrix(-0.92284 0.385183 0.385183 0.92284 213.537 27.7285)" fill="#BDBDBD"/>
<path d="M183.271 38.2814L188.396 36.1423L190.092 40.2075L193.48 38.7935L191.783 34.7284L196.926 32.582L195.526 29.2292L190.384 31.3755L188.68 27.293L185.292 28.7069L186.996 32.7894L181.871 34.9285L183.271 38.2814Z" fill="#BDBDBD"/>
<defs>
<filter id="filter0_dd_2040_410" x="20.998" y="26.0312" width="208.127" height="197.646" filterUnits="userSpaceOnUse" color-interpolation-filters="sRGB">
<feFlood flood-opacity="0" result="BackgroundImageFix"/>
<feColorMatrix in="SourceAlpha" type="matrix" values="0 0 0 0 0 0 0 0 0 0 0 0 0 0 0 0 0 0 127 0" result="hardAlpha"/>
<feOffset dy="-2"/>
<feGaussianBlur stdDeviation="2"/>
<feColorMatrix type="matrix" values="0 0 0 0 0 0 0 0 0 0 0 0 0 0 0 0 0 0 0.08 0"/>
<feBlend mode="normal" in2="BackgroundImageFix" result="effect1_dropShadow_2040_410"/>
<feColorMatrix in="SourceAlpha" type="matrix" values="0 0 0 0 0 0 0 0 0 0 0 0 0 0 0 0 0 0 127 0" result="hardAlpha"/>
<feOffset/>
<feGaussianBlur stdDeviation="3"/>
<feColorMatrix type="matrix" values="0 0 0 0 0 0 0 0 0 0 0 0 0 0 0 0 0 0 0.02 0"/>
<feBlend mode="normal" in2="effect1_dropShadow_2040_410" result="effect2_dropShadow_2040_410"/>
<feBlend mode="normal" in="SourceGraphic" in2="effect2_dropShadow_2040_410" result="shape"/>
</filter>
<filter id="filter1_d_2040_410" x="25.998" y="31.0312" width="204.127" height="193.646" filterUnits="userSpaceOnUse" color-interpolation-filters="sRGB">
<feFlood flood-opacity="0" result="BackgroundImageFix"/>
<feColorMatrix in="SourceAlpha" type="matrix" values="0 0 0 0 0 0 0 0 0 0 0 0 0 0 0 0 0 0 127 0" result="hardAlpha"/>
<feOffset dx="3" dy="3"/>
<feGaussianBlur stdDeviation="2"/>
<feComposite in2="hardAlpha" operator="out"/>
<feColorMatrix type="matrix" values="0 0 0 0 0 0 0 0 0 0 0 0 0 0 0 0 0 0 0.2 0"/>
<feBlend mode="normal" in2="BackgroundImageFix" result="effect1_dropShadow_2040_410"/>
<feBlend mode="normal" in="SourceGraphic" in2="effect1_dropShadow_2040_410" result="shape"/>
</filter>
<clipPath id="clip0_2040_410">
<rect width="6.81586" height="6.81586" fill="white" transform="translate(77.3435 162.033) rotate(23.4966)"/>
</clipPath>
<clipPath id="clip1_2040_410">
<rect width="5.16406" height="5.16406" fill="white" transform="translate(170.242 147.021) rotate(39.3701)"/>
</clipPath>
<clipPath id="clip2_2040_410">
<rect width="6.81586" height="6.81586" fill="white" transform="translate(87.1365 173.725) rotate(23.4966)"/>
</clipPath>
<clipPath id="clip3_2040_410">
<rect width="9.33898" height="9.33898" fill="white" transform="translate(144.205 72.8691) rotate(39.3701)"/>
</clipPath>
<clipPath id="clip4_2040_410">
<rect width="16.1003" height="16.1003" fill="white" transform="translate(97.0356 76.4883) rotate(39.3701)"/>
</clipPath>
</defs>
</svg>
