<svg width="411" height="428" viewBox="0 0 411 428" fill="none" xmlns="http://www.w3.org/2000/svg">
<circle cx="213.306" cy="216.043" r="197.592" fill="#F7F9FD"/>
<path d="M15.7132 216.041C15.7132 268.446 36.5309 318.705 73.5867 355.76C110.642 392.816 160.901 413.634 213.306 413.634C265.71 413.634 315.969 392.816 353.025 355.76C390.08 318.705 410.898 268.446 410.898 216.041C332.136 239.04 282.837 171.071 213.306 216.041C151.382 257.07 91.2203 203.492 15.7132 216.041Z" fill="#D4D8DD"/>
<path d="M204.977 83.7443L205.313 73.9374L199.29 71.967C199.043 68.6159 198.484 65.3097 197.685 62.1153L202.79 58.3537L199.32 49.1439L193.005 49.6514C191.498 46.6735 189.729 43.8374 187.751 41.1804L191.02 35.7247L184.296 28.5524L178.653 31.4407C176.108 29.2838 173.429 27.3209 170.563 25.5968L171.474 19.335L162.517 15.2675L158.413 20.0739C155.285 19.0589 152.046 18.2976 148.695 17.7976L147.173 11.6552L137.351 11.3193L135.41 17.3423C132.029 17.6185 128.753 18.1484 125.559 18.9469L121.767 13.8718L112.557 17.3125L113.065 23.6265C110.087 25.1565 107.251 26.9253 104.594 28.9031L99.1605 25.6342L91.9583 32.3288L94.8467 38.001C92.6898 40.5162 90.7269 43.2254 89.0252 46.0914L82.7634 45.151L78.6735 54.1071L83.5098 58.2119C82.4947 61.3391 81.7111 64.6006 81.2334 67.9293L75.0686 69.4817L74.7328 79.2812L80.7782 81.2515C81.0244 84.625 81.5842 87.9089 82.3828 91.0957L77.2778 94.8573L80.7483 104.067L87.0623 103.56C88.57 106.538 90.3388 109.374 92.3166 112.031L89.0476 117.486L95.7721 124.659L101.414 121.77C103.93 123.927 106.639 125.89 109.505 127.622L108.564 133.883L117.521 137.951L121.648 133.145C124.775 134.16 128.014 134.921 131.365 135.421L132.888 141.563L142.724 141.899L144.665 135.876C148.038 135.6 151.322 135.07 154.509 134.272L158.271 139.347L167.481 135.906L166.995 129.592C169.973 128.062 172.78 126.293 175.466 124.308L180.9 127.577L188.102 120.882L185.214 115.21C187.371 112.695 189.333 109.986 191.035 107.12L197.297 108.06L201.387 99.104L196.551 94.9991C197.566 91.8719 198.349 88.6328 198.827 85.2817L204.977 83.7443ZM138.702 115.516C117.222 114.777 100.407 96.7679 101.138 75.2882C101.877 53.7861 119.886 36.9636 141.366 37.7025C162.846 38.4414 179.661 56.4506 178.929 77.9527C178.191 99.4324 160.181 116.255 138.702 115.516Z" fill="#D4D8DD"/>
<path d="M241.921 40.3301L244.391 38.0239L243.406 36.076C244.16 35.1953 244.832 34.2549 245.414 33.2847L247.578 33.6131L248.981 30.5232L247.317 29.1052C247.675 28.0155 247.936 26.8885 248.1 25.7615L250.228 25.2316L250.34 21.8433L248.257 21.1715C248.168 20.0222 247.989 18.8952 247.712 17.7757L249.466 16.4696L248.272 13.2976L246.093 13.4544C245.578 12.4468 244.973 11.4691 244.279 10.5287L245.406 8.66287L243.093 6.18501L241.152 7.17765C240.264 6.42385 239.331 5.75214 238.361 5.16999L238.674 3.0056L235.592 1.59502L234.174 3.25936C233.077 2.90858 231.95 2.64736 230.823 2.48316L230.293 0.363555L226.904 0.244141L226.225 2.3339C225.083 2.42346 223.949 2.60258 222.829 2.88619L221.531 1.13229L218.351 2.31897L218.53 4.49829C217.523 5.01326 216.53 5.6178 215.605 6.31189L213.724 5.18492L211.254 7.48365L212.246 9.43906C211.485 10.3197 210.821 11.2601 210.239 12.2304L208.074 11.902L206.671 14.9918L208.335 16.4099C207.977 17.4995 207.716 18.6265 207.552 19.7535L205.425 20.2834L205.313 23.6718L207.395 24.3435C207.485 25.4854 207.664 26.6198 207.94 27.7393L206.186 29.038L207.38 32.2099L209.559 32.0457C210.074 33.0533 210.679 34.031 211.373 34.9714L210.246 36.8372L212.56 39.3151L214.5 38.3225C215.388 39.0763 216.321 39.748 217.292 40.3301L216.971 42.487L220.053 43.8976L221.471 42.2408C222.568 42.5915 223.688 42.8453 224.822 43.0169L225.352 45.1366L228.74 45.256L229.42 43.1662C230.561 43.0767 231.696 42.8975 232.815 42.6139L234.114 44.3678L237.293 43.1811L237.114 41.0018C238.122 40.4869 239.107 39.8898 240.04 39.1882L241.921 40.3301ZM224.292 26.0526C222.471 24.1047 222.576 21.0447 224.524 19.2311C226.472 17.41 229.532 17.5145 231.353 19.4624C233.174 21.4104 233.069 24.4704 231.114 26.2914C229.173 28.1125 226.113 28.008 224.292 26.0526Z" fill="#D4D8DD"/>
<path d="M291.32 138.818L283.603 133.489C283.603 133.481 283.603 133.474 283.595 133.474C282.834 130.667 281.782 127.973 280.49 125.436L282.468 117.674L271.273 105.687L263.392 107.128C260.951 105.673 258.331 104.434 255.592 103.486C255.585 103.486 255.577 103.486 255.57 103.478L250.779 95.4103L234.389 94.8506L229.06 102.56C229.053 102.56 229.038 102.568 229.03 102.568C226.231 103.329 223.53 104.381 220.999 105.665L213.245 103.687L201.259 114.882L202.699 122.749C202.699 122.749 202.699 122.756 202.692 122.756C201.207 125.227 199.997 127.846 199.05 130.585L190.982 135.377L190.422 151.774L198.147 157.11C198.908 159.932 199.93 162.626 201.244 165.186L199.273 172.925L210.469 184.912L218.298 183.479C220.768 184.941 223.395 186.173 226.172 187.128H226.179L230.963 195.181L247.353 195.741L252.682 188.031C255.518 187.27 258.22 186.218 260.779 184.926L268.504 186.897L280.49 175.702L279.05 167.835C280.535 165.365 281.744 162.745 282.692 159.999L290.76 155.207L291.32 138.818ZM240.233 163.738C230.045 163.387 222.082 154.834 222.432 144.669C222.783 134.481 231.306 126.518 241.501 126.869C251.689 127.219 259.652 135.743 259.302 145.938C258.951 156.095 250.428 164.089 240.233 163.738Z" fill="#D4D8DD"/>
<path d="M300.115 105.448C300.1 105.448 300.077 105.448 300.062 105.448L287.136 105.008C286.598 104.993 286.106 104.702 285.837 104.239L282.359 98.3801C280.508 97.7084 278.687 96.865 276.926 95.8575L271.321 96.88C270.791 96.977 270.253 96.7979 269.888 96.4023L261.058 86.9536C260.693 86.5581 260.551 86.0058 260.685 85.4908L262.096 79.9604C261.238 78.2065 260.521 76.3407 259.961 74.3852L254.341 70.5043C253.901 70.1983 253.64 69.6908 253.662 69.1534L254.103 56.2268C254.117 55.6894 254.409 55.1968 254.871 54.9281L260.745 51.4427C261.439 49.5395 262.282 47.7185 263.26 46.0317L262.23 40.4118C262.133 39.8819 262.312 39.3445 262.708 38.9788L272.157 30.1496C272.552 29.7839 273.104 29.6421 273.619 29.7764L279.165 31.1945C280.963 30.3213 282.822 29.6048 284.725 29.0525L288.606 23.4325C288.912 22.9922 289.412 22.716 289.957 22.7534L302.883 23.1937C303.421 23.2086 303.913 23.4997 304.182 23.9624L307.667 29.8361C309.518 30.5153 311.332 31.3587 313.064 32.3513L318.698 31.3214C319.228 31.2243 319.766 31.4035 320.131 31.799L328.961 41.2552C329.326 41.6507 329.468 42.203 329.334 42.718L327.916 48.2708C328.789 50.0695 329.505 51.9278 330.058 53.831L335.67 57.712C336.111 58.018 336.364 58.5255 336.349 59.0629L335.909 71.9895C335.894 72.5269 335.603 73.0194 335.14 73.2881L329.267 76.7735C328.573 78.6767 327.729 80.4903 326.751 82.177L327.781 87.8045C327.878 88.3344 327.699 88.8717 327.304 89.2374L317.855 98.0592C317.459 98.4249 316.915 98.5667 316.392 98.4324L310.869 97.0218C309.048 97.9025 307.175 98.6189 305.279 99.1638L301.406 104.776C301.115 105.194 300.629 105.448 300.115 105.448ZM288.106 101.88L299.308 102.261L303.018 96.8874C303.227 96.5814 303.548 96.3575 303.906 96.2605C305.966 95.7082 308.018 94.9171 309.989 93.9245C309.989 93.9245 309.996 93.9245 309.996 93.917C310.324 93.7528 310.713 93.708 311.086 93.805L316.34 95.141L324.535 87.491L323.557 82.1397C323.49 81.7591 323.557 81.371 323.759 81.0426C324.841 79.2514 325.759 77.281 326.483 75.1988C326.602 74.8256 326.856 74.5196 327.184 74.3255L332.797 70.9894L333.177 59.7868L327.804 56.0775C327.52 55.8834 327.311 55.5998 327.207 55.2789C327.192 55.2416 327.184 55.1968 327.169 55.152C326.61 53.0921 325.826 51.0695 324.848 49.144C324.677 48.8007 324.632 48.4126 324.729 48.0394L326.072 42.7553L318.422 34.5605L313.056 35.5456C312.683 35.6128 312.295 35.5457 311.966 35.3516C310.101 34.2396 308.13 33.3216 306.108 32.6125C305.996 32.5752 305.876 32.523 305.779 32.4558C305.563 32.3215 305.384 32.1349 305.249 31.9184L301.913 26.2985L290.711 25.9179L287.001 31.2915C286.777 31.6124 286.449 31.8363 286.076 31.9259C284.001 32.4931 281.986 33.2693 280.068 34.247C279.724 34.4187 279.336 34.4635 278.963 34.3664L273.679 33.023L265.484 40.673L266.462 46.0243C266.522 46.3601 266.477 46.7109 266.32 47.0095C266.298 47.0542 266.275 47.0915 266.246 47.1363C265.163 48.935 264.245 50.9128 263.521 53.0026C263.402 53.3533 263.156 53.6519 262.835 53.8385L257.215 57.1746L256.834 68.3772L262.215 72.094C262.521 72.303 262.745 72.6164 262.842 72.9821C263.424 75.1316 264.201 77.1691 265.163 79.0424C265.216 79.1469 265.26 79.2663 265.29 79.3783C265.35 79.632 265.35 79.8932 265.29 80.147L263.947 85.4087L271.597 93.6035L276.926 92.6258C277.299 92.5586 277.687 92.6258 278.008 92.8199C279.911 93.9394 281.889 94.8648 283.897 95.5589C284.262 95.6709 284.576 95.9172 284.77 96.253L288.106 101.88ZM295.024 87.7298C294.748 87.7298 294.472 87.7224 294.196 87.7149C281.172 87.2671 270.947 76.3108 271.388 63.2946C271.836 50.271 282.807 40.0461 295.808 40.4864C308.832 40.9342 319.057 51.8905 318.616 64.9067C318.4 71.2058 315.743 77.0497 311.13 81.3561C306.727 85.4833 301.033 87.7298 295.024 87.7298ZM294.995 43.6211C284.023 43.6211 274.918 52.3533 274.537 63.3991C274.149 74.6838 283.016 84.1772 294.301 84.5653C299.771 84.7519 304.981 82.7965 308.981 79.0573C312.974 75.3256 315.28 70.258 315.467 64.8022C315.855 53.5175 306.988 44.0241 295.704 43.636C295.472 43.6285 295.233 43.6211 294.995 43.6211Z" fill="#D4D8DD"/>
<path d="M75.1445 374.197V342.103H4.37867V317.721L64.0306 206.695H109.507V315.566H129.466V342.103H109.507V374.197H75.1445ZM30.8024 330.649L21.3897 315.566H75.1445V229.15L82.2891 231.078L30.8024 330.649ZM204.308 376.919C193.647 376.919 184.575 374.613 177.09 370.001C169.681 365.389 163.632 359.114 158.945 351.176C154.333 343.162 150.969 333.976 148.852 323.618C146.735 313.26 145.676 302.373 145.676 290.957C145.676 279.54 146.735 268.653 148.852 258.296C150.969 247.862 154.333 238.601 158.945 230.511C163.632 222.421 169.681 216.07 177.09 211.459C184.575 206.771 193.647 204.427 204.308 204.427C214.968 204.427 224.003 206.771 231.412 211.459C238.897 216.07 244.945 222.421 249.557 230.511C254.244 238.601 257.647 247.862 259.764 258.296C261.88 268.653 262.939 279.54 262.939 290.957C262.939 302.373 261.88 313.26 259.764 323.618C257.647 333.976 254.244 343.162 249.557 351.176C244.945 359.114 238.897 365.389 231.412 370.001C224.003 374.613 214.968 376.919 204.308 376.919ZM204.308 349.588C209.373 349.588 213.607 347.66 217.009 343.804C220.487 339.873 223.095 333.598 224.834 324.979C226.573 316.36 227.443 305.019 227.443 290.957C227.443 276.819 226.573 265.478 224.834 256.935C223.095 248.316 220.487 242.041 217.009 238.109C213.607 234.178 209.373 232.212 204.308 232.212C199.318 232.212 195.084 234.178 191.606 238.109C188.128 242.041 185.52 248.316 183.781 256.935C182.042 265.478 181.173 276.819 181.173 290.957C181.173 305.095 182.042 316.473 183.781 325.092C185.52 333.635 188.128 339.873 191.606 343.804C195.084 347.66 199.318 349.588 204.308 349.588ZM347.808 374.197V342.103H277.042V317.721L336.694 206.695H382.17V315.566H402.13V342.103H382.17V374.197H347.808ZM303.466 330.649L294.053 315.566H347.808V229.15L354.953 231.078L303.466 330.649Z" fill="#B51F1F"/>
</svg>
