<svg width="413" height="457" viewBox="0 0 413 457" fill="none" xmlns="http://www.w3.org/2000/svg">
<circle cx="207.277" cy="246.609" r="196.113" fill="#F7F9FD"/>
<path d="M146.731 78.1749L144.634 76.7269C144.634 76.7249 144.634 76.7228 144.632 76.7228C144.425 75.9603 144.139 75.2281 143.788 74.5386L144.326 72.4294L141.284 69.1723L139.142 69.5637C138.479 69.1682 137.767 68.8316 137.023 68.574C137.021 68.574 137.019 68.574 137.017 68.572L135.715 66.3796L131.261 66.2275L129.813 68.3225C129.811 68.3225 129.807 68.3246 129.805 68.3246C129.044 68.5314 128.31 68.8174 127.622 69.1662L125.515 68.6288L122.258 71.6709L122.65 73.8085C122.65 73.8085 122.65 73.8105 122.648 73.8105C122.244 74.4818 121.915 75.1937 121.658 75.938L119.466 77.24L119.313 81.6957L121.413 83.1457C121.619 83.9124 121.897 84.6445 122.254 85.3401L121.719 87.4432L124.761 90.7003L126.888 90.3109C127.56 90.7084 128.274 91.0431 129.028 91.3027H129.03L130.33 93.491L134.784 93.6431L136.232 91.5481C137.002 91.3412 137.737 91.0552 138.432 90.7044L140.531 91.2398L143.788 88.1977L143.397 86.0601C143.8 85.3888 144.129 84.6769 144.387 83.9306L146.579 82.6286L146.731 78.1749ZM132.849 84.9467C130.081 84.8514 127.917 82.5272 128.012 79.7649C128.107 76.9966 130.423 74.8327 133.194 74.928C135.962 75.0233 138.126 77.3394 138.031 80.1097C137.935 82.8699 135.619 85.042 132.849 84.9467Z" fill="#D4D8DD"/>
<path d="M337.004 142.335L334.445 140.568C334.445 140.566 334.445 140.563 334.443 140.563C334.191 139.633 333.842 138.74 333.414 137.898L334.069 135.325L330.358 131.351L327.745 131.829C326.936 131.346 326.068 130.936 325.159 130.622C325.157 130.622 325.155 130.622 325.152 130.619L323.564 127.944L318.13 127.759L316.363 130.315C316.361 130.315 316.356 130.317 316.354 130.317C315.426 130.57 314.53 130.918 313.691 131.344L311.12 130.688L307.147 134.4L307.624 137.008C307.624 137.008 307.624 137.01 307.622 137.01C307.13 137.829 306.729 138.698 306.414 139.606L303.74 141.194L303.554 146.63L306.115 148.399C306.367 149.334 306.706 150.228 307.142 151.076L306.489 153.642L310.2 157.616L312.796 157.141C313.615 157.626 314.485 158.034 315.406 158.351H315.408L316.994 161.02L322.428 161.206L324.194 158.65C325.135 158.398 326.03 158.049 326.879 157.621L329.44 158.274L333.414 154.562L332.936 151.955C333.428 151.136 333.829 150.267 334.144 149.357L336.818 147.768L337.004 142.335ZM320.067 150.596C316.69 150.48 314.05 147.644 314.166 144.274C314.283 140.897 317.108 138.257 320.488 138.373C323.865 138.49 326.505 141.315 326.389 144.695C326.273 148.063 323.447 150.713 320.067 150.596Z" fill="#D4D8DD"/>
<path d="M11.1632 246.608C11.1632 298.62 31.825 348.502 68.6033 385.281C105.382 422.059 155.264 442.721 207.276 442.721C259.288 442.721 309.17 422.059 345.949 385.281C382.727 348.502 403.389 298.62 403.389 246.608C325.216 269.434 276.286 201.975 207.276 246.608C145.816 287.329 86.1049 234.152 11.1632 246.608Z" fill="#D4D8DD"/>
<path d="M120.623 264.238H54.8894L48.9239 307.573C49.149 306.822 49.9369 305.809 51.2876 304.534C52.6383 303.258 54.5142 301.982 56.9154 300.707C59.3917 299.356 62.4308 298.268 66.0326 297.443C69.7095 296.542 73.9491 296.092 78.7516 296.092C93.7593 296.092 105.165 300.969 112.969 310.724C120.848 320.404 124.788 333.086 124.788 348.769C124.788 361.3 122.611 371.881 118.259 380.51C113.982 389.139 107.641 395.668 99.237 400.095C90.8328 404.447 80.3649 406.623 67.8335 406.623C57.6283 406.623 48.9614 405.122 41.8327 402.121C34.7791 399.044 29.0387 394.992 24.6114 389.965C20.2592 384.862 17.0701 379.234 15.0441 373.081C13.018 366.853 12.005 360.55 12.005 354.171C12.005 354.021 12.005 353.946 12.005 353.946C12.005 353.871 12.005 353.796 12.005 353.721H46.5602C46.5602 353.796 46.5602 353.871 46.5602 353.946C46.5602 353.946 46.5602 354.021 46.5602 354.171C46.9353 362.201 48.8113 368.429 52.188 372.856C55.6398 377.283 61.0425 379.497 68.3963 379.497C73.1237 379.497 77.0632 378.409 80.2148 376.233C83.4415 374.057 85.8427 370.755 87.4185 366.328C88.9943 361.825 89.7822 356.235 89.7822 349.557C89.7822 340.552 88.2064 333.573 85.0548 328.621C81.9032 323.593 76.8381 321.08 69.8596 321.08C65.7324 321.08 62.0931 321.867 58.9415 323.443C55.8649 325.019 53.3136 326.97 51.2876 329.296C49.3366 331.622 47.9484 333.911 47.1229 336.162L13.9185 327.495L26.8626 237.9H120.623V264.238ZM204.997 406.623C194.417 406.623 185.412 404.335 177.983 399.757C170.63 395.18 164.626 388.952 159.974 381.073C155.397 373.119 152.058 364.001 149.956 353.721C147.855 343.441 146.805 332.635 146.805 321.305C146.805 309.974 147.855 299.168 149.956 288.888C152.058 278.533 155.397 269.341 159.974 261.312C164.626 253.282 170.63 246.979 177.983 242.402C185.412 237.75 194.417 235.423 204.997 235.423C215.578 235.423 224.545 237.75 231.898 242.402C239.327 246.979 245.33 253.282 249.908 261.312C254.56 269.341 257.937 278.533 260.038 288.888C262.139 299.168 263.189 309.974 263.189 321.305C263.189 332.635 262.139 343.441 260.038 353.721C257.937 364.001 254.56 373.119 249.908 381.073C245.33 388.952 239.327 395.18 231.898 399.757C224.545 404.335 215.578 406.623 204.997 406.623ZM204.997 379.497C210.025 379.497 214.227 377.583 217.604 373.756C221.055 369.854 223.644 363.626 225.37 355.072C227.096 346.518 227.959 335.262 227.959 321.305C227.959 307.273 227.096 296.017 225.37 287.537C223.644 278.983 221.055 272.755 217.604 268.853C214.227 264.951 210.025 263 204.997 263C200.045 263 195.842 264.951 192.391 268.853C188.939 272.755 186.35 278.983 184.624 287.537C182.898 296.017 182.035 307.273 182.035 321.305C182.035 335.337 182.898 346.63 184.624 355.184C186.35 363.664 188.939 369.854 192.391 373.756C195.842 377.583 200.045 379.497 204.997 379.497ZM283.152 403.922V375.332C283.828 373.681 285.816 371.243 289.118 368.016C292.42 364.714 296.434 361 301.162 356.873C305.889 352.746 310.842 348.544 316.019 344.266C321.272 339.914 326.112 335.9 330.539 332.223C335.792 327.871 340.894 323.368 345.847 318.716C350.799 313.988 354.889 308.998 358.116 303.746C361.417 298.418 363.068 292.828 363.068 286.975C363.068 279.621 361.305 273.73 357.778 269.303C354.326 264.876 348.811 262.662 341.232 262.662C335.154 262.662 330.314 264.013 326.712 266.714C323.185 269.341 320.672 273.055 319.171 277.858C317.67 282.585 316.92 288.138 316.92 294.516H282.027C282.027 282.36 284.316 271.854 288.893 263C293.545 254.145 300.299 247.354 309.153 242.627C318.083 237.825 328.963 235.423 341.795 235.423C354.251 235.423 364.644 237.712 372.973 242.289C381.378 246.867 387.681 253.057 391.883 260.861C396.085 268.665 398.186 277.482 398.186 287.312C398.186 293.916 396.911 300.106 394.359 305.884C391.883 311.587 388.619 316.877 384.567 321.755C380.59 326.632 376.313 331.097 371.735 335.149C367.158 339.126 362.843 342.728 358.791 345.955C351.963 351.358 346.035 356.122 341.007 360.25C335.979 364.377 331.965 367.866 328.963 370.717C326.037 373.569 324.236 375.745 323.561 377.246H397.173V403.922H283.152Z" fill="#B51F1F"/>
<path d="M114.584 137.456H143.045C144.897 137.456 146.403 138.96 146.411 140.822C146.411 140.822 146.411 140.823 146.411 140.823L146.411 205.995C146.411 207.856 144.906 209.361 143.045 209.361H114.584C112.724 209.361 111.218 207.848 111.218 205.995V140.822C111.218 138.961 112.731 137.456 114.584 137.456Z" fill="white" stroke="#D7DBE0" stroke-width="0.656326"/>
<path d="M146.731 194.631H110.89V195.303H146.731V194.631Z" fill="#E0E0E0"/>
<path d="M146.731 180.257H110.89V180.929H146.731V180.257Z" fill="#E0E0E0"/>
<path d="M146.731 165.879H110.89V166.551H146.731V165.879Z" fill="#E0E0E0"/>
<path d="M146.731 151.504H110.89V152.176H146.731V151.504Z" fill="#E0E0E0"/>
<path opacity="0.6" d="M128.76 146.841H116.774C116.019 146.841 115.405 147.455 115.405 148.21C115.405 148.966 116.019 149.58 116.774 149.58H128.76C129.515 149.58 130.129 148.966 130.129 148.21C130.129 147.455 129.515 146.841 128.76 146.841Z" fill="#D7DBE0"/>
<path opacity="0.6" d="M128.76 143.288H116.774C116.019 143.288 115.405 143.902 115.405 144.658C115.405 145.413 116.019 146.027 116.774 146.027H128.76C129.515 146.027 130.129 145.413 130.129 144.658C130.129 143.894 129.515 143.288 128.76 143.288Z" fill="#D7DBE0"/>
<path opacity="0.6" d="M128.76 139.728H116.774C116.019 139.728 115.405 140.342 115.405 141.097C115.405 141.852 116.019 142.467 116.774 142.467H128.76C129.515 142.467 130.129 141.852 130.129 141.097C130.129 140.342 129.515 139.728 128.76 139.728Z" fill="#D7DBE0"/>
<path d="M131.388 149.582H136.394V146.843H131.388V149.582Z" fill="#EBEBEB"/>
<path d="M131.388 146.021H136.394V143.282H131.388V146.021Z" fill="#BDBEBE"/>
<path d="M131.388 142.468H136.394V139.729H131.388V142.468Z" fill="#EBEBEB"/>
<path d="M137.217 149.582H142.222V146.843H137.217V149.582Z" fill="#EBEBEB"/>
<path d="M137.217 146.021H142.222V143.282H137.217V146.021Z" fill="#EBEBEB"/>
<path d="M137.217 142.468H142.222V139.729H137.217V142.468Z" fill="#BDBEBE"/>
<path d="M128.759 161.214H116.774C116.019 161.214 115.404 161.828 115.404 162.583C115.404 163.339 116.019 163.953 116.774 163.953H128.759C129.515 163.953 130.129 163.339 130.129 162.583C130.129 161.828 129.515 161.214 128.759 161.214Z" fill="#EBEBEB"/>
<path opacity="0.6" d="M128.759 157.66H116.774C116.019 157.66 115.404 158.274 115.404 159.03C115.404 159.785 116.019 160.399 116.774 160.399H128.759C129.515 160.399 130.129 159.785 130.129 159.03C130.129 158.266 129.515 157.66 128.759 157.66Z" fill="#D7DBE0"/>
<path opacity="0.6" d="M128.759 154.099H116.774C116.019 154.099 115.404 154.713 115.404 155.468C115.404 156.223 116.019 156.838 116.774 156.838H128.759C129.515 156.838 130.129 156.223 130.129 155.468C130.129 154.713 129.515 154.099 128.759 154.099Z" fill="#D7DBE0"/>
<path d="M131.388 163.953H136.394V161.214H131.388V163.953Z" fill="#EBEBEB"/>
<path d="M131.388 160.392H136.394V157.653H131.388V160.392Z" fill="#EBEBEB"/>
<path d="M131.388 156.838H136.394V154.099H131.388V156.838Z" fill="#BDBEBE"/>
<path d="M137.217 163.953H142.222V161.214H137.217V163.953Z" fill="#EBEBEB"/>
<path d="M137.217 160.392H142.222V157.653H137.217V160.392Z" fill="#EBEBEB"/>
<path d="M137.217 156.838H142.222V154.099H137.217V156.838Z" fill="#EBEBEB"/>
<path opacity="0.6" d="M128.76 175.591H116.774C116.019 175.591 115.405 176.205 115.405 176.96C115.405 177.716 116.019 178.33 116.774 178.33H128.76C129.515 178.33 130.129 177.716 130.129 176.96C130.129 176.205 129.515 175.591 128.76 175.591Z" fill="#D7DBE0"/>
<path opacity="0.6" d="M128.76 172.039H116.774C116.019 172.039 115.405 172.653 115.405 173.409C115.405 174.164 116.019 174.778 116.774 174.778H128.76C129.515 174.778 130.129 174.164 130.129 173.409C130.129 172.645 129.515 172.039 128.76 172.039Z" fill="#D7DBE0"/>
<path opacity="0.6" d="M128.76 168.477H116.774C116.019 168.477 115.405 169.091 115.405 169.846C115.405 170.601 116.019 171.216 116.774 171.216H128.76C129.515 171.216 130.129 170.601 130.129 169.846C130.129 169.091 129.515 168.477 128.76 168.477Z" fill="#D7DBE0"/>
<path d="M131.388 178.329H136.394V175.59H131.388V178.329Z" fill="#EBEBEB"/>
<path d="M131.388 174.769H136.394V172.029H131.388V174.769Z" fill="#BDBEBE"/>
<path d="M131.388 171.216H136.394V168.477H131.388V171.216Z" fill="#EBEBEB"/>
<path d="M137.217 178.329H142.222V175.59H137.217V178.329Z" fill="#EBEBEB"/>
<path d="M137.217 174.769H142.222V172.029H137.217V174.769Z" fill="#EBEBEB"/>
<path d="M137.217 171.216H142.222V168.477H137.217V171.216Z" fill="#BDBEBE"/>
<path opacity="0.6" d="M128.759 189.967H116.774C116.019 189.967 115.404 190.581 115.404 191.336C115.404 192.092 116.019 192.706 116.774 192.706H128.759C129.515 192.706 130.129 192.092 130.129 191.336C130.129 190.581 129.515 189.967 128.759 189.967Z" fill="#D7DBE0"/>
<path opacity="0.6" d="M128.759 186.406H116.774C116.019 186.406 115.404 187.02 115.404 187.776C115.404 188.531 116.019 189.145 116.774 189.145H128.759C129.515 189.145 130.129 188.531 130.129 187.776C130.129 187.02 129.515 186.406 128.759 186.406Z" fill="#D7DBE0"/>
<path opacity="0.6" d="M128.759 182.855H116.774C116.019 182.855 115.404 183.47 115.404 184.225C115.404 184.98 116.019 185.595 116.774 185.595H128.759C129.515 185.595 130.129 184.98 130.129 184.225C130.129 183.47 129.515 182.855 128.759 182.855Z" fill="#D7DBE0"/>
<path d="M131.388 192.705H136.394V189.966H131.388V192.705Z" fill="#EBEBEB"/>
<path d="M131.388 189.153H136.394V186.414H131.388V189.153Z" fill="#BDBEBE"/>
<path d="M131.388 185.592H136.394V182.853H131.388V185.592Z" fill="#EBEBEB"/>
<path d="M137.217 192.705H142.222V189.966H137.217V192.705Z" fill="#BDBEBE"/>
<path d="M137.217 189.153H142.222V186.414H137.217V189.153Z" fill="#EBEBEB"/>
<path d="M137.217 185.592H142.222V182.853H137.217V185.592Z" fill="#BDBEBE"/>
<path opacity="0.6" d="M128.759 204.346H116.774C116.019 204.346 115.404 204.96 115.404 205.715C115.404 206.471 116.019 207.085 116.774 207.085H128.759C129.515 207.085 130.129 206.471 130.129 205.715C130.129 204.96 129.515 204.346 128.759 204.346Z" fill="#D7DBE0"/>
<path opacity="0.6" d="M128.759 200.785H116.774C116.019 200.785 115.404 201.399 115.404 202.155C115.404 202.91 116.019 203.524 116.774 203.524H128.759C129.515 203.524 130.129 202.91 130.129 202.155C130.129 201.399 129.515 200.785 128.759 200.785Z" fill="#D7DBE0"/>
<path opacity="0.6" d="M128.759 197.232H116.774C116.019 197.232 115.404 197.847 115.404 198.602C115.404 199.357 116.019 199.972 116.774 199.972H128.759C129.515 199.972 130.129 199.357 130.129 198.602C130.129 197.847 129.515 197.232 128.759 197.232Z" fill="#D7DBE0"/>
<path d="M131.388 207.083H136.394V204.344H131.388V207.083Z" fill="#BDBEBE"/>
<path d="M131.388 203.529H136.394V200.79H131.388V203.529Z" fill="#EBEBEB"/>
<path d="M131.388 199.969H136.394V197.23H131.388V199.969Z" fill="#EBEBEB"/>
<path d="M137.217 207.083H142.222V204.344H137.217V207.083Z" fill="#EBEBEB"/>
<path d="M137.217 203.529H142.222V200.79H137.217V203.529Z" fill="#EBEBEB"/>
<path d="M137.217 199.969H142.222V197.23H137.217V199.969Z" fill="#BDBEBE"/>
<path d="M257.619 137.456H286.081C287.932 137.456 289.438 138.96 289.446 140.822C289.446 140.822 289.446 140.823 289.446 140.823L289.446 205.995C289.446 207.856 287.941 209.361 286.081 209.361H257.619C255.759 209.361 254.253 207.848 254.253 205.995V140.822C254.253 138.961 255.766 137.456 257.619 137.456Z" fill="white" stroke="#BDBDBD" stroke-width="0.656326"/>
<path d="M289.766 194.631H253.925V195.303H289.766V194.631Z" fill="#E0E0E0"/>
<path d="M289.766 180.257H253.925V180.929H289.766V180.257Z" fill="#E0E0E0"/>
<path d="M289.766 165.879H253.925V166.551H289.766V165.879Z" fill="#E0E0E0"/>
<path d="M289.766 151.504H253.925V152.176H289.766V151.504Z" fill="#E0E0E0"/>
<path opacity="0.6" d="M271.795 146.841H259.809C259.054 146.841 258.439 147.455 258.439 148.21C258.439 148.966 259.054 149.58 259.809 149.58H271.795C272.55 149.58 273.164 148.966 273.164 148.21C273.164 147.455 272.55 146.841 271.795 146.841Z" fill="#D7DBE0"/>
<path opacity="0.6" d="M271.795 143.288H259.809C259.054 143.288 258.439 143.902 258.439 144.658C258.439 145.413 259.054 146.027 259.809 146.027H271.795C272.55 146.027 273.164 145.413 273.164 144.658C273.164 143.894 272.55 143.288 271.795 143.288Z" fill="#D7DBE0"/>
<path opacity="0.6" d="M271.795 139.728H259.809C259.054 139.728 258.439 140.342 258.439 141.097C258.439 141.852 259.054 142.467 259.809 142.467H271.795C272.55 142.467 273.164 141.852 273.164 141.097C273.164 140.342 272.55 139.728 271.795 139.728Z" fill="#D7DBE0"/>
<path d="M274.423 149.582H279.428V146.843H274.423V149.582Z" fill="#EBEBEB"/>
<path d="M274.423 146.021H279.428V143.282H274.423V146.021Z" fill="#BDBEBE"/>
<path d="M274.423 142.468H279.428V139.729H274.423V142.468Z" fill="#EBEBEB"/>
<path d="M280.251 149.582H285.256V146.843H280.251V149.582Z" fill="#EBEBEB"/>
<path d="M280.251 146.021H285.256V143.282H280.251V146.021Z" fill="#EBEBEB"/>
<path d="M280.251 142.468H285.256V139.729H280.251V142.468Z" fill="#BDBEBE"/>
<path d="M271.795 161.214H259.809C259.054 161.214 258.44 161.828 258.44 162.583C258.44 163.339 259.054 163.953 259.809 163.953H271.795C272.55 163.953 273.165 163.339 273.165 162.583C273.165 161.828 272.55 161.214 271.795 161.214Z" fill="#EBEBEB"/>
<path opacity="0.6" d="M271.795 157.66H259.809C259.054 157.66 258.44 158.274 258.44 159.03C258.44 159.785 259.054 160.399 259.809 160.399H271.795C272.55 160.399 273.165 159.785 273.165 159.03C273.165 158.266 272.55 157.66 271.795 157.66Z" fill="#D7DBE0"/>
<path opacity="0.6" d="M271.795 154.099H259.809C259.054 154.099 258.44 154.713 258.44 155.468C258.44 156.223 259.054 156.838 259.809 156.838H271.795C272.55 156.838 273.165 156.223 273.165 155.468C273.165 154.713 272.55 154.099 271.795 154.099Z" fill="#D7DBE0"/>
<path d="M274.424 163.953H279.429V161.214H274.424V163.953Z" fill="#EBEBEB"/>
<path d="M274.424 160.392H279.429V157.653H274.424V160.392Z" fill="#EBEBEB"/>
<path d="M274.424 156.838H279.429V154.099H274.424V156.838Z" fill="#BDBEBE"/>
<path d="M280.252 163.953H285.257V161.214H280.252V163.953Z" fill="#EBEBEB"/>
<path d="M280.252 160.392H285.257V157.653H280.252V160.392Z" fill="#EBEBEB"/>
<path d="M280.252 156.838H285.257V154.099H280.252V156.838Z" fill="#EBEBEB"/>
<path opacity="0.6" d="M271.795 175.591H259.809C259.054 175.591 258.439 176.205 258.439 176.96C258.439 177.716 259.054 178.33 259.809 178.33H271.795C272.55 178.33 273.164 177.716 273.164 176.96C273.164 176.205 272.55 175.591 271.795 175.591Z" fill="#D7DBE0"/>
<path opacity="0.6" d="M271.795 172.039H259.809C259.054 172.039 258.439 172.653 258.439 173.409C258.439 174.164 259.054 174.778 259.809 174.778H271.795C272.55 174.778 273.164 174.164 273.164 173.409C273.164 172.645 272.55 172.039 271.795 172.039Z" fill="#D7DBE0"/>
<path opacity="0.6" d="M271.795 168.477H259.809C259.054 168.477 258.439 169.091 258.439 169.846C258.439 170.601 259.054 171.216 259.809 171.216H271.795C272.55 171.216 273.164 170.601 273.164 169.846C273.164 169.091 272.55 168.477 271.795 168.477Z" fill="#D7DBE0"/>
<path d="M274.423 178.329H279.428V175.59H274.423V178.329Z" fill="#EBEBEB"/>
<path d="M274.423 174.769H279.428V172.029H274.423V174.769Z" fill="#BDBEBE"/>
<path d="M274.423 171.216H279.428V168.477H274.423V171.216Z" fill="#EBEBEB"/>
<path d="M280.251 178.329H285.256V175.59H280.251V178.329Z" fill="#EBEBEB"/>
<path d="M280.251 174.769H285.256V172.029H280.251V174.769Z" fill="#EBEBEB"/>
<path d="M280.251 171.216H285.256V168.477H280.251V171.216Z" fill="#BDBEBE"/>
<path opacity="0.6" d="M271.795 189.967H259.809C259.054 189.967 258.439 190.581 258.439 191.336C258.439 192.092 259.054 192.706 259.809 192.706H271.795C272.55 192.706 273.164 192.092 273.164 191.336C273.164 190.581 272.55 189.967 271.795 189.967Z" fill="#D7DBE0"/>
<path opacity="0.6" d="M271.795 186.406H259.809C259.054 186.406 258.439 187.02 258.439 187.776C258.439 188.531 259.054 189.145 259.809 189.145H271.795C272.55 189.145 273.164 188.531 273.164 187.776C273.164 187.02 272.55 186.406 271.795 186.406Z" fill="#D7DBE0"/>
<path opacity="0.6" d="M271.795 182.855H259.809C259.054 182.855 258.439 183.47 258.439 184.225C258.439 184.98 259.054 185.595 259.809 185.595H271.795C272.55 185.595 273.164 184.98 273.164 184.225C273.164 183.47 272.55 182.855 271.795 182.855Z" fill="#D7DBE0"/>
<path d="M274.423 192.705H279.428V189.966H274.423V192.705Z" fill="#EBEBEB"/>
<path d="M274.423 189.153H279.428V186.414H274.423V189.153Z" fill="#BDBEBE"/>
<path d="M274.423 185.592H279.428V182.853H274.423V185.592Z" fill="#EBEBEB"/>
<path d="M280.251 192.705H285.256V189.966H280.251V192.705Z" fill="#BDBEBE"/>
<path d="M280.251 189.153H285.256V186.414H280.251V189.153Z" fill="#EBEBEB"/>
<path d="M280.251 185.592H285.256V182.853H280.251V185.592Z" fill="#BDBEBE"/>
<path opacity="0.6" d="M271.795 204.346H259.809C259.054 204.346 258.439 204.96 258.439 205.715C258.439 206.471 259.054 207.085 259.809 207.085H271.795C272.55 207.085 273.164 206.471 273.164 205.715C273.164 204.96 272.55 204.346 271.795 204.346Z" fill="#D7DBE0"/>
<path opacity="0.6" d="M271.795 200.785H259.809C259.054 200.785 258.439 201.399 258.439 202.155C258.439 202.91 259.054 203.524 259.809 203.524H271.795C272.55 203.524 273.164 202.91 273.164 202.155C273.164 201.399 272.55 200.785 271.795 200.785Z" fill="#D7DBE0"/>
<path opacity="0.6" d="M271.795 197.232H259.809C259.054 197.232 258.439 197.847 258.439 198.602C258.439 199.357 259.054 199.972 259.809 199.972H271.795C272.55 199.972 273.164 199.357 273.164 198.602C273.164 197.847 272.55 197.232 271.795 197.232Z" fill="#D7DBE0"/>
<path d="M274.423 207.083H279.428V204.344H274.423V207.083Z" fill="#BDBEBE"/>
<path d="M274.423 203.529H279.428V200.79H274.423V203.529Z" fill="#EBEBEB"/>
<path d="M274.423 199.969H279.428V197.23H274.423V199.969Z" fill="#EBEBEB"/>
<path d="M280.251 207.083H285.256V204.344H280.251V207.083Z" fill="#EBEBEB"/>
<path d="M280.251 203.529H285.256V200.79H280.251V203.529Z" fill="#EBEBEB"/>
<path d="M280.251 199.969H285.256V197.23H280.251V199.969Z" fill="#BDBEBE"/>
<path d="M179.427 137.447H207.888C209.739 137.447 211.246 138.951 211.254 140.813C211.254 140.813 211.254 140.814 211.254 140.814L211.254 205.986C211.254 207.847 209.749 209.352 207.888 209.352H179.427C177.566 209.352 176.061 207.839 176.061 205.986V140.813C176.061 138.953 177.574 137.447 179.427 137.447Z" fill="white" stroke="#D7DBE0" stroke-width="0.656326"/>
<path d="M211.573 194.622H175.733V195.294H211.573V194.622Z" fill="#E0E0E0"/>
<path d="M211.573 180.248H175.733V180.92H211.573V180.248Z" fill="#E0E0E0"/>
<path d="M211.573 165.87H175.733V166.542H211.573V165.87Z" fill="#E0E0E0"/>
<path d="M211.573 151.495H175.733V152.167H211.573V151.495Z" fill="#E0E0E0"/>
<path opacity="0.6" d="M193.602 146.832H181.617C180.861 146.832 180.247 147.446 180.247 148.202C180.247 148.957 180.861 149.571 181.617 149.571H193.602C194.358 149.571 194.972 148.957 194.972 148.202C194.972 147.446 194.358 146.832 193.602 146.832Z" fill="#D7DBE0"/>
<path opacity="0.6" d="M193.602 143.28H181.617C180.861 143.28 180.247 143.894 180.247 144.65C180.247 145.405 180.861 146.019 181.617 146.019H193.602C194.358 146.019 194.972 145.405 194.972 144.65C194.972 143.886 194.358 143.28 193.602 143.28Z" fill="#D7DBE0"/>
<path opacity="0.6" d="M193.602 139.719H181.617C180.861 139.719 180.247 140.333 180.247 141.088C180.247 141.844 180.861 142.458 181.617 142.458H193.602C194.358 142.458 194.972 141.844 194.972 141.088C194.972 140.333 194.358 139.719 193.602 139.719Z" fill="#D7DBE0"/>
<path d="M196.231 149.574H201.236V146.835H196.231V149.574Z" fill="#EBEBEB"/>
<path d="M196.231 146.013H201.236V143.274H196.231V146.013Z" fill="#BDBEBE"/>
<path d="M196.231 142.459H201.236V139.72H196.231V142.459Z" fill="#EBEBEB"/>
<path d="M202.059 149.574H207.064V146.835H202.059V149.574Z" fill="#EBEBEB"/>
<path d="M202.059 146.013H207.064V143.274H202.059V146.013Z" fill="#EBEBEB"/>
<path d="M202.059 142.459H207.064V139.72H202.059V142.459Z" fill="#BDBEBE"/>
<path d="M193.602 161.205H181.617C180.861 161.205 180.247 161.819 180.247 162.575C180.247 163.33 180.861 163.944 181.617 163.944H193.602C194.358 163.944 194.972 163.33 194.972 162.575C194.972 161.819 194.358 161.205 193.602 161.205Z" fill="#EBEBEB"/>
<path opacity="0.6" d="M193.602 157.65H181.617C180.861 157.65 180.247 158.265 180.247 159.02C180.247 159.775 180.861 160.389 181.617 160.389H193.602C194.358 160.389 194.972 159.775 194.972 159.02C194.972 158.256 194.358 157.65 193.602 157.65Z" fill="#D7DBE0"/>
<path opacity="0.6" d="M193.602 154.09H181.617C180.861 154.09 180.247 154.704 180.247 155.459C180.247 156.215 180.861 156.829 181.617 156.829H193.602C194.358 156.829 194.972 156.215 194.972 155.459C194.972 154.704 194.358 154.09 193.602 154.09Z" fill="#D7DBE0"/>
<path d="M196.231 163.944H201.236V161.205H196.231V163.944Z" fill="#EBEBEB"/>
<path d="M196.231 160.383H201.236V157.644H196.231V160.383Z" fill="#EBEBEB"/>
<path d="M196.231 156.829H201.236V154.09H196.231V156.829Z" fill="#BDBEBE"/>
<path d="M202.059 163.944H207.064V161.205H202.059V163.944Z" fill="#EBEBEB"/>
<path d="M202.059 160.383H207.064V157.644H202.059V160.383Z" fill="#EBEBEB"/>
<path d="M202.059 156.829H207.064V154.09H202.059V156.829Z" fill="#EBEBEB"/>
<path opacity="0.6" d="M193.602 175.582H181.617C180.861 175.582 180.247 176.196 180.247 176.952C180.247 177.707 180.861 178.321 181.617 178.321H193.602C194.358 178.321 194.972 177.707 194.972 176.952C194.972 176.196 194.358 175.582 193.602 175.582Z" fill="#D7DBE0"/>
<path opacity="0.6" d="M193.602 172.03H181.617C180.861 172.03 180.247 172.644 180.247 173.4C180.247 174.155 180.861 174.769 181.617 174.769H193.602C194.358 174.769 194.972 174.155 194.972 173.4C194.972 172.636 194.358 172.03 193.602 172.03Z" fill="#D7DBE0"/>
<path opacity="0.6" d="M193.602 168.469H181.617C180.861 168.469 180.247 169.083 180.247 169.838C180.247 170.594 180.861 171.208 181.617 171.208H193.602C194.358 171.208 194.972 170.594 194.972 169.838C194.972 169.083 194.358 168.469 193.602 168.469Z" fill="#D7DBE0"/>
<path d="M196.231 178.321H201.236V175.582H196.231V178.321Z" fill="#EBEBEB"/>
<path d="M196.231 174.76H201.236V172.021H196.231V174.76Z" fill="#BDBEBE"/>
<path d="M196.231 171.207H201.236V168.468H196.231V171.207Z" fill="#EBEBEB"/>
<path d="M202.059 178.321H207.064V175.582H202.059V178.321Z" fill="#EBEBEB"/>
<path d="M202.059 174.76H207.064V172.021H202.059V174.76Z" fill="#EBEBEB"/>
<path d="M202.059 171.207H207.064V168.468H202.059V171.207Z" fill="#BDBEBE"/>
<path opacity="0.6" d="M193.602 189.958H181.617C180.861 189.958 180.247 190.572 180.247 191.328C180.247 192.083 180.861 192.697 181.617 192.697H193.602C194.358 192.697 194.972 192.083 194.972 191.328C194.972 190.572 194.358 189.958 193.602 189.958Z" fill="#D7DBE0"/>
<path opacity="0.6" d="M193.602 186.397H181.617C180.861 186.397 180.247 187.012 180.247 187.767C180.247 188.522 180.861 189.137 181.617 189.137H193.602C194.358 189.137 194.972 188.522 194.972 187.767C194.972 187.012 194.358 186.397 193.602 186.397Z" fill="#D7DBE0"/>
<path opacity="0.6" d="M193.602 182.847H181.617C180.861 182.847 180.247 183.461 180.247 184.216C180.247 184.972 180.861 185.586 181.617 185.586H193.602C194.358 185.586 194.972 184.972 194.972 184.216C194.972 183.461 194.358 182.847 193.602 182.847Z" fill="#D7DBE0"/>
<path d="M196.231 192.696H201.236V189.957H196.231V192.696Z" fill="#EBEBEB"/>
<path d="M196.231 189.145H201.236V186.405H196.231V189.145Z" fill="#BDBEBE"/>
<path d="M196.231 185.583H201.236V182.844H196.231V185.583Z" fill="#EBEBEB"/>
<path d="M202.059 192.696H207.064V189.957H202.059V192.696Z" fill="#BDBEBE"/>
<path d="M202.059 189.145H207.064V186.405H202.059V189.145Z" fill="#EBEBEB"/>
<path d="M202.059 185.583H207.064V182.844H202.059V185.583Z" fill="#BDBEBE"/>
<path opacity="0.6" d="M193.602 204.337H181.617C180.861 204.337 180.247 204.951 180.247 205.706C180.247 206.462 180.861 207.076 181.617 207.076H193.602C194.358 207.076 194.972 206.462 194.972 205.706C194.972 204.951 194.358 204.337 193.602 204.337Z" fill="#D7DBE0"/>
<path opacity="0.6" d="M193.602 200.776H181.617C180.861 200.776 180.247 201.391 180.247 202.146C180.247 202.901 180.861 203.515 181.617 203.515H193.602C194.358 203.515 194.972 202.901 194.972 202.146C194.972 201.391 194.358 200.776 193.602 200.776Z" fill="#D7DBE0"/>
<path opacity="0.6" d="M193.602 197.224H181.617C180.861 197.224 180.247 197.838 180.247 198.593C180.247 199.349 180.861 199.963 181.617 199.963H193.602C194.358 199.963 194.972 199.349 194.972 198.593C194.972 197.838 194.358 197.224 193.602 197.224Z" fill="#D7DBE0"/>
<path d="M196.231 207.074H201.236V204.335H196.231V207.074Z" fill="#BDBEBE"/>
<path d="M196.231 203.521H201.236V200.781H196.231V203.521Z" fill="#EBEBEB"/>
<path d="M196.231 199.96H201.236V197.221H196.231V199.96Z" fill="#EBEBEB"/>
<path d="M202.059 207.074H207.064V204.335H202.059V207.074Z" fill="#EBEBEB"/>
<path d="M202.059 203.521H207.064V200.781H202.059V203.521Z" fill="#EBEBEB"/>
<path d="M202.059 199.96H207.064V197.221H202.059V199.96Z" fill="#BDBEBE"/>
<path d="M217.603 79.9346V112.305H133.864V123.564" stroke="#B51F1F" stroke-width="1.31265" stroke-dasharray="2.63 2.63"/>
<circle cx="133.411" cy="123.563" r="3.28163" fill="#B51F1F"/>
<path fill-rule="evenodd" clip-rule="evenodd" d="M131.569 121.854C131.631 121.793 131.714 121.758 131.801 121.758C131.888 121.758 131.972 121.793 132.033 121.854L133.278 123.099L134.523 121.854C134.553 121.823 134.589 121.798 134.629 121.781C134.669 121.763 134.712 121.754 134.756 121.754C134.799 121.754 134.843 121.762 134.883 121.778C134.923 121.795 134.96 121.819 134.991 121.85C135.022 121.881 135.046 121.917 135.062 121.958C135.079 121.998 135.087 122.041 135.087 122.085C135.087 122.128 135.077 122.172 135.06 122.212C135.043 122.252 135.018 122.288 134.987 122.318L133.742 123.563L134.987 124.808C135.046 124.869 135.08 124.952 135.079 125.038C135.078 125.124 135.044 125.207 134.983 125.268C134.922 125.328 134.84 125.363 134.754 125.364C134.667 125.364 134.585 125.331 134.523 125.272L133.278 124.027L132.033 125.272C131.971 125.331 131.888 125.364 131.802 125.364C131.716 125.363 131.634 125.328 131.573 125.268C131.512 125.207 131.478 125.124 131.477 125.038C131.476 124.952 131.509 124.869 131.569 124.808L132.814 123.563L131.569 122.318C131.508 122.257 131.473 122.173 131.473 122.086C131.473 121.999 131.508 121.916 131.569 121.854Z" fill="white"/>
<path d="M247.937 78.2939V110.664H269.185L269.185 130.28" stroke="#B51F1F" stroke-width="1.31265" stroke-dasharray="2.63 2.63"/>
<circle cx="3.28163" cy="3.28163" r="3.28163" transform="matrix(-1 0 0 1 272.987 126.998)" fill="#B51F1F"/>
<path fill-rule="evenodd" clip-rule="evenodd" d="M267.996 128.571C268.058 128.509 268.141 128.475 268.228 128.475C268.316 128.475 268.399 128.509 268.46 128.571L269.705 129.816L270.95 128.571C270.98 128.54 271.016 128.515 271.056 128.497C271.096 128.48 271.14 128.471 271.183 128.471C271.227 128.47 271.27 128.479 271.31 128.495C271.351 128.512 271.387 128.536 271.418 128.567C271.449 128.598 271.473 128.634 271.49 128.675C271.506 128.715 271.515 128.758 271.514 128.802C271.514 128.845 271.505 128.888 271.488 128.928C271.47 128.968 271.445 129.005 271.414 129.035L270.169 130.28L271.414 131.524C271.474 131.586 271.507 131.669 271.506 131.755C271.505 131.841 271.471 131.924 271.41 131.984C271.349 132.045 271.267 132.08 271.181 132.08C271.095 132.081 271.012 132.048 270.95 131.988L269.705 130.744L268.46 131.988C268.399 132.048 268.316 132.081 268.23 132.08C268.144 132.08 268.061 132.045 268 131.984C267.94 131.924 267.905 131.841 267.904 131.755C267.904 131.669 267.937 131.586 267.996 131.524L269.241 130.28L267.996 129.035C267.935 128.973 267.9 128.89 267.9 128.803C267.9 128.716 267.935 128.632 267.996 128.571Z" fill="white"/>
<path d="M231.046 83.0459V118.468H196.525L196.525 129.869" stroke="#B51F1F" stroke-width="1.31265" stroke-dasharray="2.63 2.63"/>
<circle cx="196.525" cy="130.127" r="3.28163" fill="#B51F1F"/>
<path fill-rule="evenodd" clip-rule="evenodd" d="M194.816 128.419C194.877 128.357 194.961 128.322 195.048 128.322C195.135 128.322 195.218 128.357 195.28 128.419L196.525 129.663L197.769 128.419C197.8 128.387 197.836 128.362 197.876 128.345C197.916 128.328 197.959 128.319 198.002 128.318C198.046 128.318 198.089 128.326 198.13 128.343C198.17 128.359 198.207 128.384 198.237 128.414C198.268 128.445 198.293 128.482 198.309 128.522C198.326 128.563 198.334 128.606 198.333 128.649C198.333 128.693 198.324 128.736 198.307 128.776C198.29 128.816 198.265 128.852 198.233 128.883L196.989 130.127L198.233 131.372C198.293 131.434 198.326 131.517 198.325 131.603C198.325 131.689 198.29 131.771 198.229 131.832C198.168 131.893 198.086 131.927 198 131.928C197.914 131.929 197.831 131.896 197.769 131.836L196.525 130.591L195.28 131.836C195.218 131.896 195.135 131.929 195.049 131.928C194.963 131.927 194.881 131.893 194.82 131.832C194.759 131.771 194.724 131.689 194.724 131.603C194.723 131.517 194.756 131.434 194.816 131.372L196.061 130.127L194.816 128.883C194.754 128.821 194.72 128.738 194.72 128.651C194.72 128.564 194.754 128.48 194.816 128.419Z" fill="white"/>
<path opacity="0.9" d="M278.337 43.4128C278.214 28.5756 266.155 16.5935 251.29 16.5935C247.711 16.5935 244.295 17.2978 241.163 18.5636C235.853 7.69505 224.689 0.205078 211.784 0.205078C196.166 0.205078 183.119 11.1593 179.873 25.7966C165.188 26.7293 153.568 38.9302 153.568 53.853C153.568 69.3945 166.169 81.9856 181.7 81.9856H271.228C282.239 81.9856 291.176 73.0586 291.176 62.0378C291.176 53.539 285.837 46.2774 278.337 43.4128Z" fill="#D4D8DD"/>
</svg>
