<svg width="26" height="25" viewBox="0 0 26 25" fill="none" xmlns="http://www.w3.org/2000/svg">
<path d="M21.1797 3.26025H8.88487C8.68107 3.26025 8.48561 3.34121 8.34151 3.48532C8.1974 3.62943 8.11644 3.82488 8.11644 4.02868V7.87083H4.27429C4.07049 7.87083 3.87504 7.95179 3.73093 8.0959C3.58682 8.24001 3.50586 8.43546 3.50586 8.63926V20.9341C3.50586 21.1379 3.58682 21.3334 3.73093 21.4775C3.87504 21.6216 4.07049 21.7026 4.27429 21.7026H16.5692C16.773 21.7026 16.9684 21.6216 17.1125 21.4775C17.2566 21.3334 17.3376 21.1379 17.3376 20.9341V17.092H21.1797C21.3835 17.092 21.579 17.011 21.7231 16.8669C21.8672 16.7228 21.9482 16.5274 21.9482 16.3236V4.02868C21.9482 3.82488 21.8672 3.62943 21.7231 3.48532C21.579 3.34121 21.3835 3.26025 21.1797 3.26025ZM15.8007 20.1657H5.04272V9.40769H15.8007V20.1657ZM20.4113 15.5551H17.3376V8.63926C17.3376 8.43546 17.2566 8.24001 17.1125 8.0959C16.9684 7.95179 16.773 7.87083 16.5692 7.87083H9.6533V4.79711H20.4113V15.5551Z" fill="#B51F1F"/>
</svg>
