<svg width="27" height="27" viewBox="0 0 27 27" fill="none" xmlns="http://www.w3.org/2000/svg">
<path d="M3.375 7.875C3.375 9.73896 4.88604 11.25 6.75 11.25C8.61396 11.25 10.125 9.73896 10.125 7.875C10.125 6.01104 8.61396 4.5 6.75 4.5C4.88604 4.5 3.375 6.01104 3.375 7.875Z" stroke="#B51F1F" stroke-width="2.25" stroke-linecap="round" stroke-linejoin="round"/>
<path d="M10.125 16.875L23.625 7.875M10.125 10.125L15.1875 13.5M23.625 19.125L18.5625 15.75" stroke="#B51F1F" stroke-width="2.25" stroke-linecap="round" stroke-linejoin="round"/>
<path d="M3.375 19.125C3.375 20.989 4.88604 22.5 6.75 22.5C8.61396 22.5 10.125 20.989 10.125 19.125C10.125 17.261 8.61396 15.75 6.75 15.75C4.88604 15.75 3.375 17.261 3.375 19.125Z" stroke="#B51F1F" stroke-width="2.25" stroke-linecap="round" stroke-linejoin="round"/>
</svg>
