<svg width="28" height="28" viewBox="0 0 28 28" fill="none" xmlns="http://www.w3.org/2000/svg">
<path fill-rule="evenodd" clip-rule="evenodd" d="M5.5 4C4.94772 4 4.5 4.44772 4.5 5V23C4.5 23.5523 4.94772 24 5.5 24H16.5C17.0523 24 17.5 23.5523 17.5 23C17.5 22.4477 17.0523 22 16.5 22H6.5V6H16.5C17.0523 6 17.5 5.55228 17.5 5C17.5 4.44772 17.0523 4 16.5 4H5.5ZM23.2071 13.2929L17.2071 7.29289C16.8166 6.90237 16.1834 6.90237 15.7929 7.29289C15.4024 7.68342 15.4024 8.31658 15.7929 8.70711L20.0858 13H11C10.4477 13 10 13.4477 10 14C10 14.5523 10.4477 15 11 15H20.0858L15.7929 19.2929C15.4024 19.6834 15.4024 20.3166 15.7929 20.7071C16.1834 21.0976 16.8166 21.0976 17.2071 20.7071L23.2071 14.7071C23.5976 14.3166 23.5976 13.6834 23.2071 13.2929Z" fill="black"/>
</svg>
