<svg width="42" height="42" viewBox="0 0 42 42" fill="none" xmlns="http://www.w3.org/2000/svg">
<path fill-rule="evenodd" clip-rule="evenodd" d="M17.2672 14.3196C17.643 13.9148 18.2757 13.8914 18.6805 14.2672L26.4696 21.5L18.6805 28.7328C18.2757 29.1086 17.643 29.0852 17.2672 28.6805C16.8914 28.2757 16.9148 27.643 17.3196 27.2672L23.5304 21.5L17.3196 15.7328C16.9148 15.357 16.8914 14.7243 17.2672 14.3196Z" fill="black"/>
<path fill-rule="evenodd" clip-rule="evenodd" d="M21 41C9.9543 41 1 32.0457 1 21C1 9.9543 9.9543 1 21 1C32.0457 1 41 9.9543 41 21C41 32.0457 32.0457 41 21 41ZM21 42C9.40202 42 0 32.598 0 21C0 9.40202 9.40202 0 21 0C32.598 0 42 9.40202 42 21C42 32.598 32.598 42 21 42Z" fill="#424242"/>
</svg>
