<svg width="34" height="34" viewBox="0 0 34 34" fill="none" xmlns="http://www.w3.org/2000/svg">
<path d="M28.8038 21.2672L22.6638 18.5156C22.3856 18.3964 22.0821 18.3485 21.7807 18.3762C21.4793 18.4038 21.1896 18.5063 20.9378 18.6742C20.9122 18.6906 20.8879 18.7088 20.865 18.7288L17.6559 21.4582C17.6226 21.4764 17.5855 21.4865 17.5476 21.4879C17.5098 21.4892 17.4721 21.4818 17.4376 21.466C15.3749 20.4704 13.2381 18.3466 12.2386 16.3125C12.2219 16.2785 12.2133 16.2412 12.2133 16.2033C12.2133 16.1655 12.2219 16.1282 12.2386 16.0942L14.9771 12.8448C14.9968 12.8208 15.015 12.7956 15.0317 12.7694C15.1973 12.5166 15.2973 12.2266 15.3227 11.9254C15.3481 11.6243 15.2982 11.3216 15.1773 11.0446L12.4452 4.91504C12.2901 4.55321 12.0218 4.25145 11.6805 4.05506C11.3393 3.85867 10.9436 3.77825 10.5528 3.82586C8.85432 4.04915 7.29526 4.88325 6.16696 6.17229C5.03866 7.46133 4.41833 9.1171 4.42189 10.8302C4.42189 21.0072 12.7013 29.2866 22.8783 29.2866C24.5913 29.2899 26.2469 28.6694 27.5359 27.5412C28.8249 26.413 29.6591 24.8541 29.8826 23.1557C29.9301 22.7667 29.8508 22.3728 29.6564 22.0325C29.4621 21.6922 29.163 21.4238 28.8038 21.2672ZM22.8783 27.7269C13.5617 27.7269 5.98159 20.1468 5.98159 10.8302C5.97724 9.49656 6.4586 8.20696 7.33572 7.20235C8.21284 6.19774 9.42573 5.54683 10.7478 5.37125H10.7777C10.83 5.37223 10.8809 5.38901 10.9236 5.4194C10.9662 5.44978 10.9987 5.49235 11.0168 5.54152L13.7593 11.6646C13.7749 11.6987 13.783 11.7357 13.783 11.7732C13.783 11.8106 13.7749 11.8476 13.7593 11.8817L11.0155 15.1389C10.995 15.1621 10.9764 15.1869 10.9596 15.2129C10.7879 15.475 10.6868 15.777 10.6661 16.0897C10.6454 16.4023 10.7057 16.715 10.8413 16.9975C11.9942 19.3578 14.3727 21.7182 16.7591 22.871C17.0432 23.0059 17.3574 23.0648 17.6711 23.042C17.9848 23.0192 18.2872 22.9156 18.5488 22.7411C18.5735 22.7242 18.5982 22.706 18.6216 22.6865L21.8294 19.957C21.8611 19.94 21.8961 19.93 21.932 19.9278C21.9678 19.9255 22.0038 19.9311 22.0374 19.944L28.1787 22.6956C28.2288 22.7169 28.271 22.7535 28.2992 22.8002C28.3274 22.8468 28.3403 22.9012 28.3359 22.9555C28.1613 24.2782 27.511 25.492 26.5066 26.3701C25.5022 27.2482 24.2124 27.7305 22.8783 27.7269Z" fill="#B22A2E"/>
</svg>
