<svg width="42" height="42" viewBox="0 0 42 42" fill="none" xmlns="http://www.w3.org/2000/svg">
<path fill-rule="evenodd" clip-rule="evenodd" d="M24.7328 14.3196C24.357 13.9148 23.7243 13.8914 23.3195 14.2672L15.5304 21.5L23.3195 28.7328C23.7243 29.1086 24.357 29.0852 24.7328 28.6805C25.1086 28.2757 25.0852 27.643 24.6804 27.2672L18.4696 21.5L24.6804 15.7328C25.0852 15.357 25.1086 14.7243 24.7328 14.3196Z" fill="black"/>
<path fill-rule="evenodd" clip-rule="evenodd" d="M21 41C32.0457 41 41 32.0457 41 21C41 9.9543 32.0457 1 21 1C9.9543 1 1 9.9543 1 21C1 32.0457 9.9543 41 21 41ZM21 42C32.598 42 42 32.598 42 21C42 9.40202 32.598 0 21 0C9.40202 0 0 9.40202 0 21C0 32.598 9.40202 42 21 42Z" fill="#424242"/>
</svg>
