<svg width="260" height="239" viewBox="0 0 260 239" fill="none" xmlns="http://www.w3.org/2000/svg">
<rect y="107.506" width="166.174" height="59.7641" rx="29.882" transform="rotate(-40.3122 0 107.506)" fill="#EEEEEE"/>
<rect x="94.5929" y="193.293" width="166.174" height="59.7641" rx="29.882" transform="rotate(-40.3122 94.5929 193.293)" fill="#EEEEEE"/>
<rect x="21.8464" y="171.877" width="232.259" height="59.7641" rx="29.882" transform="rotate(-40.3122 21.8464 171.877)" fill="#EEEEEE"/>
<circle cx="10.0855" cy="10.0855" r="10.0855" transform="matrix(-0.982304 -0.187293 -0.187293 0.982304 203.524 69.1523)" fill="#BDBDBD"/>
<circle cx="2.52138" cy="2.52138" r="2.52138" transform="matrix(-0.982304 -0.187293 -0.187293 0.982304 196.883 50.4229)" fill="#BDBDBD"/>
<path d="M171.914 43.9822L176.298 44.818L175.635 48.2954L178.533 48.8479L179.196 45.3706L183.594 46.2092L184.141 43.3412L179.742 42.5025L180.408 39.0102L177.511 38.4577L176.845 41.9499L172.461 41.1141L171.914 43.9822Z" fill="#BDBDBD"/>
<circle cx="7.59037" cy="7.59037" r="7.59037" transform="matrix(0.999609 -0.0279649 -0.0279649 -0.999609 57.6537 173.258)" fill="#BDBDBD"/>
<circle cx="1.89975" cy="1.89975" r="1.89975" transform="matrix(0.999609 -0.0279649 -0.0279649 -0.999609 65.615 185.944)" fill="#BDBDBD"/>
<path d="M85.0042 186.707L81.6467 186.801L81.5722 184.138L79.3529 184.2L79.4274 186.863L76.0586 186.957L76.1201 189.154L79.4889 189.06L79.5637 191.734L81.783 191.672L81.7082 188.998L85.0656 188.904L85.0042 186.707Z" fill="#BDBDBD"/>
<g clip-path="url(#clip0_1094_491)">
<path d="M78.043 102.269L121.737 81.4825L105.726 68.6221L59 88.6955L78.043 102.269Z" fill="url(#paint0_linear_1094_491)"/>
<path d="M77.4089 101.752L120.944 81.0449L121.737 81.4809L78.043 102.268L61.259 89.5657L61.2987 89.5459L77.4089 101.752Z" fill="#555555"/>
<path d="M182.551 95.2747L121.737 81.483L136.183 67.5723L196.442 79.006L182.551 95.2747Z" fill="url(#paint1_linear_1094_491)"/>
<path d="M122.688 80.5724L182.968 94.2255L196.026 78.9277L196.442 79.007L182.551 95.2758L121.737 81.484L122.688 80.5724Z" fill="#555555"/>
<path d="M121.737 81.4424L77.9044 102.308L85.7911 160.904L136.876 175.567L121.737 81.4424Z" fill="url(#paint2_linear_1094_491)"/>
<path d="M168.066 153.374L182.532 95.254L121.737 81.4424L125.641 151.689L168.066 153.374Z" fill="url(#paint3_linear_1094_491)"/>
<path d="M140.958 182.839L178.549 151.569L182.532 95.2529L141.81 118.219L140.958 182.839Z" fill="url(#paint4_linear_1094_491)"/>
<path d="M123.084 127.414L117.595 124.422L117.655 92.5186L123.144 95.4909L123.084 127.414Z" fill="url(#paint5_linear_1094_491)"/>
<path d="M111.274 97.1758L105.785 94.1836L126.73 58L132.2 60.9724L111.274 97.1758Z" fill="url(#paint6_linear_1094_491)"/>
<path d="M132.2 60.9727L153.026 91.2908L141.156 92.9752L141.097 124.879L123.084 127.415L123.144 95.4918L111.274 97.1761L132.2 60.9727Z" fill="url(#paint7_linear_1094_491)"/>
<path d="M140.958 182.839L178.549 151.569L182.532 95.2529L141.81 118.219L140.958 182.839Z" fill="url(#paint8_linear_1094_491)"/>
<path d="M77.9044 102.309L85.0381 160.706L140.958 182.84L141.81 118.221L77.9044 102.309Z" fill="url(#paint9_linear_1094_491)"/>
<path d="M77.9044 102.309L85.0381 160.706L140.958 182.84L141.81 118.221L77.9044 102.309Z" fill="url(#paint10_linear_1094_491)"/>
<path d="M141.81 118.221L77.9044 102.309L85.0381 160.706L140.958 182.84L141.81 118.221Z" fill="url(#paint11_linear_1094_491)"/>
<path d="M154.889 144.773L141.81 118.219L182.532 95.2529L180.293 126.978L154.889 144.773Z" fill="url(#paint12_linear_1094_491)"/>
<path d="M182.532 95.2529L141.81 118.219L161.19 134.726L201 109.025L182.532 95.2529Z" fill="url(#paint13_linear_1094_491)"/>
<path d="M81.4713 131.537L77.9044 102.309L141.81 118.221L134.459 147.191L81.4713 131.537Z" fill="url(#paint14_linear_1094_491)"/>
<path d="M141.81 118.221L128.395 139.582L64.37 120.182L77.9042 102.309L141.81 118.221Z" fill="url(#paint15_linear_1094_491)"/>
</g>
<defs>
<linearGradient id="paint0_linear_1094_491" x1="67.6542" y1="91.8751" x2="121.924" y2="77.477" gradientUnits="userSpaceOnUse">
<stop stop-color="#D7D7D7"/>
<stop offset="0.575" stop-color="#CACACA"/>
<stop offset="1" stop-color="#BDBDBD"/>
</linearGradient>
<linearGradient id="paint1_linear_1094_491" x1="120.266" y1="80.141" x2="187.825" y2="82.356" gradientUnits="userSpaceOnUse">
<stop stop-color="#D7D7D7"/>
<stop offset="0.575" stop-color="#CACACA"/>
<stop offset="1" stop-color="#BDBDBD"/>
</linearGradient>
<linearGradient id="paint2_linear_1094_491" x1="104.855" y1="125.329" x2="97.5762" y2="77.1019" gradientUnits="userSpaceOnUse">
<stop stop-color="#828282"/>
<stop offset="0.3723" stop-color="#9F9F9F"/>
<stop offset="0.7839" stop-color="#BDBDBD"/>
<stop offset="1" stop-color="#CACACA"/>
</linearGradient>
<linearGradient id="paint3_linear_1094_491" x1="143.815" y1="120.408" x2="159.996" y2="75.9094" gradientUnits="userSpaceOnUse">
<stop stop-color="#828282"/>
<stop offset="0.3723" stop-color="#9F9F9F"/>
<stop offset="0.7839" stop-color="#BDBDBD"/>
<stop offset="1" stop-color="#CACACA"/>
</linearGradient>
<linearGradient id="paint4_linear_1094_491" x1="159.725" y1="110.029" x2="163.187" y2="159.875" gradientUnits="userSpaceOnUse">
<stop stop-color="#D9A976"/>
<stop offset="0.3529" stop-color="#D6A572"/>
<stop offset="0.708" stop-color="#CC9B66"/>
<stop offset="1" stop-color="#BF8D56"/>
</linearGradient>
<linearGradient id="paint5_linear_1094_491" x1="120.362" y1="101.321" x2="120.362" y2="123.183" gradientUnits="userSpaceOnUse">
<stop stop-color="#BA0000"/>
<stop offset="0.2723" stop-color="#BF0000"/>
<stop offset="0.5799" stop-color="#CC0100"/>
<stop offset="0.9037" stop-color="#E30200"/>
<stop offset="1" stop-color="#EB0300"/>
</linearGradient>
<linearGradient id="paint6_linear_1094_491" x1="109.098" y1="96.9695" x2="128.344" y2="59.2777" gradientUnits="userSpaceOnUse">
<stop stop-color="#CF0000"/>
<stop offset="0.2435" stop-color="#D30500"/>
<stop offset="0.5186" stop-color="#DE1200"/>
<stop offset="0.808" stop-color="#F02900"/>
<stop offset="1" stop-color="#FF3C00"/>
</linearGradient>
<linearGradient id="paint7_linear_1094_491" x1="132.149" y1="72.6513" x2="132.149" y2="128.405" gradientUnits="userSpaceOnUse">
<stop stop-color="#B51F1F"/>
<stop offset="0.1597" stop-color="#911919"/>
<stop offset="0.5094" stop-color="#6D1313"/>
<stop offset="0.8021" stop-color="#B51F1F"/>
<stop offset="1" stop-color="#911919"/>
</linearGradient>
<linearGradient id="paint8_linear_1094_491" x1="165.147" y1="181.625" x2="159.978" y2="117.019" gradientUnits="userSpaceOnUse">
<stop stop-color="#828282"/>
<stop offset="0.3215" stop-color="#9F9F9F"/>
<stop offset="0.6769" stop-color="#9F9F9F"/>
<stop offset="0.8635" stop-color="#BDBDBD"/>
<stop offset="0.955" stop-color="#CACACA"/>
<stop offset="1" stop-color="#CACACA"/>
</linearGradient>
<linearGradient id="paint9_linear_1094_491" x1="110.976" y1="173.149" x2="109.938" y2="114.998" gradientUnits="userSpaceOnUse">
<stop stop-color="#D9A976"/>
<stop offset="0.2141" stop-color="#E2B280"/>
<stop offset="0.6082" stop-color="#ECBD8C"/>
<stop offset="1" stop-color="#F0C190"/>
</linearGradient>
<linearGradient id="paint10_linear_1094_491" x1="99.7282" y1="167.898" x2="101.024" y2="164.514" gradientUnits="userSpaceOnUse">
<stop stop-color="#DBC6B3"/>
<stop offset="0.3817" stop-color="#EBE0D6"/>
<stop offset="0.7765" stop-color="#FAF7F4"/>
<stop offset="1" stop-color="white"/>
</linearGradient>
<linearGradient id="paint11_linear_1094_491" x1="102.81" y1="176.796" x2="113.073" y2="123.694" gradientUnits="userSpaceOnUse">
<stop stop-color="#828282"/>
<stop offset="0.0472" stop-color="#9F9F9F"/>
<stop offset="0.2462" stop-color="#CACACA"/>
<stop offset="0.4386" stop-color="#CACACA"/>
<stop offset="0.932292" stop-color="#D7D7D7"/>
<stop offset="1" stop-color="#E5E5E5"/>
</linearGradient>
<linearGradient id="paint12_linear_1094_491" x1="162.198" y1="118.411" x2="155.279" y2="143.678" gradientUnits="userSpaceOnUse">
<stop stop-color="#D7D7D7"/>
<stop offset="0.2833" stop-color="#CACACA"/>
<stop offset="0.8857" stop-color="#F9F5F2"/>
<stop offset="1" stop-color="white"/>
</linearGradient>
<linearGradient id="paint13_linear_1094_491" x1="144.075" y1="118.617" x2="200.596" y2="111.244" gradientUnits="userSpaceOnUse">
<stop stop-color="#D7D7D7"/>
<stop offset="0.569" stop-color="#CACACA"/>
<stop offset="1" stop-color="#BDBDBD"/>
</linearGradient>
<linearGradient id="paint14_linear_1094_491" x1="107.605" y1="119.557" x2="102.123" y2="139.524" gradientUnits="userSpaceOnUse">
<stop stop-color="#E5E5E5"/>
<stop offset="0.1613" stop-color="#D7D7D7"/>
<stop offset="0.3873" stop-color="#CACACA"/>
<stop offset="0.9426" stop-color="#FBF8F6"/>
<stop offset="1" stop-color="white"/>
</linearGradient>
<linearGradient id="paint15_linear_1094_491" x1="68.1045" y1="120.09" x2="143.786" y2="121.936" gradientUnits="userSpaceOnUse">
<stop stop-color="#D7D7D7"/>
<stop offset="0.569" stop-color="#CACACA"/>
<stop offset="1" stop-color="#BDBDBD"/>
</linearGradient>
<clipPath id="clip0_1094_491">
<rect width="142" height="124.84" fill="white" transform="translate(59 58)"/>
</clipPath>
</defs>
</svg>
