<svg width="149" height="151" viewBox="0 0 149 151" fill="none" xmlns="http://www.w3.org/2000/svg">
<path d="M3.2009 74.1643C3.19741 86.7778 6.4932 99.094 12.7601 109.95L2.60156 147.04L40.559 137.087C51.0575 142.803 62.8203 145.798 74.7737 145.798H74.8052C114.266 145.798 146.387 113.688 146.404 74.2208C146.412 55.096 138.971 37.1123 125.451 23.5824C111.934 10.0536 93.9567 2.59906 74.8023 2.59033C35.3372 2.59033 3.21778 34.6987 3.20148 74.1643" fill="url(#paint0_linear_3465_43)"/>
<path d="M0.646053 74.1413C0.64198 87.2086 4.05589 99.9653 10.5462 111.21L0.0234375 149.63L39.3419 139.32C50.1754 145.227 62.3728 148.341 74.7844 148.346H74.8164C115.693 148.346 148.968 115.081 148.986 74.2006C148.993 54.3886 141.284 35.7585 127.281 21.7438C113.277 7.7309 94.6569 0.00814637 74.8164 0C33.9333 0 0.662346 33.2605 0.646053 74.1413ZM24.061 109.273L22.593 106.943C16.4215 97.1297 13.1641 85.79 13.1688 74.1459C13.1822 40.1668 40.8356 12.5221 74.8397 12.5221C91.307 12.5291 106.783 18.9485 118.423 30.5954C130.062 42.2436 136.467 57.7275 136.463 74.196C136.448 108.175 108.794 135.823 74.8164 135.823H74.792C63.7286 135.817 52.8782 132.846 43.4157 127.232L41.1638 125.896L17.8314 132.014L24.061 109.272V109.273Z" fill="url(#paint1_linear_3465_43)"/>
<path d="M56.2787 43.1466C54.8903 40.0609 53.4292 39.9986 52.1089 39.9445C51.0278 39.8979 49.7919 39.9014 48.5571 39.9014C47.3212 39.9014 45.3131 40.3664 43.6157 42.2197C41.9166 44.0747 37.1289 48.5575 37.1289 57.6751C37.1289 66.7932 43.7699 75.6046 44.6957 76.8423C45.6227 78.0776 57.5164 97.3869 76.3531 104.815C92.0081 110.988 95.1939 109.761 98.5915 109.451C101.99 109.143 109.557 104.969 111.1 100.642C112.645 96.315 112.645 92.6061 112.182 91.831C111.719 91.0589 110.483 90.5951 108.63 89.6688C106.776 88.7418 97.6646 84.2584 95.966 83.6399C94.2669 83.0219 93.0316 82.7135 91.7957 84.5691C90.5598 86.4218 87.0109 90.5951 85.9291 91.831C84.8486 93.0699 83.7669 93.2241 81.9141 92.2971C80.0597 91.3673 74.0913 89.4127 67.0104 83.0999C61.5011 78.1876 57.7817 72.1215 56.7006 70.2658C55.6194 68.4131 56.5848 67.4088 57.514 66.4854C58.3467 65.655 59.3679 64.3213 60.2954 63.2396C61.2195 62.1573 61.5279 61.3851 62.1458 60.1492C62.7644 58.9121 62.4548 57.8298 61.9922 56.9029C61.5279 55.976 57.9266 46.8107 56.2787 43.1466Z" fill="white"/>
<defs>
<linearGradient id="paint0_linear_3465_43" x1="7192.73" y1="14447.6" x2="7192.73" y2="2.59033" gradientUnits="userSpaceOnUse">
<stop stop-color="#1FAF38"/>
<stop offset="1" stop-color="#60D669"/>
</linearGradient>
<linearGradient id="paint1_linear_3465_43" x1="7448.13" y1="14963" x2="7448.13" y2="0" gradientUnits="userSpaceOnUse">
<stop stop-color="#F9F9F9"/>
<stop offset="1" stop-color="white"/>
</linearGradient>
</defs>
</svg>
