<svg width="24" height="24" viewBox="0 0 24 24" fill="none" xmlns="http://www.w3.org/2000/svg">
<path d="M15.9784 13.994C16.0556 13.3569 16.1135 12.7199 16.1135 12.0635C16.1135 11.4071 16.0556 10.77 15.9784 10.133H19.241C19.3954 10.7507 19.4919 11.3975 19.4919 12.0635C19.4919 12.7295 19.3954 13.3762 19.241 13.994M14.2699 19.3609C14.849 18.2894 15.293 17.1311 15.6019 15.9245H18.4494C17.5143 17.5349 16.0306 18.7547 14.2699 19.3609ZM14.0285 13.994H9.5111C9.41458 13.3569 9.35666 12.7199 9.35666 12.0635C9.35666 11.4071 9.41458 10.7604 9.5111 10.133H14.0285C14.1154 10.7604 14.183 11.4071 14.183 12.0635C14.183 12.7199 14.1154 13.3569 14.0285 13.994ZM11.7698 19.747C10.9687 18.5887 10.3219 17.3049 9.92617 15.9245H13.6135C13.2177 17.3049 12.571 18.5887 11.7698 19.747ZM7.90877 8.20244H5.0902C6.01575 6.58776 7.49833 5.366 9.26013 4.7661C8.68098 5.83754 8.24661 6.99586 7.90877 8.20244ZM5.0902 15.9245H7.90877C8.24661 17.1311 8.68098 18.2894 9.26013 19.3609C7.50203 18.7544 6.02153 17.5343 5.0902 15.9245ZM4.29868 13.994C4.14424 13.3762 4.04771 12.7295 4.04771 12.0635C4.04771 11.3975 4.14424 10.7507 4.29868 10.133H7.56127C7.48405 10.77 7.42614 11.4071 7.42614 12.0635C7.42614 12.7199 7.48405 13.3569 7.56127 13.994M11.7698 4.37034C12.571 5.52866 13.2177 6.82211 13.6135 8.20244H9.92617C10.3219 6.82211 10.9687 5.52866 11.7698 4.37034ZM18.4494 8.20244H15.6019C15.2998 7.00692 14.8525 5.85289 14.2699 4.7661C16.0459 5.37422 17.5228 6.6001 18.4494 8.20244ZM11.7698 2.41086C6.43191 2.41086 2.11719 6.75454 2.11719 12.0635C2.11719 14.6235 3.13416 17.0787 4.94438 18.8889C5.84071 19.7853 6.90481 20.4963 8.07592 20.9814C9.24703 21.4664 10.5022 21.7161 11.7698 21.7161C14.3299 21.7161 16.785 20.6992 18.5953 18.8889C20.4055 17.0787 21.4225 14.6235 21.4225 12.0635C21.4225 10.7959 21.1728 9.5407 20.6877 8.36959C20.2026 7.19848 19.4916 6.13438 18.5953 5.23805C17.6989 4.34172 16.6348 3.63071 15.4637 3.14562C14.2926 2.66053 13.0374 2.41086 11.7698 2.41086Z" fill="white"/>
</svg>
