<svg width="61" height="45" viewBox="0 0 61 45" fill="none" xmlns="http://www.w3.org/2000/svg">
<path fill-rule="evenodd" clip-rule="evenodd" d="M3.5 3C3.22386 3 3 3.22386 3 3.5V29.7387L7.94511 25.5H33C33.2761 25.5 33.5 25.2761 33.5 25V3.5C33.5 3.22386 33.2761 3 33 3H3.5ZM0 3.5C0 1.567 1.567 0 3.5 0H33C34.933 0 36.5 1.567 36.5 3.5V25C36.5 26.933 34.933 28.5 33 28.5H9.05489L0 36.2613V3.5Z" fill="#A90001"/>
<path fill-rule="evenodd" clip-rule="evenodd" d="M57 11C57.2761 11 57.5 11.2239 57.5 11.5V37.7387L52.5549 33.5H27.5C27.2239 33.5 27 33.2761 27 33V11.5C27 11.2239 27.2239 11 27.5 11H57ZM60.5 11.5C60.5 9.567 58.933 8 57 8H27.5C25.567 8 24 9.567 24 11.5V33C24 34.933 25.567 36.5 27.5 36.5H51.4451L60.5 44.2613V11.5Z" fill="#A90001"/>
</svg>
