<svg width="384" height="405" viewBox="0 0 384 405" fill="none" xmlns="http://www.w3.org/2000/svg">
<circle cx="192.229" cy="212.486" r="191.562" fill="#F7F9FD"/>
<path d="M0.666055 212.485C0.666055 263.29 20.8484 312.015 56.7731 347.94C92.6979 383.864 141.422 404.047 192.228 404.047C243.033 404.047 291.757 383.864 327.682 347.94C363.607 312.015 383.789 263.29 383.789 212.485C307.431 234.782 259.636 168.888 192.228 212.485C132.194 252.261 73.8685 200.319 0.666055 212.485Z" fill="#D4D8DD"/>
<circle cx="193.512" cy="84.1001" r="84.021" fill="#D4D8DD"/>
<circle cx="193.513" cy="84.1012" r="71.1027" fill="#D4D8DD"/>
<g clip-path="url(#clip0_511_5872)">
<path d="M193.515 118.87C190.811 118.87 188.525 117.936 186.657 116.069C184.79 114.202 183.856 111.916 183.856 109.211C183.856 106.507 184.79 104.221 186.657 102.354C188.525 100.486 190.811 99.5528 193.515 99.5528C196.219 99.5528 198.505 100.486 200.373 102.354C202.24 104.221 203.174 106.507 203.174 109.211C203.174 111.916 202.24 114.202 200.373 116.069C198.505 117.936 196.219 118.87 193.515 118.87ZM171.687 97.0416L163.573 88.7352C167.372 84.9362 171.832 81.9266 176.952 79.7064C182.073 77.4862 187.594 76.3748 193.515 76.3722C199.439 76.3722 204.961 77.4991 210.081 79.7527C215.202 82.0064 219.66 85.0649 223.457 88.9284L215.343 97.0416C212.51 94.2084 209.226 91.9869 205.492 90.3772C201.757 88.7674 197.765 87.9625 193.515 87.9625C189.265 87.9625 185.273 88.7674 181.538 90.3772C177.804 91.9869 174.52 94.2084 171.687 97.0416ZM155.267 80.622L147.154 72.5088C153.078 66.4561 160 61.7234 167.92 58.3107C175.84 54.898 184.372 53.1916 193.515 53.1916C202.658 53.1916 211.19 54.898 219.11 58.3107C227.03 61.7234 233.952 66.4561 239.876 72.5088L231.763 80.622C226.805 75.6639 221.057 71.7838 214.52 68.9815C207.984 66.1792 200.982 64.7794 193.515 64.7819C186.046 64.7819 179.043 66.1831 172.506 68.9853C165.969 71.7876 160.223 75.6665 155.267 80.622Z" fill="#F7F9FD"/>
</g>
<mask id="path-6-inside-1_511_5872" fill="white">
<path d="M139.899 37.74L246.724 130.811L241.889 136.361L135.063 43.2903L139.899 37.74Z"/>
</mask>
<path d="M139.899 37.74L246.724 130.811L241.889 136.361L135.063 43.2903L139.899 37.74Z" fill="#D4D8DD"/>
<path d="M243.301 134.74L136.476 41.6692L133.651 44.9113L240.476 137.982L243.301 134.74Z" fill="#F7F9FD" mask="url(#path-6-inside-1_511_5872)"/>
<path d="M98.6431 127.44L98.6522 128.534L99.6739 128.924C104.476 130.758 107.888 135.407 107.888 140.838C107.888 147.888 102.171 153.6 95.1265 153.6H30.6592C20.3597 153.6 12.0041 145.25 12.0041 134.945C12.0041 125.05 19.7091 116.959 29.445 116.341L30.6474 116.265L30.9082 115.088C33.0861 105.265 41.8445 97.9162 52.3219 97.9162C60.9788 97.9162 68.4718 102.939 72.0375 110.237L72.6933 111.579L74.0782 111.019C76.1479 110.182 78.4045 109.717 80.7692 109.717C90.5931 109.717 98.5614 117.635 98.6431 127.44Z" stroke="#D4D8DD" stroke-width="3.20548"/>
<path d="M356.497 78.4001L356.506 79.4949L357.529 79.8845C361.31 81.3241 363.988 84.978 363.988 89.2558C363.988 94.7934 359.498 99.2837 353.96 99.2837H301.753C293.575 99.2837 286.946 92.6552 286.946 84.4773C286.946 76.6301 293.063 70.205 300.786 69.7081L301.988 69.6308L302.248 68.4546C303.977 60.6369 310.951 54.7926 319.288 54.7926C326.184 54.7926 332.142 58.7874 334.986 64.6013L335.642 65.9428L337.027 65.3829C338.665 64.7204 340.453 64.3497 342.33 64.3497C350.115 64.3497 356.431 70.6286 356.497 78.4001Z" stroke="#D4D8DD" stroke-width="3.20548"/>
<defs>
<clipPath id="clip0_511_5872">
<rect width="92.7224" height="92.7224" fill="white" transform="translate(147.154 37.7395)"/>
</clipPath>
</defs>
</svg>
