<svg width="244" height="254" viewBox="0 0 244 254" fill="none" xmlns="http://www.w3.org/2000/svg">
<g filter="url(#filter0_dd_2040_661)">
<path d="M136.639 216.192C88.9434 223.407 35.0919 204.459 27.8769 156.764C20.6619 109.068 72.5508 39.8549 120.246 32.6399C167.942 25.4249 215.355 83.7946 222.57 131.49C229.785 179.185 184.348 208.992 136.639 216.192Z" fill="white"/>
</g>
<g filter="url(#filter1_d_2040_661)">
<path d="M136.639 216.192C88.9434 223.407 35.0919 204.459 27.8769 156.764C20.6619 109.068 72.5508 39.8549 120.246 32.6399C167.942 25.4249 215.355 83.7946 222.57 131.49C229.785 179.185 184.348 208.992 136.639 216.192Z" fill="#F7F9FD"/>
<path d="M136.564 215.698L136.564 215.698C112.799 219.293 87.5168 216.366 67.2948 206.619C47.0837 196.878 31.949 180.34 28.3713 156.689C24.7922 133.029 35.877 103.936 53.8709 79.8207C71.8643 55.7056 96.657 36.714 120.321 33.1343C143.939 29.5616 167.563 42.2226 186.226 61.8184C204.882 81.4066 218.485 107.832 222.075 131.565C225.653 155.213 216.189 174.427 199.872 188.65C183.541 202.885 160.351 212.108 136.564 215.698Z" stroke="#F7F9FD"/>
</g>
<rect x="96.252" y="75.7285" width="63.4136" height="105.584" fill="#D4D8DD"/>
<rect x="99.4238" y="77.6309" width="57.0722" height="98.9252" fill="white"/>
<rect x="113.064" y="97.6074" width="36.4628" height="1.26827" fill="#BDBDBD"/>
<rect x="113.064" y="99.8281" width="19.3411" height="1.26827" fill="#BDBDBD"/>
<g clip-path="url(#clip0_2040_661)">
<path d="M148.052 75.9172L140.047 75.6272L140.873 68.1191H117.686V75.9172H108.3V79.8507H149.157L148.052 75.9172Z" fill="#7D889B"/>
<rect x="118.812" y="77.1836" width="20.3018" height="0.725063" fill="white"/>
<circle cx="128.602" cy="72.4689" r="1.81266" fill="#7D889B"/>
<circle cx="128.603" cy="72.4677" r="1.45013" fill="white"/>
</g>
<rect x="103.546" y="96.655" width="5.70722" height="5.70722" rx="0.317068" stroke="#7D889B" stroke-width="0.634136"/>
<path fill-rule="evenodd" clip-rule="evenodd" d="M111.362 95.8134C111.513 95.9622 111.515 96.2055 111.367 96.3569L106.833 100.969C106.761 101.043 106.662 101.084 106.559 101.084C106.456 101.084 106.357 101.043 106.285 100.969L104.925 99.5871C104.776 99.4358 104.778 99.1925 104.929 99.0436C105.081 98.8947 105.324 98.8967 105.473 99.048L106.559 100.152L110.818 95.8181C110.967 95.6667 111.211 95.6646 111.362 95.8134Z" fill="#57B376" stroke="white" stroke-width="0.221987" stroke-linecap="round" stroke-linejoin="round"/>
<rect x="113.064" y="97.6055" width="36.4628" height="1.26827" fill="#BDBDBD"/>
<rect x="113.064" y="99.8262" width="19.3411" height="1.26827" fill="#BDBDBD"/>
<rect x="103.546" y="96.655" width="5.70722" height="5.70722" rx="0.317068" stroke="#7D889B" stroke-width="0.634136"/>
<path fill-rule="evenodd" clip-rule="evenodd" d="M111.361 95.8134C111.513 95.9622 111.515 96.2055 111.366 96.3569L106.832 100.969C106.76 101.043 106.661 101.084 106.558 101.084C106.455 101.084 106.356 101.043 106.284 100.969L104.924 99.5871C104.775 99.4358 104.777 99.1925 104.929 99.0436C105.08 98.8947 105.323 98.8967 105.472 99.048L106.558 100.152L110.818 95.8181C110.966 95.6667 111.21 95.6646 111.361 95.8134Z" fill="#57B376" stroke="white" stroke-width="0.221987" stroke-linecap="round" stroke-linejoin="round"/>
<rect x="113.064" y="109.338" width="36.4628" height="1.26827" fill="#BDBDBD"/>
<rect x="113.064" y="111.559" width="19.3411" height="1.26827" fill="#BDBDBD"/>
<rect x="103.546" y="108.387" width="5.70722" height="5.70722" rx="0.317068" stroke="#7D889B" stroke-width="0.634136"/>
<path fill-rule="evenodd" clip-rule="evenodd" d="M111.361 107.546C111.513 107.695 111.515 107.938 111.366 108.089L106.832 112.702C106.76 112.775 106.661 112.817 106.558 112.817C106.455 112.817 106.356 112.775 106.284 112.702L104.924 111.32C104.775 111.168 104.777 110.925 104.929 110.776C105.08 110.627 105.323 110.629 105.472 110.78L106.558 111.884L110.818 107.55C110.966 107.399 111.21 107.397 111.361 107.546Z" fill="#57B376" stroke="white" stroke-width="0.221987" stroke-linecap="round" stroke-linejoin="round"/>
<rect x="113.064" y="121.068" width="36.4628" height="1.26827" fill="#BDBDBD"/>
<rect x="113.064" y="123.289" width="19.3411" height="1.26827" fill="#BDBDBD"/>
<rect x="103.546" y="120.12" width="5.70722" height="5.70722" rx="0.317068" stroke="#7D889B" stroke-width="0.634136"/>
<path fill-rule="evenodd" clip-rule="evenodd" d="M111.361 119.278C111.513 119.427 111.515 119.67 111.366 119.822L106.832 124.434C106.76 124.508 106.661 124.549 106.558 124.549C106.455 124.549 106.356 124.508 106.284 124.434L104.924 123.052C104.775 122.901 104.777 122.657 104.929 122.508C105.08 122.36 105.323 122.362 105.472 122.513L106.558 123.617L110.818 119.283C110.966 119.132 111.21 119.129 111.361 119.278Z" fill="#57B376" stroke="white" stroke-width="0.221987" stroke-linecap="round" stroke-linejoin="round"/>
<rect x="113.064" y="132.803" width="36.4628" height="1.26827" fill="#BDBDBD"/>
<rect x="113.064" y="135.023" width="19.3411" height="1.26827" fill="#BDBDBD"/>
<rect x="103.546" y="131.852" width="5.70722" height="5.70722" rx="0.317068" stroke="#7D889B" stroke-width="0.634136"/>
<path fill-rule="evenodd" clip-rule="evenodd" d="M111.361 131.011C111.513 131.159 111.515 131.403 111.366 131.554L106.832 136.167C106.76 136.24 106.661 136.282 106.558 136.282C106.455 136.282 106.356 136.24 106.284 136.167L104.924 134.784C104.775 134.633 104.777 134.39 104.929 134.241C105.08 134.092 105.323 134.094 105.472 134.245L106.558 135.349L110.818 131.015C110.966 130.864 111.21 130.862 111.361 131.011Z" fill="#57B376" stroke="white" stroke-width="0.221987" stroke-linecap="round" stroke-linejoin="round"/>
<rect x="113.064" y="144.533" width="36.4628" height="1.26827" fill="#BDBDBD"/>
<rect x="113.064" y="146.754" width="19.3411" height="1.26827" fill="#BDBDBD"/>
<rect x="103.546" y="143.583" width="5.70722" height="5.70722" rx="0.317068" stroke="#7D889B" stroke-width="0.634136"/>
<path fill-rule="evenodd" clip-rule="evenodd" d="M111.361 142.741C111.513 142.89 111.515 143.133 111.366 143.285L106.832 147.897C106.76 147.971 106.661 148.012 106.558 148.012C106.455 148.012 106.356 147.971 106.284 147.897L104.924 146.515C104.775 146.364 104.777 146.12 104.929 145.971C105.08 145.822 105.323 145.824 105.472 145.976L106.558 147.079L110.818 142.746C110.966 142.594 111.21 142.592 111.361 142.741Z" fill="#57B376" stroke="white" stroke-width="0.221987" stroke-linecap="round" stroke-linejoin="round"/>
<rect x="113.064" y="156.266" width="36.4628" height="1.26827" fill="#BDBDBD"/>
<rect x="113.064" y="158.486" width="19.3411" height="1.26827" fill="#BDBDBD"/>
<rect x="103.546" y="155.315" width="5.70722" height="5.70722" rx="0.317068" stroke="#7D889B" stroke-width="0.634136"/>
<path fill-rule="evenodd" clip-rule="evenodd" d="M111.361 154.474C111.513 154.622 111.515 154.866 111.366 155.017L106.832 159.629C106.76 159.703 106.661 159.744 106.558 159.744C106.455 159.744 106.356 159.703 106.284 159.63L104.924 158.247C104.775 158.096 104.777 157.853 104.929 157.704C105.08 157.555 105.323 157.557 105.472 157.708L106.558 158.812L110.818 154.478C110.966 154.327 111.21 154.325 111.361 154.474Z" fill="#57B376" stroke="white" stroke-width="0.221987" stroke-linecap="round" stroke-linejoin="round"/>
<rect x="113.064" y="167.998" width="36.4628" height="1.26827" fill="#BDBDBD"/>
<rect x="113.064" y="170.219" width="19.3411" height="1.26827" fill="#BDBDBD"/>
<rect x="103.546" y="167.048" width="5.70722" height="5.70722" rx="0.317068" stroke="#7D889B" stroke-width="0.634136"/>
<path fill-rule="evenodd" clip-rule="evenodd" d="M111.361 166.206C111.513 166.355 111.515 166.598 111.366 166.75L106.832 171.362C106.76 171.435 106.661 171.477 106.558 171.477C106.455 171.477 106.356 171.436 106.284 171.362L104.924 169.98C104.775 169.828 104.777 169.585 104.929 169.436C105.08 169.287 105.323 169.289 105.472 169.441L106.558 170.544L110.818 166.211C110.966 166.059 111.21 166.057 111.361 166.206Z" fill="#57B376" stroke="white" stroke-width="0.221987" stroke-linecap="round" stroke-linejoin="round"/>
<g filter="url(#filter2_d_2040_661)">
<ellipse cx="154.051" cy="167.56" rx="15.8534" ry="15.6949" fill="white"/>
</g>
<path d="M154.057 176.629L152.65 175.349C147.656 170.82 144.359 167.823 144.359 164.168C144.359 161.171 146.706 158.834 149.693 158.834C151.38 158.834 153 159.619 154.057 160.851C155.114 159.619 156.733 158.834 158.42 158.834C161.407 158.834 163.754 161.171 163.754 164.168C163.754 167.823 160.457 170.82 155.463 175.349L154.057 176.629Z" fill="#B51F1F"/>
<path d="M53.0899 177.518C49.2394 173.175 45.7314 168.598 42.6619 163.843C39.5788 159.088 36.9341 154.155 34.7964 149.126C32.6588 144.097 31.0144 138.944 29.9593 133.737C28.9041 128.544 28.4382 123.296 28.6301 118.061C28.8219 112.827 29.6715 107.606 31.2748 102.467C32.8643 97.3284 35.2075 92.2583 38.3592 87.3252C41.5109 82.3922 45.5533 77.8153 50.2945 73.6085C55.0358 69.4017 60.4622 65.5923 66.3956 62.2076C72.329 58.823 78.7557 55.8494 85.4975 53.3555C92.2394 50.8615 99.2828 48.8198 106.436 47.2851C113.589 45.7503 120.838 44.7363 128.018 44.2567C135.198 43.7771 142.296 43.8456 149.121 44.5033C155.945 45.1611 162.481 46.3944 168.551 48.258C174.622 50.1216 180.213 52.6155 185.146 55.7672C190.079 58.9189 194.341 62.8243 197.999 67.3051C201.658 71.786 204.686 76.8698 207.125 82.3647C209.565 87.8597 211.442 93.7931 212.771 99.9868C214.1 106.181 214.881 112.648 215.155 119.226C215.429 125.803 215.196 132.49 214.498 139.136C213.799 145.782 212.634 152.373 211.044 158.759" stroke="#B51F1F" stroke-width="4.57761" stroke-miterlimit="10" stroke-linecap="round" stroke-linejoin="round"/>
<path d="M202.003 177.519C199.91 182.986 197.252 187.814 194.123 192.053C190.993 196.292 187.394 199.942 183.401 203.044C179.408 206.146 175.036 208.696 170.377 210.731C165.704 212.77 160.743 214.294 155.559 215.346C150.376 216.399 144.996 216.974 139.474 217.13C133.953 217.287 128.323 216.99 122.657 216.309C116.991 215.628 111.272 214.552 105.62 213.126C99.969 211.701 94.356 209.917 88.9025 207.822" stroke="#B51F1F" stroke-width="4.57761" stroke-miterlimit="10" stroke-linecap="round" stroke-linejoin="round"/>
<circle cx="12.55" cy="12.55" r="12.55" transform="matrix(0.92284 -0.385183 -0.385183 -0.92284 10.4785 211.611)" fill="#BDBDBD"/>
<circle cx="3.13749" cy="3.13749" r="3.13749" transform="matrix(0.92284 -0.385183 -0.385183 -0.92284 30.2793 226.467)" fill="#BDBDBD"/>
<path d="M60.5458 215.914L55.421 218.053L53.7242 213.988L50.3366 215.402L52.0333 219.467L46.8911 221.613L48.2906 224.966L53.4328 222.82L55.1368 226.902L58.5244 225.488L56.8204 221.406L61.9453 219.267L60.5458 215.914Z" fill="#BDBDBD"/>
<circle cx="12.55" cy="12.55" r="12.55" transform="matrix(-0.92284 0.385183 0.385183 0.92284 233.541 42.584)" fill="#BDBDBD"/>
<circle cx="3.13749" cy="3.13749" r="3.13749" transform="matrix(-0.92284 0.385183 0.385183 0.92284 213.74 27.7285)" fill="#BDBDBD"/>
<path d="M183.474 38.2814L188.599 36.1423L190.296 40.2075L193.683 38.7935L191.986 34.7284L197.129 32.582L195.729 29.2292L190.587 31.3755L188.883 27.293L185.495 28.7069L187.199 32.7894L182.075 34.9285L183.474 38.2814Z" fill="#BDBDBD"/>
<defs>
<filter id="filter0_dd_2040_661" x="21.2012" y="26.0312" width="208.127" height="197.646" filterUnits="userSpaceOnUse" color-interpolation-filters="sRGB">
<feFlood flood-opacity="0" result="BackgroundImageFix"/>
<feColorMatrix in="SourceAlpha" type="matrix" values="0 0 0 0 0 0 0 0 0 0 0 0 0 0 0 0 0 0 127 0" result="hardAlpha"/>
<feOffset dy="-2"/>
<feGaussianBlur stdDeviation="2"/>
<feColorMatrix type="matrix" values="0 0 0 0 0 0 0 0 0 0 0 0 0 0 0 0 0 0 0.08 0"/>
<feBlend mode="normal" in2="BackgroundImageFix" result="effect1_dropShadow_2040_661"/>
<feColorMatrix in="SourceAlpha" type="matrix" values="0 0 0 0 0 0 0 0 0 0 0 0 0 0 0 0 0 0 127 0" result="hardAlpha"/>
<feOffset/>
<feGaussianBlur stdDeviation="3"/>
<feColorMatrix type="matrix" values="0 0 0 0 0 0 0 0 0 0 0 0 0 0 0 0 0 0 0.02 0"/>
<feBlend mode="normal" in2="effect1_dropShadow_2040_661" result="effect2_dropShadow_2040_661"/>
<feBlend mode="normal" in="SourceGraphic" in2="effect2_dropShadow_2040_661" result="shape"/>
</filter>
<filter id="filter1_d_2040_661" x="26.2012" y="31.0312" width="204.127" height="193.646" filterUnits="userSpaceOnUse" color-interpolation-filters="sRGB">
<feFlood flood-opacity="0" result="BackgroundImageFix"/>
<feColorMatrix in="SourceAlpha" type="matrix" values="0 0 0 0 0 0 0 0 0 0 0 0 0 0 0 0 0 0 127 0" result="hardAlpha"/>
<feOffset dx="3" dy="3"/>
<feGaussianBlur stdDeviation="2"/>
<feComposite in2="hardAlpha" operator="out"/>
<feColorMatrix type="matrix" values="0 0 0 0 0 0 0 0 0 0 0 0 0 0 0 0 0 0 0.2 0"/>
<feBlend mode="normal" in2="BackgroundImageFix" result="effect1_dropShadow_2040_661"/>
<feBlend mode="normal" in="SourceGraphic" in2="effect1_dropShadow_2040_661" result="shape"/>
</filter>
<filter id="filter2_d_2040_661" x="134.197" y="151.865" width="39.7068" height="39.3906" filterUnits="userSpaceOnUse" color-interpolation-filters="sRGB">
<feFlood flood-opacity="0" result="BackgroundImageFix"/>
<feColorMatrix in="SourceAlpha" type="matrix" values="0 0 0 0 0 0 0 0 0 0 0 0 0 0 0 0 0 0 127 0" result="hardAlpha"/>
<feOffset dy="4"/>
<feGaussianBlur stdDeviation="2"/>
<feComposite in2="hardAlpha" operator="out"/>
<feColorMatrix type="matrix" values="0 0 0 0 0 0 0 0 0 0 0 0 0 0 0 0 0 0 0.25 0"/>
<feBlend mode="normal" in2="BackgroundImageFix" result="effect1_dropShadow_2040_661"/>
<feBlend mode="normal" in="SourceGraphic" in2="effect1_dropShadow_2040_661" result="shape"/>
</filter>
<clipPath id="clip0_2040_661">
<rect width="40.8573" height="11.7315" fill="white" transform="translate(108.299 68.1191)"/>
</clipPath>
</defs>
</svg>
