<svg width="222" height="228" viewBox="0 0 222 228" fill="none" xmlns="http://www.w3.org/2000/svg">
<g filter="url(#filter0_d_2031_294)">
<path d="M125.19 193.115C81.2306 199.765 31.5969 182.301 24.947 138.341C18.2971 94.3813 66.1219 30.5888 110.082 23.9389C154.041 17.289 197.741 71.087 204.391 115.047C211.041 159.007 169.163 186.478 125.19 193.115Z" fill="#F7F9FD"/>
<path d="M125.054 192.212L125.054 192.212C103.225 195.514 80.0175 192.821 61.4742 183.884C42.9506 174.956 29.1209 159.825 25.8503 138.204C22.5773 116.567 32.7182 89.8753 49.2679 67.6951C65.8168 45.516 88.5742 28.1164 110.218 24.8422C131.778 21.5808 153.413 33.1347 170.566 51.1443C187.705 69.1402 200.194 93.4126 203.488 115.183C206.757 136.8 198.118 154.362 183.174 167.388C168.203 180.438 146.917 188.912 125.054 192.212Z" stroke="#F7F9FD" stroke-width="1.82718"/>
</g>
<path d="M48.184 157.476C44.6351 153.472 41.4019 149.254 38.5728 144.871C35.7311 140.488 33.2936 135.942 31.3233 131.307C29.3531 126.672 27.8375 121.923 26.865 117.123C25.8925 112.337 25.4631 107.5 25.64 102.675C25.8168 97.8505 26.5998 93.0385 28.0775 88.3024C29.5425 83.5662 31.7022 78.8932 34.6071 74.3465C37.5119 69.7998 41.2377 65.5815 45.6076 61.7042C49.9775 57.8268 54.9788 54.3158 60.4475 51.1962C65.9162 48.0767 71.8396 45.336 78.0534 43.0374C84.2672 40.7388 90.7589 38.857 97.3516 37.4424C103.944 36.0279 110.625 35.0933 117.243 34.6513C123.861 34.2092 130.404 34.2724 136.693 34.8786C142.983 35.4848 149.007 36.6215 154.602 38.3391C160.197 40.0568 165.35 42.3554 169.897 45.2602C174.444 48.1651 178.371 51.7646 181.744 55.8945C185.116 60.0244 187.907 64.71 190.155 69.7746C192.403 74.8391 194.133 80.3078 195.358 86.0164C196.584 91.7251 197.303 97.6863 197.556 103.749C197.809 109.811 197.594 115.974 196.95 122.1C196.306 128.225 195.232 134.3 193.767 140.185" stroke="#B51F1F" stroke-width="4.21908" stroke-miterlimit="10" stroke-linecap="round" stroke-linejoin="round"/>
<path d="M185.436 157.47C183.506 162.509 181.056 166.958 178.172 170.865C175.288 174.772 171.97 178.137 168.29 180.996C164.61 183.854 160.581 186.205 156.286 188.081C151.979 189.96 147.407 191.365 142.63 192.335C137.852 193.305 132.894 193.835 127.804 193.979C122.715 194.123 117.527 193.849 112.304 193.222C107.082 192.594 101.811 191.602 96.6019 190.288C91.3931 188.974 86.2197 187.331 81.1933 185.399" stroke="#B51F1F" stroke-width="4.21908" stroke-miterlimit="10" stroke-linecap="round" stroke-linejoin="round"/>
<circle cx="11.567" cy="11.567" r="11.567" transform="matrix(0.92284 -0.385183 -0.385183 -0.92284 8.9126 188.892)" fill="#BDBDBD"/>
<circle cx="2.89175" cy="2.89175" r="2.89175" transform="matrix(0.92284 -0.385183 -0.385183 -0.92284 27.1604 202.584)" fill="#BDBDBD"/>
<path d="M54.9243 192.534L50.2008 194.506L48.637 190.759L45.5147 192.062L47.0786 195.809L42.3391 197.787L43.6289 200.877L48.3684 198.899L49.9389 202.662L53.0612 201.359L51.4907 197.596L56.2142 195.624L54.9243 192.534Z" fill="#BDBDBD"/>
<circle cx="11.567" cy="11.567" r="11.567" transform="matrix(-0.92284 0.385183 0.385183 0.92284 212.314 38.7617)" fill="#BDBDBD"/>
<circle cx="2.89175" cy="2.89175" r="2.89175" transform="matrix(-0.92284 0.385183 0.385183 0.92284 194.065 25.0703)" fill="#BDBDBD"/>
<path d="M166.301 35.1222L171.024 33.1507L172.588 36.8974L175.711 35.5942L174.147 31.8475L178.886 29.8693L177.596 26.779L172.857 28.7572L171.286 24.9944L168.164 26.2977L169.735 30.0604L165.011 32.0319L166.301 35.1222Z" fill="#BDBDBD"/>
<path d="M108.358 145.772C109.433 145.772 110.354 145.403 111.094 144.664M108.358 145.772V145.359L108.359 145.772C108.358 145.772 108.358 145.772 108.358 145.772ZM108.358 145.772C107.285 145.774 106.364 145.406 105.625 144.667C104.886 143.928 104.517 143.006 104.517 141.931H104.93L111.094 144.664M111.094 144.664C111.833 143.924 112.201 143.004 112.198 141.931L111.094 144.664ZM84.7755 147.073V147.073V85.3714C84.7755 83.5965 85.4032 82.0866 86.6702 80.8196C87.9372 79.5526 89.4457 78.9262 91.218 78.9283H91.2185H125.497C127.272 78.9283 128.782 79.556 130.049 80.823C131.316 82.09 131.942 83.5986 131.94 85.3708V85.3714V147.073C131.94 148.848 131.312 150.358 130.045 151.625C128.778 152.892 127.27 153.518 125.498 153.516H125.497H91.2185C89.4436 153.516 87.9338 152.888 86.6668 151.621C85.3998 150.354 84.7734 148.846 84.7755 147.073ZM90.8058 129.934V130.346H91.2185H125.497H125.91V129.934V95.6549V95.2422H125.497H91.2185H90.8058V95.6549V129.934ZM111.09 139.195C110.351 138.456 109.431 138.088 108.358 138.09L112.198 141.93C112.198 140.855 111.829 139.934 111.09 139.195Z" fill="white" stroke="#7D889B" stroke-width="0.825427"/>
<g filter="url(#filter1_d_2031_294)">
<rect x="111.192" y="68.3457" width="51.8068" height="31.4114" rx="3.30171" fill="#B51F1F"/>
</g>
<path d="M119.185 108.93C120.026 104.931 121.776 102.564 117.248 98.6969H126.594C125.686 104.6 123.834 107.812 119.185 108.93Z" fill="#B51F1F"/>
<path d="M120.012 86.0986L121.685 79.3841H123.917L125.581 86.0986H124.135L122.798 80.2433H122.808L121.457 86.0986H120.012ZM121.212 84.5439V83.4437H124.394V84.5439H121.212ZM127.844 78.9931V86.0986H126.453V78.9931H127.844ZM128.969 86.0986V81.2707H130.383V82.9346L130.092 82.7527C130.125 82.5254 130.186 82.3163 130.274 82.1254C130.361 81.9344 130.475 81.7693 130.615 81.6299C130.754 81.4874 130.919 81.3768 131.11 81.298C131.304 81.2192 131.525 81.1798 131.774 81.1798C131.968 81.1798 132.119 81.195 132.228 81.2253C132.34 81.2525 132.41 81.2737 132.437 81.2889L132.206 82.5527C132.178 82.5376 132.118 82.5133 132.024 82.48C131.93 82.4466 131.809 82.43 131.66 82.43C131.418 82.43 131.215 82.4709 131.051 82.5527C130.887 82.6345 130.755 82.7436 130.655 82.88C130.558 83.0134 130.489 83.1619 130.446 83.3255C130.404 83.4892 130.383 83.6544 130.383 83.8211V86.0986H128.969ZM133.603 84.1075V83.1755H136.803L136.667 83.4119C136.667 83.3877 136.667 83.3649 136.667 83.3437C136.667 83.3195 136.667 83.2967 136.667 83.2755C136.667 83.1028 136.626 82.9376 136.544 82.78C136.463 82.6194 136.335 82.4891 136.162 82.389C135.993 82.286 135.775 82.2345 135.508 82.2345C135.241 82.2345 135.011 82.2921 134.817 82.4072C134.626 82.5194 134.479 82.6815 134.376 82.8937C134.276 83.1058 134.226 83.3619 134.226 83.6619C134.226 83.9711 134.274 84.2363 134.371 84.4575C134.471 84.6757 134.618 84.8439 134.812 84.9621C135.009 85.0803 135.253 85.1394 135.544 85.1394C135.732 85.1394 135.894 85.1227 136.031 85.0894C136.167 85.053 136.278 85.0076 136.363 84.953C136.45 84.8985 136.517 84.8379 136.563 84.7712C136.608 84.7045 136.635 84.6393 136.644 84.5757H138.035C138.017 84.7788 137.948 84.9788 137.826 85.1758C137.705 85.3697 137.537 85.5455 137.322 85.7031C137.107 85.8577 136.844 85.9804 136.535 86.0714C136.229 86.1623 135.879 86.2077 135.485 86.2077C134.952 86.2077 134.486 86.1017 134.089 85.8895C133.692 85.6743 133.385 85.3788 133.167 85.003C132.948 84.6242 132.839 84.1878 132.839 83.6938C132.839 83.1937 132.95 82.7558 133.171 82.38C133.395 82.0011 133.706 81.7071 134.103 81.498C134.503 81.2859 134.965 81.1798 135.49 81.1798C136.026 81.1798 136.49 81.2874 136.881 81.5026C137.272 81.7147 137.573 82.0132 137.785 82.3981C137.998 82.78 138.104 83.2255 138.104 83.7347C138.104 83.8105 138.102 83.8832 138.099 83.9529C138.096 84.0226 138.092 84.0741 138.085 84.1075H133.603ZM140.621 86.1986C140.269 86.1986 139.956 86.1426 139.68 86.0304C139.407 85.9183 139.193 85.7562 139.039 85.544C138.884 85.3319 138.807 85.0743 138.807 84.7712C138.807 84.4287 138.901 84.1499 139.089 83.9347C139.277 83.7195 139.525 83.5559 139.834 83.4437C140.147 83.3286 140.485 83.2528 140.848 83.2164C141.379 83.1649 141.744 83.1179 141.944 83.0755C142.147 83.0331 142.248 82.9588 142.248 82.8527C142.248 82.8497 142.248 82.8467 142.248 82.8437C142.248 82.6648 142.162 82.5239 141.989 82.4209C141.82 82.3178 141.582 82.2663 141.276 82.2663C140.951 82.2663 140.703 82.3254 140.53 82.4436C140.36 82.5588 140.275 82.7361 140.275 82.9755H138.889C138.889 82.5876 138.993 82.2602 139.203 81.9935C139.415 81.7268 139.701 81.5253 140.062 81.3889C140.422 81.2495 140.83 81.1798 141.285 81.1798C141.709 81.1798 142.101 81.245 142.462 81.3753C142.823 81.5026 143.112 81.695 143.33 81.9526C143.552 82.2102 143.662 82.5376 143.662 82.9346C143.662 82.9982 143.662 83.0619 143.662 83.1255C143.662 83.1861 143.662 83.2483 143.662 83.3119V85.0212C143.662 85.1455 143.665 85.2652 143.671 85.3804C143.68 85.4925 143.699 85.5955 143.726 85.6895C143.756 85.7956 143.794 85.8835 143.84 85.9532C143.885 86.0229 143.923 86.0714 143.953 86.0986H142.567C142.545 86.0774 142.512 86.0335 142.467 85.9668C142.424 85.9001 142.388 85.8228 142.358 85.7349C142.321 85.6289 142.294 85.5228 142.276 85.4167C142.261 85.3076 142.253 85.1803 142.253 85.0349L142.544 85.2349C142.459 85.4349 142.321 85.6077 142.13 85.7531C141.942 85.8956 141.718 86.0062 141.457 86.085C141.2 86.1608 140.921 86.1986 140.621 86.1986ZM140.998 85.144C141.22 85.144 141.426 85.1046 141.617 85.0258C141.811 84.9439 141.968 84.8166 142.089 84.6439C142.211 84.4711 142.271 84.2454 142.271 83.9665V83.4801L142.621 83.8211C142.421 83.8938 142.189 83.9544 141.926 84.0029C141.665 84.0484 141.404 84.0847 141.144 84.112C140.835 84.1423 140.603 84.1953 140.448 84.2711C140.297 84.3439 140.221 84.4681 140.221 84.6439C140.221 84.8106 140.286 84.9364 140.416 85.0212C140.547 85.103 140.741 85.144 140.998 85.144ZM146.712 86.2077C146.309 86.2077 145.938 86.1123 145.598 85.9213C145.259 85.7274 144.986 85.441 144.78 85.0621C144.574 84.6833 144.471 84.2166 144.471 83.6619C144.471 83.1316 144.575 82.6815 144.784 82.3118C144.997 81.942 145.272 81.6617 145.612 81.4707C145.954 81.2768 146.321 81.1798 146.712 81.1798C147.094 81.1798 147.442 81.2768 147.758 81.4707C148.076 81.6647 148.33 81.9299 148.521 82.2663C148.712 82.5997 148.808 82.9846 148.808 83.421C148.808 83.4362 148.808 83.4513 148.808 83.4665C148.808 83.4786 148.808 83.4922 148.808 83.5074L148.199 83.5165C148.199 83.5074 148.199 83.4983 148.199 83.4892C148.199 83.4771 148.199 83.4665 148.199 83.4574C148.199 83.2301 148.144 83.0346 148.035 82.8709C147.926 82.7073 147.785 82.5815 147.612 82.4936C147.439 82.4027 147.259 82.3572 147.071 82.3572C146.759 82.3572 146.489 82.4618 146.262 82.6709C146.035 82.877 145.921 83.2073 145.921 83.6619C145.921 84.1166 146.035 84.4514 146.262 84.6666C146.492 84.8788 146.762 84.9848 147.071 84.9848C147.265 84.9848 147.448 84.9394 147.621 84.8485C147.794 84.7545 147.933 84.6227 148.039 84.453C148.146 84.2832 148.199 84.0832 148.199 83.8529L148.808 83.8847C148.808 84.3181 148.714 84.7106 148.526 85.0621C148.341 85.4107 148.089 85.6895 147.771 85.8986C147.456 86.1047 147.103 86.2077 146.712 86.2077ZM148.199 86.0986V78.9931H149.612V86.0986H148.199ZM151.087 88.1853C150.935 88.1853 150.799 88.1792 150.678 88.1671C150.56 88.158 150.485 88.1474 150.455 88.1353V87.0669C150.494 87.0851 150.563 87.0988 150.66 87.1079C150.76 87.12 150.866 87.126 150.978 87.126C151.126 87.126 151.26 87.0957 151.378 87.0351C151.499 86.9775 151.602 86.8942 151.687 86.7851C151.775 86.679 151.843 86.5532 151.892 86.4078L151.973 86.1623L150.31 81.2707H151.778L152.828 85.2303H152.664L153.674 81.2707H155.124L153.465 86.3396C153.34 86.7214 153.187 87.0503 153.005 87.3261C152.824 87.6019 152.581 87.814 152.278 87.9625C151.975 88.111 151.578 88.1853 151.087 88.1853Z" fill="white"/>
<defs>
<filter id="filter0_d_2031_294" x="22.497" y="21.5507" width="195.383" height="185.724" filterUnits="userSpaceOnUse" color-interpolation-filters="sRGB">
<feFlood flood-opacity="0" result="BackgroundImageFix"/>
<feColorMatrix in="SourceAlpha" type="matrix" values="0 0 0 0 0 0 0 0 0 0 0 0 0 0 0 0 0 0 127 0" result="hardAlpha"/>
<feOffset dx="5.48155" dy="5.48155"/>
<feGaussianBlur stdDeviation="3.65437"/>
<feComposite in2="hardAlpha" operator="out"/>
<feColorMatrix type="matrix" values="0 0 0 0 0 0 0 0 0 0 0 0 0 0 0 0 0 0 0.2 0"/>
<feBlend mode="normal" in2="BackgroundImageFix" result="effect1_dropShadow_2031_294"/>
<feBlend mode="normal" in="SourceGraphic" in2="effect1_dropShadow_2031_294" result="shape"/>
</filter>
<filter id="filter1_d_2031_294" x="107.89" y="68.3457" width="58.4103" height="38.0145" filterUnits="userSpaceOnUse" color-interpolation-filters="sRGB">
<feFlood flood-opacity="0" result="BackgroundImageFix"/>
<feColorMatrix in="SourceAlpha" type="matrix" values="0 0 0 0 0 0 0 0 0 0 0 0 0 0 0 0 0 0 127 0" result="hardAlpha"/>
<feOffset dy="3.30171"/>
<feGaussianBlur stdDeviation="1.65085"/>
<feComposite in2="hardAlpha" operator="out"/>
<feColorMatrix type="matrix" values="0 0 0 0 0 0 0 0 0 0 0 0 0 0 0 0 0 0 0.25 0"/>
<feBlend mode="normal" in2="BackgroundImageFix" result="effect1_dropShadow_2031_294"/>
<feBlend mode="normal" in="SourceGraphic" in2="effect1_dropShadow_2031_294" result="shape"/>
</filter>
</defs>
</svg>
