<svg width="226" height="231" viewBox="0 0 226 231" fill="none" xmlns="http://www.w3.org/2000/svg">
<g filter="url(#filter0_d_2034_313)">
<path d="M127.813 196.122C83.142 202.879 32.7053 185.133 25.9478 140.462C19.1903 95.7907 67.7888 30.9662 112.46 24.2087C157.131 17.4512 201.537 72.1196 208.295 116.791C215.052 161.462 172.497 189.378 127.813 196.122Z" fill="#F7F9FD"/>
<path d="M127.674 195.204L127.674 195.204C105.493 198.559 81.9093 195.823 63.0659 186.741C44.2427 177.669 30.1892 162.293 26.8657 140.323C23.5397 118.336 33.8448 91.2119 50.6622 68.6729C67.4789 46.1349 90.6044 28.4538 112.599 25.1266C134.507 21.8125 156.493 33.5533 173.923 51.8542C191.339 70.1413 204.03 94.8064 207.377 116.929C210.7 138.895 201.921 156.742 186.735 169.979C171.521 183.24 149.891 191.851 127.674 195.204Z" stroke="#F7F9FD" stroke-width="1.85674"/>
</g>
<rect x="59.6273" y="108.093" width="98.5081" height="26.7669" rx="13.3834" fill="white" stroke="#D4D8DD" stroke-width="0.357066"/>
<path d="M77.6576 121.659L79.8877 124.096L77.8647 125.434L75.7461 122.503L73.6434 125.434L71.6204 124.096L73.8505 121.659L70.5691 120.591L71.6204 118.616L74.6151 119.811L74.4877 116.88H77.0204L76.893 119.811L79.8877 118.616L80.939 120.591L77.6576 121.659ZM92.1246 121.659L94.3546 124.096L92.3316 125.434L90.2131 122.503L88.1104 125.434L86.0874 124.096L88.3175 121.659L85.0361 120.591L86.0874 118.616L89.0821 119.811L88.9546 116.88H91.4874L91.36 119.811L94.3546 118.616L95.406 120.591L92.1246 121.659ZM106.592 121.659L108.822 124.096L106.799 125.434L104.68 122.503L102.577 125.434L100.554 124.096L102.784 121.659L99.503 120.591L100.554 118.616L103.549 119.811L103.422 116.88H105.954L105.827 119.811L108.822 118.616L109.873 120.591L106.592 121.659ZM121.058 121.659L123.289 124.096L121.266 125.434L119.147 122.503L117.044 125.434L115.021 124.096L117.251 121.659L113.97 120.591L115.021 118.616L118.016 119.811L117.889 116.88H120.421L120.294 119.811L123.289 118.616L124.34 120.591L121.058 121.659Z" fill="#B01E1E"/>
<path d="M135.846 104.225V92.5447C135.846 86.3219 140.435 81.2529 146.061 81.2529H154.32C159.959 81.2529 164.535 86.3219 164.535 92.5447V104.225C164.535 110.448 159.946 115.517 154.32 115.517H146.061C140.435 115.517 135.846 110.448 135.846 104.225ZM146.061 86.5682C143.08 86.5682 140.655 89.2518 140.655 92.5317V104.212C140.655 107.505 143.08 110.176 146.061 110.176H154.32C157.301 110.176 159.726 107.492 159.726 104.212V92.5447C159.726 89.2518 157.301 86.5812 154.32 86.5812H146.061V86.5682Z" fill="#B51F1F"/>
<path d="M154.321 115.841H146.063C140.255 115.841 135.523 110.63 135.523 104.225V92.5446C135.523 86.1403 140.255 80.9287 146.063 80.9287H154.321C160.129 80.9287 164.861 86.1403 164.861 92.5446V104.225C164.861 110.63 160.142 115.841 154.321 115.841ZM146.063 81.5769C140.605 81.5769 136.172 86.4903 136.172 92.5446V104.225C136.172 110.267 140.605 115.193 146.063 115.193H154.321C159.779 115.193 164.213 110.28 164.213 104.225V92.5446C164.213 86.5033 159.779 81.5769 154.321 81.5769H146.063ZM154.321 110.513H146.063C142.9 110.513 140.333 107.687 140.333 104.225V92.5446C140.333 89.0702 142.9 86.257 146.063 86.257H154.321C157.485 86.257 160.052 89.0832 160.052 92.5446V104.225C160.052 107.7 157.485 110.513 154.321 110.513ZM146.063 86.8922C143.263 86.8922 140.994 89.4332 140.994 92.5446V104.225C140.994 107.337 143.276 109.865 146.076 109.865H154.334C157.135 109.865 159.416 107.337 159.416 104.225V92.5446C159.416 89.4332 157.135 86.9052 154.334 86.9052H146.063V86.8922Z" fill="#909AB0"/>
<path d="M134.183 134.899H166.192C168.875 134.899 171.053 132.721 171.053 130.037V105.12C171.053 102.437 168.875 100.259 166.192 100.259H134.183C131.5 100.259 129.322 102.437 129.322 105.12V130.05C129.322 132.734 131.5 134.899 134.183 134.899Z" fill="#B51F1F"/>
<path d="M137.036 131.824H163.341C166.024 131.824 168.202 129.646 168.202 126.962V109.85C168.202 107.166 166.024 104.988 163.341 104.988H137.036C134.353 104.988 132.175 107.166 132.175 109.85V126.962C132.175 129.646 134.353 131.824 137.036 131.824Z" fill="white"/>
<path d="M145.316 114.572C145.316 111.875 147.494 109.697 150.19 109.697C152.887 109.697 155.065 111.875 155.065 114.572C155.065 116.763 153.6 118.604 151.604 119.213V125.514H148.777V119.213C146.781 118.617 145.316 116.776 145.316 114.572Z" fill="#B51F1F"/>
<path d="M49.5606 159.905C45.9543 155.836 42.6687 151.55 39.7939 147.096C36.9062 142.643 34.4293 138.023 32.4271 133.313C30.425 128.602 28.8849 123.777 27.8967 118.9C26.9085 114.036 26.4721 109.12 26.6518 104.218C26.8315 99.3151 27.6272 94.4253 29.1288 89.6125C30.6175 84.7998 32.8122 80.0512 35.764 75.4309C38.7158 70.8106 42.5019 66.524 46.9425 62.584C51.3831 58.6439 56.4654 55.076 62.0225 51.906C67.5797 48.736 73.5989 45.951 79.9132 43.6152C86.2276 41.2794 92.8243 39.3671 99.5237 37.9297C106.223 36.4923 113.012 35.5426 119.737 35.0934C126.462 34.6442 133.11 34.7084 139.502 35.3244C145.893 35.9404 152.015 37.0955 157.701 38.8409C163.386 40.5864 168.622 42.9222 173.243 45.874C177.863 48.8259 181.854 52.4836 185.281 56.6803C188.708 60.8771 191.544 65.6385 193.828 70.785C196.113 75.9314 197.871 81.4886 199.116 87.2896C200.361 93.0906 201.093 99.1483 201.349 105.309C201.606 111.469 201.388 117.732 200.733 123.957C200.079 130.181 198.988 136.354 197.499 142.335" stroke="#B51F1F" stroke-width="4.28734" stroke-miterlimit="10" stroke-linecap="round" stroke-linejoin="round"/>
<path d="M189.032 159.9C187.072 165.02 184.582 169.542 181.651 173.512C178.721 177.482 175.349 180.901 171.61 183.806C167.87 186.711 163.776 189.1 159.411 191.007C155.035 192.916 150.389 194.343 145.534 195.329C140.679 196.314 135.64 196.853 130.468 197C125.297 197.146 120.025 196.868 114.718 196.23C109.411 195.592 104.054 194.585 98.7613 193.249C93.4683 191.914 88.2112 190.244 83.1035 188.281" stroke="#B51F1F" stroke-width="4.28734" stroke-miterlimit="10" stroke-linecap="round" stroke-linejoin="round"/>
<circle cx="11.7541" cy="11.7541" r="11.7541" transform="matrix(0.92284 -0.385183 -0.385183 -0.92284 9.65332 191.83)" fill="#BDBDBD"/>
<circle cx="2.93854" cy="2.93854" r="2.93854" transform="matrix(0.92284 -0.385183 -0.385183 -0.92284 28.1968 205.743)" fill="#BDBDBD"/>
<path d="M56.5835 195.948L51.7836 197.951L50.1945 194.144L47.0217 195.468L48.6108 199.275L43.7947 201.285L45.1054 204.426L49.9215 202.416L51.5175 206.239L54.6903 204.915L53.0943 201.091L57.8942 199.088L56.5835 195.948Z" fill="#BDBDBD"/>
<circle cx="11.7541" cy="11.7541" r="11.7541" transform="matrix(-0.92284 0.385183 0.385183 0.92284 216.345 39.2725)" fill="#BDBDBD"/>
<circle cx="2.93854" cy="2.93854" r="2.93854" transform="matrix(-0.92284 0.385183 0.385183 0.92284 197.801 25.3584)" fill="#BDBDBD"/>
<path d="M169.413 35.154L174.212 33.1506L175.802 36.958L178.974 35.6337L177.385 31.8263L182.201 29.8161L180.891 26.6758L176.075 28.686L174.479 24.8624L171.306 26.1867L172.902 30.0103L168.102 32.0137L169.413 35.154Z" fill="#BDBDBD"/>
<defs>
<filter id="filter0_d_2034_313" x="23.4582" y="21.7819" width="198.544" height="188.729" filterUnits="userSpaceOnUse" color-interpolation-filters="sRGB">
<feFlood flood-opacity="0" result="BackgroundImageFix"/>
<feColorMatrix in="SourceAlpha" type="matrix" values="0 0 0 0 0 0 0 0 0 0 0 0 0 0 0 0 0 0 127 0" result="hardAlpha"/>
<feOffset dx="5.57023" dy="5.57023"/>
<feGaussianBlur stdDeviation="3.71349"/>
<feComposite in2="hardAlpha" operator="out"/>
<feColorMatrix type="matrix" values="0 0 0 0 0 0 0 0 0 0 0 0 0 0 0 0 0 0 0.2 0"/>
<feBlend mode="normal" in2="BackgroundImageFix" result="effect1_dropShadow_2034_313"/>
<feBlend mode="normal" in="SourceGraphic" in2="effect1_dropShadow_2034_313" result="shape"/>
</filter>
</defs>
</svg>
