<svg width="244" height="254" viewBox="0 0 244 254" fill="none" xmlns="http://www.w3.org/2000/svg">
<g filter="url(#filter0_dd_2038_376)">
<path d="M136.695 216.009C89.0001 223.224 35.1486 204.276 27.9335 156.58C20.7185 108.885 72.6074 39.6713 120.303 32.4563C167.998 25.2413 215.411 83.611 222.626 131.306C229.841 179.002 184.405 208.808 136.695 216.009Z" fill="white"/>
</g>
<g filter="url(#filter1_d_2038_376)">
<path d="M136.695 216.009C89.0001 223.224 35.1486 204.276 27.9335 156.58C20.7185 108.885 72.6074 39.6713 120.303 32.4563C167.998 25.2413 215.411 83.611 222.626 131.306C229.841 179.002 184.405 208.808 136.695 216.009Z" fill="#F7F9FD"/>
<path d="M136.621 215.514L136.621 215.514C112.856 219.109 87.5734 216.182 67.3514 206.436C47.1403 196.694 32.0057 180.156 28.4279 156.505C24.8488 132.845 35.9337 103.753 53.9275 79.6371C71.9209 55.522 96.7137 36.5304 120.378 32.9507C143.995 29.378 167.62 42.039 186.283 61.6348C204.939 81.223 218.542 107.648 222.132 131.381C225.709 155.03 216.246 174.243 199.929 188.466C183.598 202.702 160.408 211.924 136.621 215.514Z" stroke="#F7F9FD"/>
</g>
<path d="M53.1466 177.335C49.296 172.991 45.7881 168.414 42.7186 163.659C39.6354 158.904 36.9907 153.971 34.8531 148.942C32.7154 143.913 31.071 138.761 30.0159 133.554C28.9608 128.36 28.4949 123.112 28.6867 117.877C28.8786 112.643 29.7281 107.422 31.3314 102.283C32.9209 97.1448 35.2642 92.0747 38.4158 87.1416C41.5675 82.2086 45.6099 77.6318 50.3512 73.4249C55.0924 69.2181 60.5188 65.4087 66.4522 62.024C72.3856 58.6394 78.8123 55.6658 85.5542 53.1719C92.2961 50.6779 99.3394 48.6362 106.492 47.1015C113.645 45.5667 120.894 44.5527 128.075 44.0731C135.255 43.5935 142.353 43.662 149.177 44.3198C156.001 44.9775 162.538 46.2108 168.608 48.0744C174.679 49.938 180.269 52.4319 185.202 55.5836C190.136 58.7353 194.397 62.6407 198.056 67.1216C201.715 71.6024 204.743 76.6862 207.182 82.1812C209.621 87.6761 211.498 93.6095 212.828 99.8032C214.157 105.997 214.938 112.465 215.212 119.042C215.486 125.62 215.253 132.307 214.554 138.953C213.855 145.599 212.691 152.19 211.101 158.575" stroke="#B51F1F" stroke-width="4.57761" stroke-miterlimit="10" stroke-linecap="round" stroke-linejoin="round"/>
<path d="M202.06 177.335C199.967 182.802 197.308 187.63 194.179 191.869C191.05 196.108 187.45 199.759 183.458 202.86C179.465 205.962 175.093 208.512 170.433 210.548C165.76 212.586 160.8 214.11 155.616 215.163C150.433 216.215 145.053 216.79 139.531 216.947C134.009 217.103 128.38 216.806 122.714 216.125C117.048 215.444 111.328 214.368 105.677 212.943C100.026 211.517 94.4126 209.734 88.9591 207.638" stroke="#B51F1F" stroke-width="4.57761" stroke-miterlimit="10" stroke-linecap="round" stroke-linejoin="round"/>
<circle cx="12.55" cy="12.55" r="12.55" transform="matrix(0.92284 -0.385183 -0.385183 -0.92284 10.5356 211.429)" fill="#BDBDBD"/>
<circle cx="3.13749" cy="3.13749" r="3.13749" transform="matrix(0.92284 -0.385183 -0.385183 -0.92284 30.3364 226.284)" fill="#BDBDBD"/>
<path d="M60.603 215.731L55.4781 217.87L53.7813 213.805L50.3937 215.219L52.0905 219.284L46.9482 221.431L48.3477 224.784L53.4899 222.637L55.1939 226.72L58.5815 225.306L56.8775 221.223L62.0024 219.084L60.603 215.731Z" fill="#BDBDBD"/>
<circle cx="12.55" cy="12.55" r="12.55" transform="matrix(-0.92284 0.385183 0.385183 0.92284 233.598 42.4004)" fill="#BDBDBD"/>
<circle cx="3.13749" cy="3.13749" r="3.13749" transform="matrix(-0.92284 0.385183 0.385183 0.92284 213.797 27.5449)" fill="#BDBDBD"/>
<path d="M183.53 38.0978L188.655 35.9587L190.352 40.0239L193.74 38.6099L192.043 34.5448L197.185 32.3984L195.786 29.0456L190.643 31.1919L188.939 27.1094L185.552 28.5233L187.256 32.6058L182.131 34.7449L183.53 38.0978Z" fill="#BDBDBD"/>
<rect x="92.4418" y="82.8597" width="61.5292" height="87.3979" rx="7.17839" fill="white" stroke="#D4D8DD" stroke-width="0.860123"/>
<path fill-rule="evenodd" clip-rule="evenodd" d="M104.187 106.082C107.164 106.082 109.578 103.669 109.578 100.691C109.578 97.7138 107.164 95.3001 104.187 95.3001C101.209 95.3001 98.7957 97.7138 98.7957 100.691C98.7957 103.669 101.209 106.082 104.187 106.082ZM104.187 106.778C107.548 106.778 110.274 104.053 110.274 100.691C110.274 97.3296 107.548 94.6045 104.187 94.6045C100.825 94.6045 98.1001 97.3296 98.1001 100.691C98.1001 104.053 100.825 106.778 104.187 106.778Z" fill="#BDBDBD"/>
<path fill-rule="evenodd" clip-rule="evenodd" d="M104.251 98.7777C103.803 98.7777 103.44 99.141 103.44 99.5892C103.44 100.037 103.803 100.401 104.251 100.401C104.7 100.401 105.063 100.037 105.063 99.5892C105.063 99.141 104.7 98.7777 104.251 98.7777ZM102.744 99.5892C102.744 98.7568 103.419 98.082 104.251 98.082C105.084 98.082 105.759 98.7568 105.759 99.5892C105.759 100.422 105.084 101.096 104.251 101.096C103.419 101.096 102.744 100.422 102.744 99.5892Z" fill="#BDBDBD"/>
<path fill-rule="evenodd" clip-rule="evenodd" d="M103.514 100.806L102.587 101.424C102.393 101.553 102.277 101.77 102.277 102.003V102.604H106.103V102.003C106.103 101.77 105.987 101.553 105.793 101.424L104.867 100.806L105.253 100.228L106.179 100.845C106.566 101.103 106.799 101.538 106.799 102.003V103.299H101.582V102.003C101.582 101.538 101.814 101.103 102.201 100.845L103.128 100.228L103.514 100.806Z" fill="#BDBDBD"/>
<rect x="113.322" y="97.6465" width="28.9121" height="1.52169" fill="#BDBDBD"/>
<rect x="113.322" y="100.69" width="15.2169" height="1.52169" fill="#BDBDBD"/>
<rect x="98.1001" y="118.951" width="28.9121" height="1.52169" fill="#BDBDBD"/>
<rect x="98.4805" y="122.376" width="49.4549" height="8.3693" stroke="#BDBDBD" stroke-width="0.760845"/>
<rect x="98.1001" y="134.168" width="28.9121" height="1.52169" fill="#BDBDBD"/>
<rect x="98.4805" y="137.592" width="49.4549" height="8.3693" stroke="#BDBDBD" stroke-width="0.760845"/>
<rect x="98.1001" y="149.386" width="50.2158" height="9.13014" fill="#7D889B"/>
<rect x="108.751" y="153.191" width="28.9121" height="1.52169" fill="#BDBDBD"/>
<g filter="url(#filter2_d_2038_376)">
<circle cx="144.731" cy="160.653" r="15" transform="rotate(35.2691 144.731 160.653)" fill="white"/>
</g>
<path fill-rule="evenodd" clip-rule="evenodd" d="M166.887 143.34C167.55 143.992 167.559 145.058 166.907 145.721L147.048 165.926C146.732 166.248 146.299 166.43 145.848 166.43C145.396 166.43 144.964 166.249 144.647 165.927L138.689 159.872C138.037 159.209 138.046 158.143 138.708 157.49C139.371 156.838 140.437 156.847 141.09 157.51L145.847 162.345L164.506 143.361C165.158 142.698 166.224 142.689 166.887 143.34Z" fill="#B51F1F"/>
<defs>
<filter id="filter0_dd_2038_376" x="21.2578" y="25.8477" width="208.127" height="197.646" filterUnits="userSpaceOnUse" color-interpolation-filters="sRGB">
<feFlood flood-opacity="0" result="BackgroundImageFix"/>
<feColorMatrix in="SourceAlpha" type="matrix" values="0 0 0 0 0 0 0 0 0 0 0 0 0 0 0 0 0 0 127 0" result="hardAlpha"/>
<feOffset dy="-2"/>
<feGaussianBlur stdDeviation="2"/>
<feColorMatrix type="matrix" values="0 0 0 0 0 0 0 0 0 0 0 0 0 0 0 0 0 0 0.08 0"/>
<feBlend mode="normal" in2="BackgroundImageFix" result="effect1_dropShadow_2038_376"/>
<feColorMatrix in="SourceAlpha" type="matrix" values="0 0 0 0 0 0 0 0 0 0 0 0 0 0 0 0 0 0 127 0" result="hardAlpha"/>
<feOffset/>
<feGaussianBlur stdDeviation="3"/>
<feColorMatrix type="matrix" values="0 0 0 0 0 0 0 0 0 0 0 0 0 0 0 0 0 0 0.02 0"/>
<feBlend mode="normal" in2="effect1_dropShadow_2038_376" result="effect2_dropShadow_2038_376"/>
<feBlend mode="normal" in="SourceGraphic" in2="effect2_dropShadow_2038_376" result="shape"/>
</filter>
<filter id="filter1_d_2038_376" x="26.2578" y="30.8477" width="204.127" height="193.646" filterUnits="userSpaceOnUse" color-interpolation-filters="sRGB">
<feFlood flood-opacity="0" result="BackgroundImageFix"/>
<feColorMatrix in="SourceAlpha" type="matrix" values="0 0 0 0 0 0 0 0 0 0 0 0 0 0 0 0 0 0 127 0" result="hardAlpha"/>
<feOffset dx="3" dy="3"/>
<feGaussianBlur stdDeviation="2"/>
<feComposite in2="hardAlpha" operator="out"/>
<feColorMatrix type="matrix" values="0 0 0 0 0 0 0 0 0 0 0 0 0 0 0 0 0 0 0.2 0"/>
<feBlend mode="normal" in2="BackgroundImageFix" result="effect1_dropShadow_2038_376"/>
<feBlend mode="normal" in="SourceGraphic" in2="effect1_dropShadow_2038_376" result="shape"/>
</filter>
<filter id="filter2_d_2038_376" x="125.73" y="145.652" width="38.0024" height="38.002" filterUnits="userSpaceOnUse" color-interpolation-filters="sRGB">
<feFlood flood-opacity="0" result="BackgroundImageFix"/>
<feColorMatrix in="SourceAlpha" type="matrix" values="0 0 0 0 0 0 0 0 0 0 0 0 0 0 0 0 0 0 127 0" result="hardAlpha"/>
<feOffset dy="4"/>
<feGaussianBlur stdDeviation="2"/>
<feComposite in2="hardAlpha" operator="out"/>
<feColorMatrix type="matrix" values="0 0 0 0 0 0 0 0 0 0 0 0 0 0 0 0 0 0 0.25 0"/>
<feBlend mode="normal" in2="BackgroundImageFix" result="effect1_dropShadow_2038_376"/>
<feBlend mode="normal" in="SourceGraphic" in2="effect1_dropShadow_2038_376" result="shape"/>
</filter>
</defs>
</svg>
