<svg width="243" height="253" viewBox="0 0 243 253" fill="none" xmlns="http://www.w3.org/2000/svg">
<g filter="url(#filter0_dd_2699_544)">
<path d="M135.836 215.776C88.228 222.977 34.475 204.064 27.2731 156.456C20.0713 108.847 71.8653 39.7605 119.473 32.5587C167.082 25.3569 214.408 83.6198 221.61 131.228C228.812 178.836 183.458 208.588 135.836 215.776Z" fill="white"/>
</g>
<g filter="url(#filter1_d_2699_544)">
<path d="M135.836 215.776C88.228 222.977 34.475 204.064 27.2731 156.456C20.0713 108.847 71.8653 39.7605 119.473 32.5587C167.082 25.3569 214.408 83.6198 221.61 131.228C228.812 178.836 183.458 208.588 135.836 215.776Z" fill="#F7F9FD"/>
<path d="M135.762 215.282L135.762 215.282C112.04 218.87 86.804 215.949 66.6189 206.22C46.4448 196.496 31.3378 179.989 27.7666 156.381C24.194 132.764 35.2586 103.725 53.2195 79.6532C71.1801 55.5822 95.9275 36.6253 119.548 33.0522C143.123 29.486 166.704 42.1239 185.333 61.6838C203.954 81.2363 217.533 107.613 221.116 131.303C224.687 154.908 215.241 174.086 198.954 188.283C182.653 202.493 159.505 211.698 135.762 215.282Z" stroke="#F7F9FD" stroke-width="0.998171"/>
</g>
<rect x="90.1461" y="75.733" width="68.4031" height="97.1619" rx="7.98035" fill="white" stroke="#D4D8DD" stroke-width="0.956214"/>
<rect x="113.358" y="92.1719" width="32.1421" height="1.69169" fill="#BDBDBD"/>
<rect x="113.358" y="95.5557" width="16.9169" height="1.69169" fill="#BDBDBD"/>
<g clip-path="url(#clip0_2699_544)">
<path fill-rule="evenodd" clip-rule="evenodd" d="M103.367 90.3969L98.6773 98.0172L99.4538 98.4951L98.6773 98.0172C98.1123 98.9352 98.7728 100.117 99.8507 100.117H109.229C110.307 100.117 110.968 98.9352 110.403 98.0172L105.714 90.3969L104.931 90.8783L105.714 90.3969C105.176 89.5226 103.905 89.5226 103.367 90.3969L104.119 90.8599L103.367 90.3969ZM104.931 90.8783L109.621 98.4986C109.809 98.8046 109.589 99.1986 109.229 99.1986H99.8507C99.4914 99.1986 99.2712 98.8046 99.4596 98.4986L104.149 90.8783C104.328 90.5869 104.752 90.5869 104.931 90.8783ZM105.001 93.2286C105.001 92.9749 104.796 92.7693 104.542 92.7693C104.288 92.7693 104.083 92.9749 104.083 93.2286V95.525C104.083 95.7786 104.288 95.9842 104.542 95.9842C104.796 95.9842 105.001 95.7786 105.001 95.525V93.2286ZM105.001 97.362C105.001 97.1084 104.796 96.9028 104.542 96.9028C104.288 96.9028 104.083 97.1084 104.083 97.362V97.5917C104.083 97.8453 104.288 98.051 104.542 98.051C104.796 98.051 105.001 97.8453 105.001 97.5917V97.362Z" fill="#BDBDBD"/>
</g>
<rect x="96.4355" y="115.856" width="32.1421" height="1.69169" fill="#BDBDBD"/>
<rect x="96.8585" y="119.664" width="54.98" height="9.3043" stroke="#BDBDBD" stroke-width="0.845846"/>
<rect x="96.4355" y="132.773" width="32.1421" height="1.69169" fill="#BDBDBD"/>
<rect x="96.8585" y="136.581" width="54.98" height="9.3043" stroke="#BDBDBD" stroke-width="0.845846"/>
<rect x="96.4355" y="149.692" width="55.8258" height="10.1501" fill="#7D889B"/>
<rect x="108.276" y="153.922" width="32.1421" height="1.69169" fill="#BDBDBD"/>
<circle cx="151.099" cy="163.759" r="19.4551" fill="#B51F1F"/>
<path d="M163.294 162.856C163.871 162.814 164.377 163.247 164.374 163.825C164.36 166.53 163.52 169.174 161.954 171.399C160.186 173.91 157.602 175.731 154.643 176.55C151.683 177.37 148.531 177.137 145.723 175.893C142.916 174.649 140.626 172.47 139.245 169.727C137.864 166.985 137.477 163.848 138.149 160.851C138.821 157.855 140.512 155.184 142.933 153.295C145.353 151.405 148.354 150.413 151.424 150.488C154.144 150.554 156.77 151.454 158.95 153.054C159.416 153.396 159.463 154.06 159.085 154.498V154.498C158.708 154.936 158.049 154.98 157.578 154.645C155.768 153.359 153.609 152.636 151.373 152.581C148.788 152.518 146.26 153.353 144.221 154.945C142.182 156.537 140.758 158.786 140.192 161.31C139.626 163.833 139.952 166.476 141.115 168.786C142.278 171.096 144.207 172.931 146.571 173.979C148.936 175.027 151.591 175.222 154.084 174.532C156.577 173.842 158.753 172.309 160.242 170.194C161.529 168.365 162.234 166.2 162.278 163.98C162.29 163.402 162.718 162.899 163.294 162.856V162.856Z" fill="white"/>
<path d="M163.353 156.348L153.073 157.175L157.497 147.859L163.353 156.348Z" fill="white"/>
<path d="M152.32 163.708C152.653 163.72 152.941 163.814 153.185 163.992C153.432 164.17 153.62 164.406 153.748 164.701C153.879 164.995 153.945 165.327 153.945 165.699C153.945 166.175 153.842 166.616 153.637 167.022C153.432 167.425 153.113 167.75 152.68 167.997C152.25 168.241 151.695 168.363 151.014 168.363C150.433 168.363 149.95 168.287 149.563 168.137C149.176 167.982 148.868 167.771 148.64 167.504C148.416 167.237 148.255 166.931 148.158 166.587C148.065 166.239 148.019 165.867 148.019 165.472C148.019 165.469 148.019 165.465 148.019 165.461C148.019 165.457 148.019 165.453 148.019 165.449H149.818C149.818 165.453 149.818 165.457 149.818 165.461C149.818 165.465 149.818 165.469 149.818 165.472C149.818 165.863 149.867 166.167 149.963 166.384C150.064 166.6 150.205 166.751 150.387 166.836C150.569 166.922 150.786 166.964 151.037 166.964C151.366 166.964 151.631 166.862 151.832 166.657C152.037 166.451 152.14 166.117 152.14 165.652C152.14 165.455 152.117 165.279 152.07 165.124C152.028 164.969 151.958 164.838 151.861 164.73C151.765 164.621 151.633 164.54 151.467 164.486C151.3 164.428 151.095 164.399 150.851 164.399H150.55V163.139H150.851C151.091 163.139 151.292 163.108 151.455 163.046C151.621 162.981 151.755 162.894 151.855 162.785C151.956 162.673 152.028 162.547 152.07 162.408C152.117 162.265 152.14 162.118 152.14 161.967C152.14 161.607 152.039 161.346 151.838 161.183C151.637 161.021 151.38 160.939 151.066 160.939C150.706 160.939 150.408 161.038 150.172 161.235C149.936 161.433 149.818 161.791 149.818 162.309H148.019C148.019 161.938 148.075 161.586 148.187 161.253C148.299 160.916 148.476 160.62 148.715 160.365C148.955 160.106 149.267 159.902 149.65 159.755C150.033 159.608 150.493 159.535 151.031 159.535C151.712 159.535 152.268 159.647 152.697 159.871C153.127 160.096 153.442 160.386 153.643 160.742C153.844 161.098 153.945 161.475 153.945 161.874C153.945 162.199 153.879 162.499 153.748 162.774C153.62 163.048 153.432 163.269 153.185 163.435C152.941 163.602 152.653 163.693 152.32 163.708Z" fill="white"/>
<path d="M52.4406 177.172C48.5971 172.836 45.0956 168.267 42.0317 163.521C38.9542 158.775 36.3143 153.851 34.1806 148.831C32.0468 143.811 30.4055 138.668 29.3523 133.471C28.2991 128.287 27.834 123.048 28.0255 117.823C28.217 112.598 29.065 107.387 30.6653 102.257C32.252 97.1283 34.5909 92.0674 37.7368 87.1434C40.8828 82.2193 44.9178 77.6509 49.6503 73.4517C54.3829 69.2526 59.7994 65.4501 65.7219 62.0717C71.6445 58.6932 78.0594 55.7251 84.789 53.2357C91.5185 50.7464 98.549 48.7083 105.689 47.1764C112.829 45.6445 120.064 44.6323 127.232 44.1536C134.399 43.6749 141.484 43.7432 148.296 44.3998C155.107 45.0563 161.632 46.2873 167.691 48.1475C173.75 50.0077 179.331 52.4971 184.255 55.6431C189.179 58.789 193.433 62.6872 197.085 67.1599C200.737 71.6326 203.76 76.7071 206.194 82.192C208.629 87.6768 210.503 93.5994 211.83 99.7818C213.157 105.964 213.936 112.42 214.21 118.986C214.483 125.551 214.251 132.226 213.553 138.86C212.856 145.493 211.693 152.073 210.106 158.447" stroke="#B51F1F" stroke-width="4.56924" stroke-miterlimit="10" stroke-linecap="round" stroke-linejoin="round"/>
<path d="M201.081 177.172C198.992 182.629 196.338 187.448 193.215 191.68C190.091 195.911 186.498 199.555 182.513 202.651C178.527 205.747 174.163 208.292 169.512 210.324C164.848 212.359 159.896 213.88 154.722 214.931C149.548 215.981 144.178 216.555 138.666 216.711C133.155 216.868 127.536 216.571 121.88 215.891C116.224 215.211 110.515 214.138 104.874 212.715C99.2334 211.292 93.6306 209.512 88.187 207.42" stroke="#B51F1F" stroke-width="4.56924" stroke-miterlimit="10" stroke-linecap="round" stroke-linejoin="round"/>
<circle cx="12.527" cy="12.527" r="12.527" transform="matrix(0.92284 -0.385183 -0.385183 -0.92284 9.90625 211.205)" fill="#BDBDBD"/>
<circle cx="3.13175" cy="3.13175" r="3.13175" transform="matrix(0.92284 -0.385183 -0.385183 -0.92284 29.6699 226.033)" fill="#BDBDBD"/>
<path d="M59.8599 215.449L54.7444 217.584L53.0507 213.527L49.6693 214.938L51.3629 218.996L46.2301 221.138L47.627 224.485L52.7598 222.342L54.4607 226.417L57.8421 225.006L56.1413 220.931L61.2568 218.796L59.8599 215.449Z" fill="#BDBDBD"/>
<circle cx="12.527" cy="12.527" r="12.527" transform="matrix(-0.92284 0.385183 0.385183 0.92284 232.56 42.4824)" fill="#BDBDBD"/>
<circle cx="3.13175" cy="3.13175" r="3.13175" transform="matrix(-0.92284 0.385183 0.385183 0.92284 212.796 27.6543)" fill="#BDBDBD"/>
<path d="M182.606 38.2383L187.721 36.1032L189.415 40.1609L192.797 38.7495L191.103 34.6918L196.236 32.5494L194.839 29.2027L189.706 31.3451L188.005 27.27L184.624 28.6814L186.325 32.7564L181.209 34.8916L182.606 38.2383Z" fill="#BDBDBD"/>
<defs>
<filter id="filter0_dd_2699_544" x="20.6096" y="25.9621" width="207.747" height="197.286" filterUnits="userSpaceOnUse" color-interpolation-filters="sRGB">
<feFlood flood-opacity="0" result="BackgroundImageFix"/>
<feColorMatrix in="SourceAlpha" type="matrix" values="0 0 0 0 0 0 0 0 0 0 0 0 0 0 0 0 0 0 127 0" result="hardAlpha"/>
<feOffset dy="-1.99634"/>
<feGaussianBlur stdDeviation="1.99634"/>
<feColorMatrix type="matrix" values="0 0 0 0 0 0 0 0 0 0 0 0 0 0 0 0 0 0 0.08 0"/>
<feBlend mode="normal" in2="BackgroundImageFix" result="effect1_dropShadow_2699_544"/>
<feColorMatrix in="SourceAlpha" type="matrix" values="0 0 0 0 0 0 0 0 0 0 0 0 0 0 0 0 0 0 127 0" result="hardAlpha"/>
<feOffset/>
<feGaussianBlur stdDeviation="2.99451"/>
<feColorMatrix type="matrix" values="0 0 0 0 0 0 0 0 0 0 0 0 0 0 0 0 0 0 0.02 0"/>
<feBlend mode="normal" in2="effect1_dropShadow_2699_544" result="effect2_dropShadow_2699_544"/>
<feBlend mode="normal" in="SourceGraphic" in2="effect2_dropShadow_2699_544" result="shape"/>
</filter>
<filter id="filter1_d_2699_544" x="25.6005" y="30.953" width="203.754" height="193.293" filterUnits="userSpaceOnUse" color-interpolation-filters="sRGB">
<feFlood flood-opacity="0" result="BackgroundImageFix"/>
<feColorMatrix in="SourceAlpha" type="matrix" values="0 0 0 0 0 0 0 0 0 0 0 0 0 0 0 0 0 0 127 0" result="hardAlpha"/>
<feOffset dx="2.99451" dy="2.99451"/>
<feGaussianBlur stdDeviation="1.99634"/>
<feComposite in2="hardAlpha" operator="out"/>
<feColorMatrix type="matrix" values="0 0 0 0 0 0 0 0 0 0 0 0 0 0 0 0 0 0 0.2 0"/>
<feBlend mode="normal" in2="BackgroundImageFix" result="effect1_dropShadow_2699_544"/>
<feBlend mode="normal" in="SourceGraphic" in2="effect1_dropShadow_2699_544" result="shape"/>
</filter>
<clipPath id="clip0_2699_544">
<rect width="12.8597" height="12.8597" fill="white" transform="translate(98.1104 88.4043)"/>
</clipPath>
</defs>
</svg>
