<svg width="221" height="227" viewBox="0 0 221 227" fill="none" xmlns="http://www.w3.org/2000/svg">
<g filter="url(#filter0_d_2030_253)">
<path d="M125.082 192.05C81.3138 198.671 31.8961 181.283 25.2751 137.515C18.6541 93.7461 66.2708 30.2313 110.039 23.6103C153.808 16.9893 197.317 70.5532 203.938 114.322C210.559 158.09 168.864 185.442 125.082 192.05Z" fill="#F7F9FD"/>
<path d="M124.946 191.151L124.946 191.151C103.213 194.438 80.106 191.758 61.6433 182.859C43.2004 173.97 29.4308 158.905 26.1745 137.378C22.9157 115.836 33.0125 89.2597 49.4902 67.1761C65.9671 45.0934 88.6254 27.7696 110.175 24.5097C131.641 21.2625 153.182 32.766 170.26 50.6973C187.325 68.6149 199.76 92.7817 203.039 114.458C206.294 135.98 197.693 153.465 182.813 166.435C167.907 179.428 146.714 187.865 124.946 191.151Z" stroke="#F7F9FD" stroke-width="1.81923"/>
</g>
<circle cx="114.23" cy="105.498" r="40.0014" fill="white" stroke="#7D889B" stroke-width="1.63271"/>
<path fill-rule="evenodd" clip-rule="evenodd" d="M115.186 103.586C119.936 103.586 123.786 99.7352 123.786 94.9856C123.786 90.236 119.936 86.3857 115.186 86.3857C110.436 86.3857 106.586 90.236 106.586 94.9856C106.586 99.7352 110.436 103.586 115.186 103.586ZM115.186 107.408C122.047 107.408 127.608 101.846 127.608 94.9856C127.608 88.1251 122.047 82.5635 115.186 82.5635C108.325 82.5635 102.764 88.1251 102.764 94.9856C102.764 101.846 108.325 107.408 115.186 107.408Z" fill="#7D889B"/>
<path fill-rule="evenodd" clip-rule="evenodd" d="M95.1116 126.694C95.1117 126.693 95.1117 126.692 93.2085 126.519C91.3052 126.346 91.3053 126.345 91.3054 126.344L91.3056 126.342L91.3062 126.335L91.308 126.317L91.314 126.258C91.3192 126.209 91.3269 126.14 91.3374 126.053C91.3585 125.879 91.3913 125.632 91.4396 125.322C91.5362 124.702 91.6954 123.828 91.9484 122.784C92.4526 120.704 93.3394 117.908 94.8752 115.093C97.977 109.406 103.79 103.586 114.231 103.586C124.671 103.586 130.484 109.406 133.586 115.093C135.122 117.908 136.009 120.704 136.513 122.784C136.766 123.828 136.925 124.702 137.021 125.322C137.07 125.632 137.103 125.879 137.124 126.053C137.134 126.14 137.142 126.209 137.147 126.258L137.153 126.317L137.155 126.335L137.155 126.342L137.156 126.344C137.156 126.345 137.156 126.346 135.253 126.519C133.349 126.692 133.349 126.693 133.349 126.694L133.349 126.69L133.346 126.659C133.343 126.629 133.337 126.58 133.329 126.513C133.313 126.379 133.286 126.175 133.245 125.91C133.162 125.38 133.023 124.612 132.798 123.685C132.347 121.823 131.561 119.363 130.23 116.923C127.599 112.099 122.901 107.408 114.231 107.408C105.56 107.408 100.862 112.099 98.2307 116.923C96.8998 119.363 96.1144 121.823 95.663 123.685C95.4383 124.612 95.2988 125.38 95.2162 125.91C95.175 126.175 95.1481 126.379 95.1318 126.513C95.1237 126.58 95.1183 126.629 95.1151 126.659L95.1119 126.69L95.1116 126.694Z" fill="#7D889B"/>
<path d="M48.411 156.565C44.8774 152.579 41.6583 148.379 38.8415 144.015C36.0122 139.652 33.5853 135.125 31.6236 130.51C29.662 125.895 28.153 121.167 27.1847 116.388C26.2165 111.622 25.7889 106.806 25.965 102.003C26.141 97.1992 26.9207 92.4082 28.3919 87.6926C29.8506 82.9771 32.0009 78.3244 34.8931 73.7975C37.7853 69.2706 41.4948 65.0706 45.8457 61.2102C50.1966 57.3497 55.1762 53.8539 60.6211 50.748C66.0659 47.642 71.9635 44.9133 78.1503 42.6247C84.3371 40.336 90.8005 38.4624 97.3646 37.054C103.929 35.6457 110.581 34.7151 117.17 34.275C123.759 33.8349 130.273 33.8978 136.535 34.5013C142.797 35.1049 148.795 36.2367 154.366 37.9468C159.937 39.657 165.067 41.9456 169.594 44.8378C174.121 47.73 178.032 51.3138 181.389 55.4258C184.747 59.5377 187.526 64.203 189.764 69.2455C192.002 74.2879 193.725 79.7328 194.945 85.4166C196.165 91.1004 196.881 97.0357 197.133 103.072C197.384 109.107 197.171 115.244 196.529 121.343C195.888 127.442 194.819 133.49 193.36 139.35" stroke="#B51F1F" stroke-width="4.20072" stroke-miterlimit="10" stroke-linecap="round" stroke-linejoin="round"/>
<path d="M185.065 156.561C183.144 161.577 180.705 166.008 177.834 169.898C174.962 173.788 171.659 177.138 167.995 179.984C164.331 182.83 160.319 185.17 156.043 187.039C151.755 188.909 147.202 190.308 142.446 191.273C137.689 192.239 132.752 192.767 127.685 192.911C122.618 193.054 117.452 192.782 112.252 192.157C107.053 191.532 101.804 190.544 96.6181 189.236C91.4321 187.928 86.2811 186.292 81.2766 184.368" stroke="#B51F1F" stroke-width="4.20072" stroke-miterlimit="10" stroke-linecap="round" stroke-linejoin="round"/>
<circle cx="11.5167" cy="11.5167" r="11.5167" transform="matrix(0.92284 -0.385183 -0.385183 -0.92284 9.30957 187.846)" fill="#BDBDBD"/>
<circle cx="2.87917" cy="2.87917" r="2.87917" transform="matrix(0.92284 -0.385183 -0.385183 -0.92284 27.4788 201.478)" fill="#BDBDBD"/>
<path d="M55.4596 192.281L50.7567 194.244L49.1997 190.514L46.091 191.811L47.648 195.542L42.9292 197.511L44.2134 200.588L48.9323 198.619L50.496 202.365L53.6047 201.067L52.041 197.321L56.7439 195.358L55.4596 192.281Z" fill="#BDBDBD"/>
<circle cx="11.5167" cy="11.5167" r="11.5167" transform="matrix(-0.92284 0.385183 0.385183 0.92284 211.826 38.3691)" fill="#BDBDBD"/>
<circle cx="2.87917" cy="2.87917" r="2.87917" transform="matrix(-0.92284 0.385183 0.385183 0.92284 193.657 24.7363)" fill="#BDBDBD"/>
<path d="M165.675 33.9336L170.378 31.9706L171.935 35.7011L175.044 34.4035L173.487 30.6731L178.206 28.7035L176.921 25.6267L172.202 27.5963L170.639 23.8499L167.53 25.1474L169.094 28.8938L164.391 30.8568L165.675 33.9336Z" fill="#BDBDBD"/>
<path d="M148.825 140.02C155.806 133.039 155.806 121.721 148.825 114.74C141.844 107.759 130.525 107.759 123.544 114.74C116.563 121.721 116.563 133.039 123.544 140.02C130.525 147.001 141.844 147.001 148.825 140.02Z" fill="white"/>
<path d="M134.652 128.772C135.489 127.26 137.098 126.369 138.033 125.032C139.023 123.629 138.468 121.009 135.663 121.009C133.826 121.009 132.923 122.4 132.543 123.553L129.727 122.368C130.499 120.052 132.597 118.062 135.652 118.062C138.207 118.062 139.958 119.226 140.849 120.683C141.61 121.933 142.056 124.271 140.882 126.01C139.577 127.934 138.327 128.522 137.653 129.761C137.381 130.261 137.272 130.587 137.272 132.196H134.13C134.119 131.348 133.989 129.968 134.652 128.772ZM137.837 136.545C137.837 137.741 136.859 138.72 135.663 138.72C134.467 138.72 133.489 137.741 133.489 136.545C133.489 135.349 134.467 134.371 135.663 134.371C136.859 134.371 137.837 135.349 137.837 136.545Z" fill="#B51F1F"/>
<path opacity="0.76" d="M122.173 128.664C121.548 128.664 121.043 128.159 121.043 127.534C121.043 118.516 128.381 111.181 137.397 111.181C138.021 111.181 138.526 111.686 138.526 112.31C138.526 112.935 138.021 113.44 137.397 113.44C129.624 113.44 123.302 119.764 123.302 127.534C123.302 128.159 122.797 128.664 122.173 128.664Z" fill="#D1D4D6"/>
<path opacity="0.58" d="M136.186 145.822C126.018 145.822 117.745 137.549 117.745 127.381C117.745 117.212 126.018 108.939 136.186 108.939C146.354 108.939 154.627 117.212 154.627 127.381C154.627 137.549 146.354 145.822 136.186 145.822ZM136.186 110.069C126.639 110.069 118.875 117.837 118.875 127.381C118.875 136.924 126.642 144.692 136.186 144.692C145.73 144.692 153.497 136.924 153.497 127.381C153.497 117.837 145.733 110.069 136.186 110.069Z" fill="#9DA6B4"/>
<path d="M152.618 140.189C152.644 140.164 152.675 140.141 152.703 140.119C155.426 136.594 157.047 132.176 157.047 127.38C157.05 115.859 147.709 106.519 136.188 106.519C124.667 106.519 115.327 115.859 115.327 127.38C115.327 138.901 124.667 148.242 136.188 148.242C140.967 148.242 145.365 146.629 148.882 143.926L151.294 141.514L152.618 140.189ZM136.188 145.256C126.314 145.256 118.312 137.252 118.312 127.38C118.312 117.506 126.317 109.504 136.188 109.504C146.06 109.504 154.065 117.509 154.065 127.38C154.065 137.252 146.06 145.256 136.188 145.256Z" fill="#7D889B"/>
<path d="M136.189 148.526C124.53 148.526 115.045 139.041 115.045 127.381C115.045 115.722 124.53 106.237 136.189 106.237C147.849 106.237 157.333 115.722 157.333 127.381C157.333 132.098 155.811 136.564 152.93 140.292L152.876 140.346C152.848 140.366 152.834 140.377 152.823 140.388L149.058 144.15C145.332 147.012 140.881 148.526 136.189 148.526ZM136.189 106.802C124.843 106.802 115.61 116.033 115.61 127.381C115.61 138.73 124.84 147.961 136.189 147.961C140.751 147.961 145.075 146.492 148.696 143.715L152.422 139.99C152.447 139.965 152.475 139.939 152.506 139.919C155.297 136.296 156.768 131.96 156.768 127.381C156.768 116.033 147.535 106.802 136.189 106.802ZM136.189 145.54C126.176 145.54 118.031 137.394 118.031 127.381C118.031 117.369 126.176 109.223 136.189 109.223C146.202 109.223 154.348 117.369 154.348 127.381C154.348 137.394 146.202 145.54 136.189 145.54ZM136.189 109.788C126.487 109.788 118.596 117.679 118.596 127.381C118.596 137.084 126.487 144.975 136.189 144.975C145.891 144.975 153.783 137.084 153.783 127.381C153.783 117.679 145.891 109.788 136.189 109.788Z" fill="white"/>
<path d="M152.103 143.451L151.295 142.644C150.984 142.333 150.984 141.827 151.295 141.517L148.883 143.929L148.843 143.968C148.533 144.279 148.533 144.785 148.843 145.095L149.826 146.078C150.145 145.533 151.094 144.471 152.103 143.451Z" fill="#B51F1F"/>
<path d="M151.293 141.516C150.982 141.827 150.982 142.332 151.293 142.643L152.101 143.451C153.078 142.465 154.106 141.522 154.685 141.129L153.744 140.189C153.459 139.903 153.013 139.884 152.702 140.118C152.674 140.141 152.643 140.16 152.618 140.189L151.293 141.516Z" fill="#4C65BA"/>
<path d="M151.293 141.516C150.982 141.827 150.982 142.332 151.293 142.643L152.101 143.451C153.078 142.465 154.106 141.522 154.685 141.129L153.744 140.189C153.459 139.903 153.013 139.884 152.702 140.118C152.674 140.141 152.643 140.16 152.618 140.189L151.293 141.516Z" fill="#1A77B9"/>
<path d="M169.823 155.805L155.133 140.954C155.079 140.901 154.918 140.971 154.69 141.129C154.111 141.522 153.082 142.463 152.105 143.451C151.097 144.471 150.151 145.533 149.826 146.078C149.721 146.256 149.679 146.377 149.727 146.423L164.417 161.274C165.911 162.785 168.332 162.785 169.826 161.274C171.317 159.763 171.317 157.314 169.823 155.805Z" fill="#B51F1F"/>
<path opacity="0.14" d="M169.823 155.807L155.133 140.956C154.935 140.755 153.26 142.255 151.823 143.738C150.6 144.997 168.329 162.783 169.823 161.275C171.317 159.764 171.317 157.315 169.823 155.807Z" fill="#060606"/>
<defs>
<filter id="filter0_d_2030_253" x="22.8358" y="21.2325" width="194.533" height="184.915" filterUnits="userSpaceOnUse" color-interpolation-filters="sRGB">
<feFlood flood-opacity="0" result="BackgroundImageFix"/>
<feColorMatrix in="SourceAlpha" type="matrix" values="0 0 0 0 0 0 0 0 0 0 0 0 0 0 0 0 0 0 127 0" result="hardAlpha"/>
<feOffset dx="5.45769" dy="5.45769"/>
<feGaussianBlur stdDeviation="3.63846"/>
<feComposite in2="hardAlpha" operator="out"/>
<feColorMatrix type="matrix" values="0 0 0 0 0 0 0 0 0 0 0 0 0 0 0 0 0 0 0.2 0"/>
<feBlend mode="normal" in2="BackgroundImageFix" result="effect1_dropShadow_2030_253"/>
<feBlend mode="normal" in="SourceGraphic" in2="effect1_dropShadow_2030_253" result="shape"/>
</filter>
</defs>
</svg>
