<svg width="295" height="271" viewBox="0 0 295 271" fill="none" xmlns="http://www.w3.org/2000/svg">
<rect y="121.733" width="188.164" height="67.6729" rx="33.8365" transform="rotate(-40.3122 0 121.733)" fill="#EEEEEE"/>
<rect x="107.104" y="218.873" width="188.164" height="67.6729" rx="33.8365" transform="rotate(-40.3122 107.104 218.873)" fill="#EEEEEE"/>
<rect x="24.7344" y="194.622" width="262.995" height="67.6729" rx="33.8365" transform="rotate(-40.3122 24.7344 194.622)" fill="#EEEEEE"/>
<circle cx="11.4202" cy="11.4202" r="11.4202" transform="matrix(-0.982304 -0.187293 -0.187293 0.982304 230.525 78.2861)" fill="#BDBDBD"/>
<circle cx="2.85504" cy="2.85504" r="2.85504" transform="matrix(-0.982304 -0.187293 -0.187293 0.982304 222.943 57.0762)" fill="#BDBDBD"/>
<path d="M194.724 49.6122L199.688 50.5586L198.937 54.4962L202.219 55.1218L202.969 51.1843L207.95 52.1339L208.57 48.8863L203.589 47.9366L204.343 43.9823L201.061 43.3566L200.307 47.311L195.343 46.3645L194.724 49.6122Z" fill="#BDBDBD"/>
<circle cx="8.59484" cy="8.59484" r="8.59484" transform="matrix(0.999609 -0.0279649 -0.0279649 -0.999609 65.3633 196.183)" fill="#BDBDBD"/>
<circle cx="2.14871" cy="2.14871" r="2.14871" transform="matrix(0.999609 -0.0279649 -0.0279649 -0.999609 74.3633 210.548)" fill="#BDBDBD"/>
<path d="M96.3219 211.796L92.5202 211.902L92.4358 208.887L89.9228 208.957L90.0072 211.973L86.1926 212.079L86.2622 214.566L90.0768 214.46L90.1615 217.488L92.6745 217.418L92.5898 214.389L96.3915 214.283L96.3219 211.796Z" fill="#BDBDBD"/>
<rect x="102" y="74.3193" width="77.6596" height="129.303" fill="#7D889B" fill-opacity="0.490196"/>
<rect x="105.883" y="76.6494" width="69.8936" height="121.149" fill="white"/>
<g clip-path="url(#clip0_1283_1534)">
<path d="M165.438 74.5499L155.635 74.1947L156.647 65H128.25V74.5499H116.756V79.367H166.792L165.438 74.5499Z" fill="#B51F1F"/>
<rect x="129.631" y="76.0996" width="24.8626" height="0.887949" fill="white"/>
<circle cx="141.618" cy="70.3273" r="2.21987" fill="#7D889B"/>
<circle cx="141.618" cy="70.3277" r="1.7759" fill="white"/>
</g>
<path d="M116 101.868C115.977 101.845 115.95 101.827 115.92 101.814C115.889 101.802 115.857 101.795 115.824 101.795C115.791 101.795 115.759 101.802 115.729 101.814C115.698 101.827 115.671 101.845 115.648 101.868L114.425 103.088L113.203 101.866C113.18 101.843 113.152 101.824 113.122 101.812C113.092 101.799 113.059 101.793 113.027 101.793C112.994 101.793 112.961 101.799 112.931 101.812C112.901 101.824 112.873 101.843 112.85 101.866C112.827 101.889 112.809 101.917 112.796 101.947C112.784 101.977 112.777 102.009 112.777 102.042C112.777 102.075 112.784 102.107 112.796 102.138C112.809 102.168 112.827 102.195 112.85 102.218L114.073 103.441L112.85 104.663C112.827 104.687 112.809 104.714 112.796 104.744C112.784 104.775 112.777 104.807 112.777 104.84C112.777 104.872 112.784 104.905 112.796 104.935C112.809 104.965 112.827 104.993 112.85 105.016C112.873 105.039 112.901 105.057 112.931 105.07C112.961 105.083 112.994 105.089 113.027 105.089C113.059 105.089 113.092 105.083 113.122 105.07C113.152 105.057 113.18 105.039 113.203 105.016L114.425 103.793L115.648 105.016C115.671 105.039 115.698 105.057 115.729 105.07C115.759 105.083 115.791 105.089 115.824 105.089C115.857 105.089 115.889 105.083 115.919 105.07C115.95 105.057 115.977 105.039 116 105.016C116.023 104.993 116.042 104.965 116.054 104.935C116.067 104.905 116.073 104.872 116.073 104.84C116.073 104.807 116.067 104.775 116.054 104.744C116.042 104.714 116.023 104.687 116 104.663L114.778 103.441L116 102.218C116.095 102.123 116.095 101.963 116 101.868Z" fill="#B51F1F"/>
<rect x="110.931" y="99.9469" width="6.98936" height="6.98936" rx="0.388298" stroke="#7D889B" stroke-width="0.776596"/>
<rect x="123.309" y="101.306" width="44.6543" height="1.55319" fill="#BDBDBD"/>
<rect x="123.309" y="104.023" width="23.6862" height="1.55319" fill="#BDBDBD"/>
<path d="M116 114.634C115.977 114.611 115.95 114.593 115.92 114.58C115.889 114.567 115.857 114.561 115.824 114.561C115.791 114.561 115.759 114.567 115.729 114.58C115.698 114.593 115.671 114.611 115.648 114.634L114.425 115.854L113.203 114.632C113.18 114.608 113.152 114.59 113.122 114.578C113.092 114.565 113.059 114.559 113.027 114.559C112.994 114.559 112.961 114.565 112.931 114.578C112.901 114.59 112.873 114.608 112.85 114.632C112.827 114.655 112.809 114.682 112.796 114.712C112.784 114.743 112.777 114.775 112.777 114.808C112.777 114.841 112.784 114.873 112.796 114.903C112.809 114.933 112.827 114.961 112.85 114.984L114.073 116.207L112.85 117.429C112.827 117.452 112.809 117.48 112.796 117.51C112.784 117.54 112.777 117.573 112.777 117.605C112.777 117.638 112.784 117.67 112.796 117.701C112.809 117.731 112.827 117.758 112.85 117.782C112.873 117.805 112.901 117.823 112.931 117.836C112.961 117.848 112.994 117.855 113.027 117.855C113.059 117.855 113.092 117.848 113.122 117.836C113.152 117.823 113.18 117.805 113.203 117.782L114.425 116.559L115.648 117.782C115.671 117.805 115.698 117.823 115.729 117.836C115.759 117.848 115.791 117.855 115.824 117.855C115.857 117.855 115.889 117.848 115.919 117.836C115.95 117.823 115.977 117.805 116 117.782C116.023 117.758 116.042 117.731 116.054 117.701C116.067 117.67 116.073 117.638 116.073 117.605C116.073 117.573 116.067 117.54 116.054 117.51C116.042 117.48 116.023 117.452 116 117.429L114.778 116.207L116 114.984C116.095 114.889 116.095 114.729 116 114.634Z" fill="#B51F1F"/>
<rect x="110.931" y="112.713" width="6.98936" height="6.98936" rx="0.388298" stroke="#7D889B" stroke-width="0.776596"/>
<rect x="123.309" y="114.071" width="44.6543" height="1.55319" fill="#BDBDBD"/>
<rect x="123.309" y="116.789" width="23.6862" height="1.55319" fill="#BDBDBD"/>
<path d="M116 127.401C115.977 127.378 115.95 127.359 115.92 127.347C115.889 127.334 115.857 127.328 115.824 127.328C115.791 127.328 115.759 127.334 115.729 127.347C115.698 127.359 115.671 127.378 115.648 127.401L114.425 128.621L113.203 127.398C113.18 127.375 113.152 127.357 113.122 127.344C113.092 127.332 113.059 127.325 113.027 127.325C112.994 127.325 112.961 127.332 112.931 127.344C112.901 127.357 112.873 127.375 112.85 127.398C112.827 127.421 112.809 127.449 112.796 127.479C112.784 127.509 112.777 127.542 112.777 127.574C112.777 127.607 112.784 127.64 112.796 127.67C112.809 127.7 112.827 127.728 112.85 127.751L114.073 128.973L112.85 130.196C112.827 130.219 112.809 130.246 112.796 130.277C112.784 130.307 112.777 130.339 112.777 130.372C112.777 130.405 112.784 130.437 112.796 130.467C112.809 130.498 112.827 130.525 112.85 130.548C112.873 130.571 112.901 130.59 112.931 130.602C112.961 130.615 112.994 130.621 113.027 130.621C113.059 130.621 113.092 130.615 113.122 130.602C113.152 130.59 113.18 130.571 113.203 130.548L114.425 129.326L115.648 130.548C115.671 130.571 115.698 130.59 115.729 130.602C115.759 130.615 115.791 130.621 115.824 130.621C115.857 130.621 115.889 130.615 115.919 130.602C115.95 130.59 115.977 130.571 116 130.548C116.023 130.525 116.042 130.498 116.054 130.467C116.067 130.437 116.073 130.405 116.073 130.372C116.073 130.339 116.067 130.307 116.054 130.277C116.042 130.246 116.023 130.219 116 130.196L114.778 128.973L116 127.751C116.095 127.656 116.095 127.496 116 127.401Z" fill="#B51F1F"/>
<rect x="110.931" y="125.479" width="6.98936" height="6.98936" rx="0.388298" stroke="#7D889B" stroke-width="0.776596"/>
<rect x="123.309" y="126.838" width="44.6543" height="1.55319" fill="#BDBDBD"/>
<rect x="123.309" y="129.556" width="23.6862" height="1.55319" fill="#BDBDBD"/>
<path d="M116 140.166C115.977 140.143 115.95 140.125 115.92 140.112C115.889 140.1 115.857 140.093 115.824 140.093C115.791 140.093 115.759 140.1 115.729 140.112C115.698 140.125 115.671 140.143 115.648 140.166L114.425 141.386L113.203 140.164C113.18 140.141 113.152 140.122 113.122 140.11C113.092 140.097 113.059 140.091 113.027 140.091C112.994 140.091 112.961 140.097 112.931 140.11C112.901 140.122 112.873 140.141 112.85 140.164C112.827 140.187 112.809 140.214 112.796 140.245C112.784 140.275 112.777 140.307 112.777 140.34C112.777 140.373 112.784 140.405 112.796 140.435C112.809 140.466 112.827 140.493 112.85 140.516L114.073 141.739L112.85 142.961C112.827 142.984 112.809 143.012 112.796 143.042C112.784 143.072 112.777 143.105 112.777 143.138C112.777 143.17 112.784 143.203 112.796 143.233C112.809 143.263 112.827 143.291 112.85 143.314C112.873 143.337 112.901 143.355 112.931 143.368C112.961 143.38 112.994 143.387 113.027 143.387C113.059 143.387 113.092 143.38 113.122 143.368C113.152 143.355 113.18 143.337 113.203 143.314L114.425 142.091L115.648 143.314C115.671 143.337 115.698 143.355 115.729 143.368C115.759 143.38 115.791 143.387 115.824 143.387C115.857 143.387 115.889 143.38 115.919 143.368C115.95 143.355 115.977 143.337 116 143.314C116.023 143.291 116.042 143.263 116.054 143.233C116.067 143.203 116.073 143.17 116.073 143.138C116.073 143.105 116.067 143.072 116.054 143.042C116.042 143.012 116.023 142.984 116 142.961L114.778 141.739L116 140.516C116.095 140.421 116.095 140.261 116 140.166Z" fill="#B51F1F"/>
<rect x="110.931" y="138.245" width="6.98936" height="6.98936" rx="0.388298" stroke="#7D889B" stroke-width="0.776596"/>
<rect x="123.309" y="139.604" width="44.6543" height="1.55319" fill="#BDBDBD"/>
<rect x="123.309" y="142.321" width="23.6862" height="1.55319" fill="#BDBDBD"/>
<path d="M116 152.932C115.977 152.909 115.95 152.89 115.92 152.878C115.889 152.865 115.857 152.859 115.824 152.859C115.791 152.859 115.759 152.865 115.729 152.878C115.698 152.89 115.671 152.909 115.648 152.932L114.425 154.152L113.203 152.929C113.18 152.906 113.152 152.888 113.122 152.875C113.092 152.863 113.059 152.856 113.027 152.856C112.994 152.856 112.961 152.863 112.931 152.875C112.901 152.888 112.873 152.906 112.85 152.929C112.827 152.953 112.809 152.98 112.796 153.01C112.784 153.041 112.777 153.073 112.777 153.106C112.777 153.138 112.784 153.171 112.796 153.201C112.809 153.231 112.827 153.259 112.85 153.282L114.073 154.504L112.85 155.727C112.827 155.75 112.809 155.778 112.796 155.808C112.784 155.838 112.777 155.87 112.777 155.903C112.777 155.936 112.784 155.968 112.796 155.999C112.809 156.029 112.827 156.056 112.85 156.079C112.873 156.103 112.901 156.121 112.931 156.133C112.961 156.146 112.994 156.152 113.027 156.152C113.059 156.152 113.092 156.146 113.122 156.133C113.152 156.121 113.18 156.103 113.203 156.079L114.425 154.857L115.648 156.079C115.671 156.103 115.698 156.121 115.729 156.133C115.759 156.146 115.791 156.152 115.824 156.152C115.857 156.152 115.889 156.146 115.919 156.133C115.95 156.121 115.977 156.103 116 156.079C116.023 156.056 116.042 156.029 116.054 155.999C116.067 155.968 116.073 155.936 116.073 155.903C116.073 155.87 116.067 155.838 116.054 155.808C116.042 155.778 116.023 155.75 116 155.727L114.778 154.504L116 153.282C116.095 153.187 116.095 153.027 116 152.932Z" fill="#B51F1F"/>
<rect x="110.931" y="151.01" width="6.98936" height="6.98936" rx="0.388298" stroke="#7D889B" stroke-width="0.776596"/>
<rect x="123.309" y="152.369" width="44.6543" height="1.55319" fill="#BDBDBD"/>
<rect x="123.309" y="155.087" width="23.6862" height="1.55319" fill="#BDBDBD"/>
<path d="M116 165.699C115.977 165.675 115.95 165.657 115.92 165.644C115.889 165.632 115.857 165.625 115.824 165.625C115.791 165.625 115.759 165.632 115.729 165.644C115.698 165.657 115.671 165.675 115.648 165.699L114.425 166.919L113.203 165.696C113.18 165.673 113.152 165.655 113.122 165.642C113.092 165.629 113.059 165.623 113.027 165.623C112.994 165.623 112.961 165.629 112.931 165.642C112.901 165.655 112.873 165.673 112.85 165.696C112.827 165.719 112.809 165.747 112.796 165.777C112.784 165.807 112.777 165.84 112.777 165.872C112.777 165.905 112.784 165.937 112.796 165.968C112.809 165.998 112.827 166.025 112.85 166.049L114.073 167.271L112.85 168.494C112.827 168.517 112.809 168.544 112.796 168.574C112.784 168.605 112.777 168.637 112.777 168.67C112.777 168.703 112.784 168.735 112.796 168.765C112.809 168.795 112.827 168.823 112.85 168.846C112.873 168.869 112.901 168.888 112.931 168.9C112.961 168.913 112.994 168.919 113.027 168.919C113.059 168.919 113.092 168.913 113.122 168.9C113.152 168.888 113.18 168.869 113.203 168.846L114.425 167.624L115.648 168.846C115.671 168.869 115.698 168.888 115.729 168.9C115.759 168.913 115.791 168.919 115.824 168.919C115.857 168.919 115.889 168.913 115.919 168.9C115.95 168.888 115.977 168.869 116 168.846C116.023 168.823 116.042 168.795 116.054 168.765C116.067 168.735 116.073 168.703 116.073 168.67C116.073 168.637 116.067 168.605 116.054 168.574C116.042 168.544 116.023 168.517 116 168.494L114.778 167.271L116 166.049C116.095 165.954 116.095 165.794 116 165.699Z" fill="#B51F1F"/>
<rect x="110.931" y="163.777" width="6.98936" height="6.98936" rx="0.388298" stroke="#7D889B" stroke-width="0.776596"/>
<rect x="123.309" y="165.136" width="44.6543" height="1.55319" fill="#BDBDBD"/>
<rect x="123.309" y="167.854" width="23.6862" height="1.55319" fill="#BDBDBD"/>
<path d="M116 178.464C115.977 178.441 115.95 178.423 115.92 178.41C115.889 178.398 115.857 178.391 115.824 178.391C115.791 178.391 115.759 178.398 115.729 178.41C115.698 178.423 115.671 178.441 115.648 178.464L114.425 179.684L113.203 178.462C113.18 178.439 113.152 178.42 113.122 178.408C113.092 178.395 113.059 178.389 113.027 178.389C112.994 178.389 112.961 178.395 112.931 178.408C112.901 178.42 112.873 178.439 112.85 178.462C112.827 178.485 112.809 178.512 112.796 178.543C112.784 178.573 112.777 178.605 112.777 178.638C112.777 178.671 112.784 178.703 112.796 178.733C112.809 178.764 112.827 178.791 112.85 178.814L114.073 180.037L112.85 181.259C112.827 181.282 112.809 181.31 112.796 181.34C112.784 181.37 112.777 181.403 112.777 181.435C112.777 181.468 112.784 181.501 112.796 181.531C112.809 181.561 112.827 181.589 112.85 181.612C112.873 181.635 112.901 181.653 112.931 181.666C112.961 181.678 112.994 181.685 113.027 181.685C113.059 181.685 113.092 181.678 113.122 181.666C113.152 181.653 113.18 181.635 113.203 181.612L114.425 180.389L115.648 181.612C115.671 181.635 115.698 181.653 115.729 181.666C115.759 181.678 115.791 181.685 115.824 181.685C115.857 181.685 115.889 181.678 115.919 181.666C115.95 181.653 115.977 181.635 116 181.612C116.023 181.589 116.042 181.561 116.054 181.531C116.067 181.501 116.073 181.468 116.073 181.435C116.073 181.403 116.067 181.37 116.054 181.34C116.042 181.31 116.023 181.282 116 181.259L114.778 180.037L116 178.814C116.095 178.719 116.095 178.559 116 178.464Z" fill="#B51F1F"/>
<rect x="110.931" y="176.543" width="6.98936" height="6.98936" rx="0.388298" stroke="#7D889B" stroke-width="0.776596"/>
<rect x="123.309" y="177.901" width="44.6543" height="1.55319" fill="#BDBDBD"/>
<rect x="123.309" y="180.619" width="23.6862" height="1.55319" fill="#BDBDBD"/>
<ellipse cx="172.788" cy="186.779" rx="19.4149" ry="19.2207" fill="white"/>
<path d="M173.148 200.511L171.076 198.624C163.716 191.951 158.857 187.535 158.857 182.147C158.857 177.731 162.316 174.287 166.717 174.287C169.204 174.287 171.59 175.445 173.148 177.26C174.706 175.445 177.092 174.287 179.579 174.287C183.981 174.287 187.439 177.731 187.439 182.147C187.439 187.535 182.58 191.951 175.22 198.624L173.148 200.511Z" fill="#B51F1F"/>
<defs>
<clipPath id="clip0_1283_1534">
<rect width="50.0359" height="14.367" fill="white" transform="translate(116.756 65)"/>
</clipPath>
</defs>
</svg>
