<svg width="295" height="271" viewBox="0 0 295 271" fill="none" xmlns="http://www.w3.org/2000/svg">
<rect y="121.733" width="188.164" height="67.6729" rx="33.8365" transform="rotate(-40.3122 0 121.733)" fill="#EEEEEE"/>
<rect x="107.104" y="218.873" width="188.164" height="67.6729" rx="33.8365" transform="rotate(-40.3122 107.104 218.873)" fill="#EEEEEE"/>
<rect x="24.7344" y="194.622" width="262.995" height="67.6729" rx="33.8365" transform="rotate(-40.3122 24.7344 194.622)" fill="#EEEEEE"/>
<rect x="93.2227" y="59.9023" width="96.8321" height="136.982" rx="11.8088" fill="white"/>
<path fill-rule="evenodd" clip-rule="evenodd" d="M112.115 96.6109C116.736 96.6109 120.482 92.8647 120.482 88.2435C120.482 83.6223 116.736 79.8761 112.115 79.8761C107.494 79.8761 103.748 83.6223 103.748 88.2435C103.748 92.8647 107.494 96.6109 112.115 96.6109ZM112.115 97.6905C117.332 97.6905 121.562 93.4609 121.562 88.2435C121.562 83.026 117.332 78.7964 112.115 78.7964C106.898 78.7964 102.668 83.026 102.668 88.2435C102.668 93.4609 106.898 97.6905 112.115 97.6905Z" fill="#BDBDBD"/>
<path fill-rule="evenodd" clip-rule="evenodd" d="M112.206 85.2742C111.511 85.2742 110.947 85.8382 110.947 86.5338C110.947 87.2295 111.511 87.7935 112.206 87.7935C112.902 87.7935 113.466 87.2295 113.466 86.5338C113.466 85.8382 112.902 85.2742 112.206 85.2742ZM109.867 86.5338C109.867 85.2419 110.915 84.1946 112.206 84.1946C113.498 84.1946 114.546 85.2419 114.546 86.5338C114.546 87.8258 113.498 88.8731 112.206 88.8731C110.915 88.8731 109.867 87.8258 109.867 86.5338Z" fill="#BDBDBD"/>
<path fill-rule="evenodd" clip-rule="evenodd" d="M111.065 88.4225L109.627 89.3813C109.326 89.5815 109.146 89.9186 109.146 90.2796V91.2123H115.084V90.2796C115.084 89.9186 114.904 89.5815 114.603 89.3813L113.165 88.4225L113.764 87.5242L115.202 88.4829C115.803 88.8834 116.164 89.5576 116.164 90.2796V92.292H108.066V90.2796C108.066 89.5576 108.427 88.8834 109.028 88.4829L110.466 87.5242L111.065 88.4225Z" fill="#BDBDBD"/>
<rect x="126.287" y="83.52" width="44.8734" height="2.36176" fill="#BDBDBD"/>
<rect x="126.287" y="88.2436" width="23.6176" height="2.36176" fill="#BDBDBD"/>
<rect x="102.668" y="116.585" width="44.8734" height="2.36176" fill="#BDBDBD"/>
<rect x="103.258" y="121.899" width="76.7572" height="12.9897" stroke="#BDBDBD" stroke-width="1.18088"/>
<rect x="102.668" y="140.202" width="44.8734" height="2.36176" fill="#BDBDBD"/>
<rect x="103.258" y="145.516" width="76.7572" height="12.9897" stroke="#BDBDBD" stroke-width="1.18088"/>
<rect x="102.668" y="163.82" width="77.9381" height="14.1706" fill="#B51F1F"/>
<path d="M161.217 165.094V149.061C161.217 140.519 167.516 133.561 175.239 133.561H186.575C194.316 133.561 200.597 140.519 200.597 149.061V165.094C200.597 173.636 194.298 180.594 186.575 180.594H175.239C167.516 180.594 161.217 173.636 161.217 165.094ZM175.239 140.857C171.146 140.857 167.819 144.541 167.819 149.043V165.076C167.819 169.596 171.146 173.262 175.239 173.262H186.575C190.668 173.262 193.995 169.579 193.995 165.076V149.061C193.995 144.541 190.668 140.875 186.575 140.875H175.239V140.857Z" fill="#7D889B"/>
<path d="M186.576 181.039H175.241C167.269 181.039 160.773 173.885 160.773 165.094V149.061C160.773 140.27 167.269 133.117 175.241 133.117H186.576C194.548 133.117 201.044 140.27 201.044 149.061V165.094C201.044 173.885 194.566 181.039 186.576 181.039ZM175.241 134.006C167.749 134.006 161.663 140.751 161.663 149.061V165.094C161.663 173.387 167.749 180.149 175.241 180.149H186.576C194.068 180.149 200.154 173.405 200.154 165.094V149.061C200.154 140.769 194.068 134.006 186.576 134.006H175.241ZM186.576 173.725H175.241C170.899 173.725 167.375 169.846 167.375 165.094V149.061C167.375 144.292 170.899 140.43 175.241 140.43H186.576C190.918 140.43 194.442 144.31 194.442 149.061V165.094C194.442 169.864 190.918 173.725 186.576 173.725ZM175.241 141.302C171.397 141.302 168.283 144.79 168.283 149.061V165.094C168.283 169.365 171.415 172.835 175.259 172.835H186.594C190.438 172.835 193.57 169.365 193.57 165.094V149.061C193.57 144.79 190.438 141.32 186.594 141.32H175.241V141.302Z" fill="#909AB0"/>
<path d="M158.941 207.198H202.877C206.56 207.198 209.55 204.208 209.55 200.525V166.323C209.55 162.639 206.56 159.65 202.877 159.65H158.941C155.257 159.65 152.268 162.639 152.268 166.323V200.543C152.268 204.226 155.257 207.198 158.941 207.198Z" fill="#7D889B"/>
<path d="M162.857 202.98H198.963C202.647 202.98 205.636 199.991 205.636 196.307V172.818C205.636 169.134 202.647 166.145 198.963 166.145H162.857C159.173 166.145 156.184 169.134 156.184 172.818V196.307C156.184 199.991 159.173 202.98 162.857 202.98Z" fill="#EEEEEE"/>
<path d="M174.225 179.295C174.225 175.594 177.214 172.604 180.916 172.604C184.617 172.604 187.607 175.594 187.607 179.295C187.607 182.302 185.596 184.829 182.855 185.666V194.314H178.976V185.666C176.235 184.847 174.225 182.32 174.225 179.295Z" fill="#B51F1F"/>
<circle cx="11.4202" cy="11.4202" r="11.4202" transform="matrix(-0.982304 -0.187293 -0.187293 0.982304 230.525 78.2857)" fill="#BDBDBD"/>
<circle cx="2.85504" cy="2.85504" r="2.85504" transform="matrix(-0.982304 -0.187293 -0.187293 0.982304 222.943 57.0763)" fill="#BDBDBD"/>
<path d="M194.724 49.6122L199.688 50.5586L198.937 54.4962L202.219 55.1218L202.969 51.1843L207.95 52.1339L208.57 48.8863L203.589 47.9366L204.343 43.9823L201.061 43.3566L200.307 47.311L195.343 46.3645L194.724 49.6122Z" fill="#BDBDBD"/>
<circle cx="8.59484" cy="8.59484" r="8.59484" transform="matrix(0.999609 -0.0279649 -0.0279649 -0.999609 65.3633 196.182)" fill="#BDBDBD"/>
<circle cx="2.14871" cy="2.14871" r="2.14871" transform="matrix(0.999609 -0.0279649 -0.0279649 -0.999609 74.3633 210.548)" fill="#BDBDBD"/>
<path d="M96.3219 211.795L92.5202 211.902L92.4358 208.886L89.9228 208.956L90.0072 211.972L86.1926 212.079L86.2622 214.566L90.0768 214.459L90.1615 217.488L92.6745 217.417L92.5898 214.389L96.3915 214.282L96.3219 211.795Z" fill="#BDBDBD"/>
</svg>
