<svg width="243" height="253" viewBox="0 0 243 253" fill="none" xmlns="http://www.w3.org/2000/svg">
<g filter="url(#filter0_dd_2170_1057)">
<path d="M136.084 215.73C88.3881 222.945 34.5366 203.996 27.3216 156.301C20.1066 108.605 71.9955 39.392 119.691 32.177C167.386 24.962 214.799 83.3317 222.014 131.027C229.229 178.723 183.793 208.529 136.084 215.73Z" fill="white"/>
</g>
<g filter="url(#filter1_d_2170_1057)">
<path d="M136.084 215.73C88.3881 222.945 34.5366 203.996 27.3216 156.301C20.1066 108.605 71.9955 39.392 119.691 32.177C167.386 24.962 214.799 83.3317 222.014 131.027C229.229 178.723 183.793 208.529 136.084 215.73Z" fill="#F7F9FD"/>
<path d="M136.009 215.235L136.009 215.235C112.244 218.83 86.9615 215.903 66.7395 206.156C46.5284 196.415 31.3937 179.877 27.816 156.226C24.2369 132.566 35.3217 103.473 53.3156 79.3578C71.309 55.2427 96.1017 36.2511 119.766 32.6714C143.383 29.0987 167.008 41.7597 185.671 61.3555C204.327 80.9437 217.93 107.369 221.52 131.102C225.097 154.751 215.634 173.964 199.317 188.187C182.986 202.422 159.796 211.645 136.009 215.235Z" stroke="#F7F9FD"/>
</g>
<path d="M132.894 87.5787L137.89 87.5398L137.856 83.2799C137.85 82.6219 137.58 81.9807 137.11 81.5199C136.64 81.0578 135.996 80.7957 135.338 80.8009L110.707 80.993C110.052 80.9994 109.409 81.2707 108.947 81.738C108.485 82.2065 108.226 82.8516 108.231 83.5097L108.266 87.7695L113.259 87.7319L113.245 85.9693L132.88 85.8161L132.894 87.5787Z" fill="#1A77B9"/>
<path d="M84.3771 101.332L162.451 100.722L162.389 92.7707L155.146 92.8265L155.115 88.6445C155.11 88.3174 154.977 87.9994 154.745 87.7723C154.513 87.5426 154.189 87.4128 153.866 87.4141L137.891 87.5387L132.895 87.5776L113.259 87.7321L108.266 87.771L93.3718 87.8865C93.0461 87.8891 92.7268 88.0241 92.5009 88.2564C92.2699 88.4875 92.1401 88.8081 92.1427 89.1351L92.1738 93.3184L84.3148 93.3807L84.3771 101.332Z" fill="#B51F1F"/>
<path d="M90.4663 103.274C89.6797 103.281 88.9347 103.637 88.435 104.245C87.9353 104.854 87.7328 105.654 87.8795 106.426L98.9392 164.148C99.1806 165.406 100.285 166.312 101.565 166.302L146.257 165.952C147.53 165.942 148.619 165.028 148.848 163.775L159.395 105.885C159.537 105.111 159.322 104.305 158.816 103.703C158.31 103.099 157.553 102.751 156.765 102.758L90.4663 103.274ZM109.523 162.383C108.087 162.611 106.736 161.634 106.509 160.2L98.9158 112.622C98.6861 111.184 99.6635 109.837 101.103 109.608C102.538 109.379 103.888 110.356 104.117 111.793L111.71 159.37C111.938 160.803 110.958 162.154 109.523 162.383ZM124.08 162.572C122.625 162.584 121.436 161.414 121.427 159.959L121.05 111.782C121.041 110.327 122.21 109.14 123.661 109.129C125.119 109.118 126.308 110.287 126.317 111.741L126.694 159.918C126.703 161.372 125.534 162.561 124.08 162.572ZM148.461 112.234L141.613 159.924C141.404 161.362 140.072 162.362 138.632 162.154C137.191 161.949 136.191 160.614 136.399 159.174L143.247 111.483C143.455 110.045 144.789 109.045 146.23 109.253C147.669 109.462 148.67 110.795 148.461 112.234Z" fill="#B51F1F"/>
<path d="M123.661 109.129C122.209 109.139 121.04 110.327 121.049 111.782L121.427 159.959C121.436 161.414 122.625 162.583 124.08 162.572C125.534 162.561 126.703 161.372 126.694 159.917L126.317 111.74C126.306 110.285 125.117 109.116 123.661 109.129Z" fill="white"/>
<path d="M143.245 111.485L136.397 159.176C136.188 160.616 137.189 161.95 138.629 162.156C140.07 162.364 141.403 161.363 141.611 159.926L148.459 112.236C148.668 110.797 147.667 109.464 146.228 109.256C144.787 109.047 143.453 110.045 143.245 111.485Z" fill="white"/>
<path d="M101.101 109.605C99.6619 109.834 98.6846 111.181 98.9143 112.619L106.507 160.197C106.734 161.631 108.084 162.608 109.521 162.38C110.957 162.15 111.937 160.8 111.707 159.365L104.114 111.787C103.887 110.353 102.537 109.377 101.101 109.605Z" fill="white"/>
<g filter="url(#filter2_d_2170_1057)">
<ellipse cx="148.487" cy="161.865" rx="16.6175" ry="16.4513" fill="white"/>
</g>
<g clip-path="url(#clip0_2170_1057)">
<path d="M148.414 168.294C147.778 168.294 147.235 168.496 146.785 168.899C146.336 169.302 146.11 169.789 146.11 170.364C146.11 171.011 146.337 171.52 146.791 171.889C147.247 172.259 147.777 172.446 148.383 172.446C148.999 172.446 149.537 172.262 149.997 171.897C150.457 171.531 150.686 171.02 150.686 170.364C150.686 169.789 150.467 169.301 150.027 168.899C149.587 168.497 149.05 168.294 148.413 168.294M154.91 154.047C154.325 153.159 153.488 152.449 152.423 151.934C151.363 151.424 150.129 151.166 148.754 151.166C147.273 151.166 145.955 151.476 144.838 152.086C143.72 152.698 142.856 153.483 142.271 154.419C141.682 155.36 141.383 156.307 141.383 157.233C141.383 157.726 141.589 158.188 141.993 158.602C142.399 159.019 142.904 159.23 143.493 159.23C144.5 159.23 145.185 158.64 145.534 157.482C145.852 156.524 146.245 155.793 146.698 155.309C147.125 154.853 147.817 154.622 148.754 154.622C149.562 154.622 150.2 154.848 150.706 155.316C151.205 155.776 151.448 156.325 151.448 156.994C151.448 157.332 151.369 157.635 151.211 157.922C151.042 158.223 150.833 158.499 150.588 158.745C150.329 159.005 149.901 159.394 149.317 159.906C148.636 160.503 148.086 161.026 147.687 161.46C147.269 161.911 146.93 162.441 146.677 163.035C146.424 163.633 146.296 164.347 146.296 165.158C146.296 165.85 146.489 166.385 146.87 166.75C147.247 167.111 147.717 167.295 148.267 167.295C149.318 167.295 149.979 166.72 150.175 165.645C150.275 165.198 150.351 164.886 150.401 164.708C150.446 164.547 150.512 164.381 150.597 164.215C150.679 164.054 150.809 163.872 150.985 163.672C151.167 163.461 151.415 163.214 151.717 162.937C152.85 161.924 153.65 161.191 154.093 160.757C154.551 160.31 154.949 159.772 155.279 159.16C155.618 158.533 155.79 157.794 155.79 156.967C155.79 155.92 155.493 154.937 154.908 154.046" fill="#BE212F"/>
</g>
<path d="M52.5346 177.056C48.6841 172.712 45.1761 168.135 42.1066 163.38C39.0235 158.625 36.3788 153.692 34.2411 148.663C32.1035 143.634 30.4591 138.482 29.404 133.274C28.3488 128.081 27.8829 122.833 28.0748 117.598C28.2666 112.364 29.1162 107.143 30.7195 102.004C32.309 96.8655 34.6522 91.7954 37.8039 86.8623C40.9556 81.9293 44.998 77.3525 49.7392 73.1456C54.4805 68.9388 59.9069 65.1294 65.8403 61.7447C71.7737 58.3601 78.2004 55.3865 84.9422 52.8926C91.6841 50.3986 98.7275 48.3569 105.88 46.8222C113.033 45.2874 120.282 44.2734 127.463 43.7938C134.643 43.3142 141.741 43.3827 148.565 44.0405C155.389 44.6982 161.926 45.9315 167.996 47.7951C174.067 49.6587 179.657 52.1526 184.59 55.3043C189.524 58.456 193.785 62.3614 197.444 66.8423C201.103 71.3231 204.131 76.407 206.57 81.9019C209.009 87.3968 210.887 93.3302 212.216 99.5239C213.545 105.718 214.326 112.185 214.6 118.763C214.874 125.34 214.641 132.027 213.942 138.673C213.243 145.319 212.079 151.911 210.489 158.296" stroke="#B51F1F" stroke-width="4.57761" stroke-miterlimit="10" stroke-linecap="round" stroke-linejoin="round"/>
<path d="M201.448 177.056C199.355 182.523 196.696 187.351 193.567 191.59C190.438 195.829 186.838 199.479 182.846 202.581C178.853 205.683 174.481 208.233 169.822 210.269C165.149 212.307 160.188 213.831 155.004 214.883C149.821 215.936 144.441 216.511 138.919 216.667C133.397 216.824 127.768 216.527 122.102 215.846C116.436 215.165 110.717 214.089 105.065 212.663C99.4137 211.238 93.8007 209.455 88.3472 207.359" stroke="#B51F1F" stroke-width="4.57761" stroke-miterlimit="10" stroke-linecap="round" stroke-linejoin="round"/>
<circle cx="12.55" cy="12.55" r="12.55" transform="matrix(0.92284 -0.385183 -0.385183 -0.92284 9.92322 211.148)" fill="#BDBDBD"/>
<circle cx="3.13749" cy="3.13749" r="3.13749" transform="matrix(0.92284 -0.385183 -0.385183 -0.92284 29.724 226.004)" fill="#BDBDBD"/>
<path d="M59.9905 215.451L54.8657 217.59L53.1689 213.525L49.7813 214.939L51.478 219.004L46.3358 221.15L47.7353 224.503L52.8775 222.357L54.5815 226.439L57.9691 225.026L56.2651 220.943L61.39 218.804L59.9905 215.451Z" fill="#BDBDBD"/>
<circle cx="12.55" cy="12.55" r="12.55" transform="matrix(-0.92284 0.385183 0.385183 0.92284 232.986 42.1211)" fill="#BDBDBD"/>
<circle cx="3.13749" cy="3.13749" r="3.13749" transform="matrix(-0.92284 0.385183 0.385183 0.92284 213.185 27.2656)" fill="#BDBDBD"/>
<path d="M182.918 37.8185L188.043 35.6794L189.74 39.7446L193.128 38.3306L191.431 34.2655L196.573 32.1192L195.174 28.7663L190.031 30.9126L188.327 26.8301L184.94 28.244L186.644 32.3265L181.519 34.4656L182.918 37.8185Z" fill="#BDBDBD"/>
<defs>
<filter id="filter0_dd_2170_1057" x="20.6459" y="25.5684" width="208.127" height="197.646" filterUnits="userSpaceOnUse" color-interpolation-filters="sRGB">
<feFlood flood-opacity="0" result="BackgroundImageFix"/>
<feColorMatrix in="SourceAlpha" type="matrix" values="0 0 0 0 0 0 0 0 0 0 0 0 0 0 0 0 0 0 127 0" result="hardAlpha"/>
<feOffset dy="-2"/>
<feGaussianBlur stdDeviation="2"/>
<feColorMatrix type="matrix" values="0 0 0 0 0 0 0 0 0 0 0 0 0 0 0 0 0 0 0.08 0"/>
<feBlend mode="normal" in2="BackgroundImageFix" result="effect1_dropShadow_2170_1057"/>
<feColorMatrix in="SourceAlpha" type="matrix" values="0 0 0 0 0 0 0 0 0 0 0 0 0 0 0 0 0 0 127 0" result="hardAlpha"/>
<feOffset/>
<feGaussianBlur stdDeviation="3"/>
<feColorMatrix type="matrix" values="0 0 0 0 0 0 0 0 0 0 0 0 0 0 0 0 0 0 0.02 0"/>
<feBlend mode="normal" in2="effect1_dropShadow_2170_1057" result="effect2_dropShadow_2170_1057"/>
<feBlend mode="normal" in="SourceGraphic" in2="effect2_dropShadow_2170_1057" result="shape"/>
</filter>
<filter id="filter1_d_2170_1057" x="25.6459" y="30.5684" width="204.127" height="193.646" filterUnits="userSpaceOnUse" color-interpolation-filters="sRGB">
<feFlood flood-opacity="0" result="BackgroundImageFix"/>
<feColorMatrix in="SourceAlpha" type="matrix" values="0 0 0 0 0 0 0 0 0 0 0 0 0 0 0 0 0 0 127 0" result="hardAlpha"/>
<feOffset dx="3" dy="3"/>
<feGaussianBlur stdDeviation="2"/>
<feComposite in2="hardAlpha" operator="out"/>
<feColorMatrix type="matrix" values="0 0 0 0 0 0 0 0 0 0 0 0 0 0 0 0 0 0 0.2 0"/>
<feBlend mode="normal" in2="BackgroundImageFix" result="effect1_dropShadow_2170_1057"/>
<feBlend mode="normal" in="SourceGraphic" in2="effect1_dropShadow_2170_1057" result="shape"/>
</filter>
<filter id="filter2_d_2170_1057" x="127.869" y="145.414" width="41.2349" height="40.9023" filterUnits="userSpaceOnUse" color-interpolation-filters="sRGB">
<feFlood flood-opacity="0" result="BackgroundImageFix"/>
<feColorMatrix in="SourceAlpha" type="matrix" values="0 0 0 0 0 0 0 0 0 0 0 0 0 0 0 0 0 0 127 0" result="hardAlpha"/>
<feOffset dy="4"/>
<feGaussianBlur stdDeviation="2"/>
<feComposite in2="hardAlpha" operator="out"/>
<feColorMatrix type="matrix" values="0 0 0 0 0 0 0 0 0 0 0 0 0 0 0 0 0 0 0.25 0"/>
<feBlend mode="normal" in2="BackgroundImageFix" result="effect1_dropShadow_2170_1057"/>
<feBlend mode="normal" in="SourceGraphic" in2="effect1_dropShadow_2170_1057" result="shape"/>
</filter>
<clipPath id="clip0_2170_1057">
<rect width="21.3978" height="21.3978" fill="white" transform="translate(138.04 151.166)"/>
</clipPath>
</defs>
</svg>
