<svg width="243" height="254" viewBox="0 0 243 254" fill="none" xmlns="http://www.w3.org/2000/svg">
<g filter="url(#filter0_dd_2040_489)">
<path d="M136.037 216.192C88.3419 223.407 34.4904 204.459 27.2753 156.764C20.0603 109.068 71.9492 39.8549 119.645 32.6399C167.34 25.4249 214.753 83.7946 221.968 131.49C229.183 179.185 183.747 208.992 136.037 216.192Z" fill="white"/>
</g>
<g filter="url(#filter1_d_2040_489)">
<path d="M136.037 216.192C88.3419 223.407 34.4904 204.459 27.2753 156.764C20.0603 109.068 71.9492 39.8549 119.645 32.6399C167.34 25.4249 214.753 83.7946 221.968 131.49C229.183 179.185 183.747 208.992 136.037 216.192Z" fill="#F7F9FD"/>
<path d="M135.963 215.698L135.962 215.698C112.198 219.293 86.9152 216.366 66.6932 206.619C46.4821 196.878 31.3475 180.34 27.7697 156.689C24.1906 133.029 35.2755 103.936 53.2693 79.8207C71.2627 55.7056 96.0555 36.714 119.719 33.1343C143.337 29.5616 166.961 42.2226 185.624 61.8184C204.28 81.4066 217.884 107.832 221.474 131.565C225.051 155.213 215.588 174.427 199.271 188.65C182.94 202.885 159.75 212.108 135.963 215.698Z" stroke="#F7F9FD"/>
</g>
<rect x="98.0605" y="80.0898" width="64.484" height="107.366" fill="#D4D8DD"/>
<rect x="101.283" y="82.0234" width="58.0356" height="100.595" fill="white"/>
<g clip-path="url(#clip0_2040_489)">
<path d="M150.733 80.2812L142.593 79.9863L143.433 72.3516H119.854V80.2812H110.31V84.2811H151.857L150.733 80.2812Z" fill="#7D889B"/>
<rect x="121.001" y="81.5684" width="20.6444" height="0.737301" fill="white"/>
<circle cx="130.958" cy="76.7749" r="1.84325" fill="#7D889B"/>
<circle cx="130.959" cy="76.7734" r="1.4746" fill="white"/>
</g>
<path d="M109.688 102.965C109.669 102.946 109.646 102.931 109.621 102.92C109.596 102.91 109.569 102.904 109.542 102.904C109.515 102.904 109.488 102.91 109.463 102.92C109.437 102.931 109.415 102.946 109.395 102.965L108.38 103.978L107.365 102.963C107.346 102.944 107.323 102.928 107.298 102.918C107.273 102.908 107.246 102.902 107.219 102.902C107.192 102.902 107.165 102.908 107.14 102.918C107.115 102.928 107.092 102.944 107.073 102.963C107.053 102.982 107.038 103.005 107.028 103.03C107.017 103.055 107.012 103.082 107.012 103.109C107.012 103.136 107.017 103.163 107.028 103.189C107.038 103.214 107.053 103.236 107.073 103.256L108.088 104.271L107.073 105.286C107.053 105.305 107.038 105.328 107.028 105.353C107.017 105.378 107.012 105.405 107.012 105.432C107.012 105.459 107.017 105.486 107.028 105.511C107.038 105.537 107.053 105.559 107.073 105.579C107.092 105.598 107.115 105.613 107.14 105.623C107.165 105.634 107.192 105.639 107.219 105.639C107.246 105.639 107.273 105.634 107.298 105.623C107.323 105.613 107.346 105.598 107.365 105.579L108.38 104.563L109.395 105.579C109.415 105.598 109.437 105.613 109.463 105.623C109.488 105.634 109.515 105.639 109.542 105.639C109.569 105.639 109.596 105.634 109.621 105.623C109.646 105.613 109.669 105.598 109.688 105.579C109.707 105.559 109.723 105.537 109.733 105.511C109.743 105.486 109.749 105.459 109.749 105.432C109.749 105.405 109.743 105.378 109.733 105.353C109.723 105.328 109.707 105.305 109.688 105.286L108.673 104.271L109.688 103.256C109.767 103.177 109.767 103.044 109.688 102.965Z" fill="#B51F1F"/>
<rect x="105.476" y="101.369" width="5.80356" height="5.80356" rx="0.32242" stroke="#7D889B" stroke-width="0.64484"/>
<rect x="115.754" y="102.498" width="37.0783" height="1.28968" fill="#BDBDBD"/>
<rect x="115.754" y="104.756" width="19.6676" height="1.28968" fill="#BDBDBD"/>
<path d="M109.688 113.565C109.669 113.545 109.646 113.53 109.621 113.52C109.596 113.509 109.569 113.504 109.542 113.504C109.515 113.504 109.488 113.509 109.463 113.52C109.437 113.53 109.415 113.545 109.395 113.565L108.38 114.578L107.365 113.563C107.346 113.543 107.323 113.528 107.298 113.518C107.273 113.507 107.246 113.502 107.219 113.502C107.192 113.502 107.165 113.507 107.14 113.518C107.115 113.528 107.092 113.543 107.073 113.563C107.053 113.582 107.038 113.605 107.028 113.63C107.017 113.655 107.012 113.682 107.012 113.709C107.012 113.736 107.017 113.763 107.028 113.788C107.038 113.813 107.053 113.836 107.073 113.855L108.088 114.87L107.073 115.885C107.053 115.905 107.038 115.927 107.028 115.953C107.017 115.978 107.012 116.005 107.012 116.032C107.012 116.059 107.017 116.086 107.028 116.111C107.038 116.136 107.053 116.159 107.073 116.178C107.092 116.197 107.115 116.213 107.14 116.223C107.165 116.233 107.192 116.239 107.219 116.239C107.246 116.239 107.273 116.233 107.298 116.223C107.323 116.213 107.346 116.197 107.365 116.178L108.38 115.163L109.395 116.178C109.415 116.197 109.437 116.213 109.463 116.223C109.488 116.233 109.515 116.239 109.542 116.239C109.569 116.239 109.596 116.233 109.621 116.223C109.646 116.213 109.669 116.197 109.688 116.178C109.707 116.159 109.723 116.136 109.733 116.111C109.743 116.086 109.749 116.059 109.749 116.032C109.749 116.005 109.743 115.978 109.733 115.953C109.723 115.927 109.707 115.905 109.688 115.885L108.673 114.87L109.688 113.855C109.767 113.776 109.767 113.644 109.688 113.565Z" fill="#B51F1F"/>
<rect x="105.476" y="111.969" width="5.80356" height="5.80356" rx="0.32242" stroke="#7D889B" stroke-width="0.64484"/>
<rect x="115.754" y="113.098" width="37.0783" height="1.28968" fill="#BDBDBD"/>
<rect x="115.754" y="115.355" width="19.6676" height="1.28968" fill="#BDBDBD"/>
<path d="M109.688 124.164C109.669 124.145 109.646 124.13 109.621 124.119C109.596 124.109 109.569 124.104 109.542 124.104C109.515 124.104 109.488 124.109 109.463 124.119C109.437 124.13 109.415 124.145 109.395 124.164L108.38 125.177L107.365 124.162C107.346 124.143 107.323 124.128 107.298 124.117C107.273 124.107 107.246 124.102 107.219 124.102C107.192 124.102 107.165 124.107 107.14 124.117C107.115 124.128 107.092 124.143 107.073 124.162C107.053 124.181 107.038 124.204 107.028 124.229C107.017 124.254 107.012 124.281 107.012 124.309C107.012 124.336 107.017 124.363 107.028 124.388C107.038 124.413 107.053 124.436 107.073 124.455L108.088 125.47L107.073 126.485C107.053 126.504 107.038 126.527 107.028 126.552C107.017 126.577 107.012 126.604 107.012 126.631C107.012 126.659 107.017 126.686 107.028 126.711C107.038 126.736 107.053 126.759 107.073 126.778C107.092 126.797 107.115 126.812 107.14 126.823C107.165 126.833 107.192 126.838 107.219 126.838C107.246 126.838 107.273 126.833 107.298 126.823C107.323 126.812 107.346 126.797 107.365 126.778L108.38 125.763L109.395 126.778C109.415 126.797 109.437 126.812 109.463 126.823C109.488 126.833 109.515 126.838 109.542 126.838C109.569 126.838 109.596 126.833 109.621 126.823C109.646 126.812 109.669 126.797 109.688 126.778C109.707 126.759 109.723 126.736 109.733 126.711C109.743 126.686 109.749 126.659 109.749 126.631C109.749 126.604 109.743 126.577 109.733 126.552C109.723 126.527 109.707 126.504 109.688 126.485L108.673 125.47L109.688 124.455C109.767 124.376 109.767 124.243 109.688 124.164Z" fill="#B51F1F"/>
<rect x="105.476" y="122.57" width="5.80356" height="5.80356" rx="0.32242" stroke="#7D889B" stroke-width="0.64484"/>
<rect x="115.754" y="123.699" width="37.0783" height="1.28968" fill="#BDBDBD"/>
<rect x="115.754" y="125.957" width="19.6676" height="1.28968" fill="#BDBDBD"/>
<path d="M109.688 134.764C109.669 134.745 109.646 134.729 109.621 134.719C109.596 134.709 109.569 134.703 109.542 134.703C109.515 134.703 109.488 134.709 109.463 134.719C109.437 134.729 109.415 134.745 109.395 134.764L108.38 135.777L107.365 134.762C107.346 134.743 107.323 134.727 107.298 134.717C107.273 134.707 107.246 134.701 107.219 134.701C107.192 134.701 107.165 134.707 107.14 134.717C107.115 134.727 107.092 134.743 107.073 134.762C107.053 134.781 107.038 134.804 107.028 134.829C107.017 134.854 107.012 134.881 107.012 134.908C107.012 134.935 107.017 134.962 107.028 134.987C107.038 135.012 107.053 135.035 107.073 135.054L108.088 136.07L107.073 137.085C107.053 137.104 107.038 137.127 107.028 137.152C107.017 137.177 107.012 137.204 107.012 137.231C107.012 137.258 107.017 137.285 107.028 137.31C107.038 137.335 107.053 137.358 107.073 137.377C107.092 137.397 107.115 137.412 107.14 137.422C107.165 137.433 107.192 137.438 107.219 137.438C107.246 137.438 107.273 137.433 107.298 137.422C107.323 137.412 107.346 137.397 107.365 137.377L108.38 136.362L109.395 137.377C109.415 137.397 109.437 137.412 109.463 137.422C109.488 137.433 109.515 137.438 109.542 137.438C109.569 137.438 109.596 137.433 109.621 137.422C109.646 137.412 109.669 137.397 109.688 137.377C109.707 137.358 109.723 137.335 109.733 137.31C109.743 137.285 109.749 137.258 109.749 137.231C109.749 137.204 109.743 137.177 109.733 137.152C109.723 137.127 109.707 137.104 109.688 137.085L108.673 136.07L109.688 135.054C109.767 134.976 109.767 134.843 109.688 134.764Z" fill="#B51F1F"/>
<rect x="105.476" y="133.17" width="5.80356" height="5.80356" rx="0.32242" stroke="#7D889B" stroke-width="0.64484"/>
<rect x="115.754" y="134.299" width="37.0783" height="1.28968" fill="#BDBDBD"/>
<rect x="115.754" y="136.557" width="19.6676" height="1.28968" fill="#BDBDBD"/>
<path d="M109.688 145.363C109.669 145.344 109.646 145.329 109.621 145.319C109.596 145.308 109.569 145.303 109.542 145.303C109.515 145.303 109.488 145.308 109.463 145.319C109.437 145.329 109.415 145.344 109.395 145.363L108.38 146.376L107.365 145.361C107.346 145.342 107.323 145.327 107.298 145.317C107.273 145.306 107.246 145.301 107.219 145.301C107.192 145.301 107.165 145.306 107.14 145.317C107.115 145.327 107.092 145.342 107.073 145.361C107.053 145.381 107.038 145.403 107.028 145.429C107.017 145.454 107.012 145.481 107.012 145.508C107.012 145.535 107.017 145.562 107.028 145.587C107.038 145.612 107.053 145.635 107.073 145.654L108.088 146.669L107.073 147.684C107.053 147.703 107.038 147.726 107.028 147.751C107.017 147.777 107.012 147.803 107.012 147.831C107.012 147.858 107.017 147.885 107.028 147.91C107.038 147.935 107.053 147.958 107.073 147.977C107.092 147.996 107.115 148.011 107.14 148.022C107.165 148.032 107.192 148.038 107.219 148.038C107.246 148.038 107.273 148.032 107.298 148.022C107.323 148.011 107.346 147.996 107.365 147.977L108.38 146.962L109.395 147.977C109.415 147.996 109.437 148.011 109.463 148.022C109.488 148.032 109.515 148.038 109.542 148.038C109.569 148.038 109.596 148.032 109.621 148.022C109.646 148.011 109.669 147.996 109.688 147.977C109.707 147.958 109.723 147.935 109.733 147.91C109.743 147.885 109.749 147.858 109.749 147.831C109.749 147.803 109.743 147.777 109.733 147.751C109.723 147.726 109.707 147.703 109.688 147.684L108.673 146.669L109.688 145.654C109.767 145.575 109.767 145.442 109.688 145.363Z" fill="#B51F1F"/>
<rect x="105.476" y="143.77" width="5.80356" height="5.80356" rx="0.32242" stroke="#7D889B" stroke-width="0.64484"/>
<rect x="115.754" y="144.898" width="37.0783" height="1.28968" fill="#BDBDBD"/>
<rect x="115.754" y="147.156" width="19.6676" height="1.28968" fill="#BDBDBD"/>
<path d="M109.688 155.963C109.669 155.944 109.646 155.929 109.621 155.918C109.596 155.908 109.569 155.902 109.542 155.902C109.515 155.902 109.488 155.908 109.463 155.918C109.437 155.929 109.415 155.944 109.395 155.963L108.38 156.976L107.365 155.961C107.346 155.942 107.323 155.927 107.298 155.916C107.273 155.906 107.246 155.9 107.219 155.9C107.192 155.9 107.165 155.906 107.14 155.916C107.115 155.927 107.092 155.942 107.073 155.961C107.053 155.98 107.038 156.003 107.028 156.028C107.017 156.053 107.012 156.08 107.012 156.107C107.012 156.135 107.017 156.161 107.028 156.187C107.038 156.212 107.053 156.234 107.073 156.254L108.088 157.269L107.073 158.284C107.053 158.303 107.038 158.326 107.028 158.351C107.017 158.376 107.012 158.403 107.012 158.43C107.012 158.457 107.017 158.484 107.028 158.509C107.038 158.535 107.053 158.557 107.073 158.577C107.092 158.596 107.115 158.611 107.14 158.621C107.165 158.632 107.192 158.637 107.219 158.637C107.246 158.637 107.273 158.632 107.298 158.621C107.323 158.611 107.346 158.596 107.365 158.577L108.38 157.561L109.395 158.577C109.415 158.596 109.437 158.611 109.463 158.621C109.488 158.632 109.515 158.637 109.542 158.637C109.569 158.637 109.596 158.632 109.621 158.621C109.646 158.611 109.669 158.596 109.688 158.577C109.707 158.557 109.723 158.535 109.733 158.509C109.743 158.484 109.749 158.457 109.749 158.43C109.749 158.403 109.743 158.376 109.733 158.351C109.723 158.326 109.707 158.303 109.688 158.284L108.673 157.269L109.688 156.254C109.767 156.175 109.767 156.042 109.688 155.963Z" fill="#B51F1F"/>
<rect x="105.476" y="154.369" width="5.80356" height="5.80356" rx="0.32242" stroke="#7D889B" stroke-width="0.64484"/>
<rect x="115.754" y="155.498" width="37.0783" height="1.28968" fill="#BDBDBD"/>
<rect x="115.754" y="157.756" width="19.6676" height="1.28968" fill="#BDBDBD"/>
<path d="M109.688 166.567C109.669 166.547 109.646 166.532 109.621 166.522C109.596 166.511 109.569 166.506 109.542 166.506C109.515 166.506 109.488 166.511 109.463 166.522C109.437 166.532 109.415 166.547 109.395 166.567L108.38 167.58L107.365 166.565C107.346 166.545 107.323 166.53 107.298 166.52C107.273 166.509 107.246 166.504 107.219 166.504C107.192 166.504 107.165 166.509 107.14 166.52C107.115 166.53 107.092 166.545 107.073 166.565C107.053 166.584 107.038 166.607 107.028 166.632C107.017 166.657 107.012 166.684 107.012 166.711C107.012 166.738 107.017 166.765 107.028 166.79C107.038 166.815 107.053 166.838 107.073 166.857L108.088 167.872L107.073 168.887C107.053 168.907 107.038 168.929 107.028 168.955C107.017 168.98 107.012 169.007 107.012 169.034C107.012 169.061 107.017 169.088 107.028 169.113C107.038 169.138 107.053 169.161 107.073 169.18C107.092 169.199 107.115 169.215 107.14 169.225C107.165 169.235 107.192 169.241 107.219 169.241C107.246 169.241 107.273 169.235 107.298 169.225C107.323 169.215 107.346 169.199 107.365 169.18L108.38 168.165L109.395 169.18C109.415 169.199 109.437 169.215 109.463 169.225C109.488 169.235 109.515 169.241 109.542 169.241C109.569 169.241 109.596 169.235 109.621 169.225C109.646 169.215 109.669 169.199 109.688 169.18C109.707 169.161 109.723 169.138 109.733 169.113C109.743 169.088 109.749 169.061 109.749 169.034C109.749 169.007 109.743 168.98 109.733 168.955C109.723 168.929 109.707 168.907 109.688 168.887L108.673 167.872L109.688 166.857C109.767 166.778 109.767 166.645 109.688 166.567Z" fill="#B51F1F"/>
<rect x="105.476" y="164.971" width="5.80356" height="5.80356" rx="0.32242" stroke="#7D889B" stroke-width="0.64484"/>
<rect x="115.754" y="166.1" width="37.0783" height="1.28968" fill="#BDBDBD"/>
<rect x="115.754" y="168.357" width="19.6676" height="1.28968" fill="#BDBDBD"/>
<g filter="url(#filter2_d_2040_489)">
<ellipse cx="156.838" cy="173.47" rx="16.121" ry="15.9598" fill="white"/>
</g>
<path d="M157.141 182.674L155.734 181.394C150.74 176.865 147.443 173.868 147.443 170.212C147.443 167.216 149.79 164.879 152.777 164.879C154.464 164.879 156.084 165.664 157.141 166.896C158.198 165.664 159.817 164.879 161.504 164.879C164.491 164.879 166.838 167.216 166.838 170.212C166.838 173.868 163.541 176.865 158.547 181.394L157.141 182.674Z" fill="#B51F1F"/>
<path d="M52.4884 177.518C48.6378 173.175 45.1299 168.598 42.0604 163.843C38.9772 159.088 36.3325 154.155 34.1949 149.126C32.0572 144.097 30.4128 138.944 29.3577 133.737C28.3026 128.544 27.8367 123.296 28.0285 118.061C28.2204 112.827 29.0699 107.606 30.6732 102.467C32.2627 97.3284 34.606 92.2583 37.7576 87.3252C40.9093 82.3922 44.9517 77.8153 49.693 73.6085C54.4342 69.4017 59.8606 65.5923 65.794 62.2076C71.7274 58.823 78.1541 55.8494 84.896 53.3555C91.6379 50.8615 98.6812 48.8198 105.834 47.2851C112.987 45.7503 120.236 44.7363 127.416 44.2567C134.597 43.7771 141.695 43.8456 148.519 44.5033C155.343 45.1611 161.879 46.3944 167.95 48.258C174.02 50.1216 179.611 52.6155 184.544 55.7672C189.477 58.9189 193.739 62.8243 197.398 67.3051C201.056 71.786 204.085 76.8698 206.524 82.3647C208.963 87.8597 210.84 93.7931 212.169 99.9868C213.499 106.181 214.28 112.648 214.554 119.226C214.828 125.803 214.595 132.49 213.896 139.136C213.197 145.782 212.032 152.373 210.443 158.759" stroke="#B51F1F" stroke-width="4.57761" stroke-miterlimit="10" stroke-linecap="round" stroke-linejoin="round"/>
<path d="M201.401 177.519C199.308 182.986 196.65 187.814 193.521 192.053C190.392 196.292 186.792 199.942 182.799 203.044C178.807 206.146 174.435 208.696 169.775 210.731C165.102 212.77 160.142 214.294 154.958 215.346C149.774 216.399 144.395 216.974 138.873 217.13C133.351 217.287 127.722 216.99 122.056 216.309C116.39 215.628 110.67 214.552 105.019 213.126C99.3675 211.701 93.7544 209.917 88.3009 207.822" stroke="#B51F1F" stroke-width="4.57761" stroke-miterlimit="10" stroke-linecap="round" stroke-linejoin="round"/>
<circle cx="12.55" cy="12.55" r="12.55" transform="matrix(0.92284 -0.385183 -0.385183 -0.92284 9.87695 211.611)" fill="#BDBDBD"/>
<circle cx="3.13749" cy="3.13749" r="3.13749" transform="matrix(0.92284 -0.385183 -0.385183 -0.92284 29.6777 226.467)" fill="#BDBDBD"/>
<path d="M59.9443 215.914L54.8194 218.053L53.1227 213.988L49.735 215.402L51.4318 219.467L46.2895 221.613L47.689 224.966L52.8312 222.82L54.5352 226.902L57.9229 225.488L56.2189 221.406L61.3437 219.267L59.9443 215.914Z" fill="#BDBDBD"/>
<circle cx="12.55" cy="12.55" r="12.55" transform="matrix(-0.92284 0.385183 0.385183 0.92284 232.94 42.584)" fill="#BDBDBD"/>
<circle cx="3.13749" cy="3.13749" r="3.13749" transform="matrix(-0.92284 0.385183 0.385183 0.92284 213.139 27.7285)" fill="#BDBDBD"/>
<path d="M182.872 38.2814L187.997 36.1423L189.694 40.2075L193.082 38.7935L191.385 34.7284L196.527 32.582L195.128 29.2292L189.985 31.3755L188.281 27.293L184.894 28.7069L186.598 32.7894L181.473 34.9285L182.872 38.2814Z" fill="#BDBDBD"/>
<defs>
<filter id="filter0_dd_2040_489" x="20.5996" y="26.0312" width="208.127" height="197.646" filterUnits="userSpaceOnUse" color-interpolation-filters="sRGB">
<feFlood flood-opacity="0" result="BackgroundImageFix"/>
<feColorMatrix in="SourceAlpha" type="matrix" values="0 0 0 0 0 0 0 0 0 0 0 0 0 0 0 0 0 0 127 0" result="hardAlpha"/>
<feOffset dy="-2"/>
<feGaussianBlur stdDeviation="2"/>
<feColorMatrix type="matrix" values="0 0 0 0 0 0 0 0 0 0 0 0 0 0 0 0 0 0 0.08 0"/>
<feBlend mode="normal" in2="BackgroundImageFix" result="effect1_dropShadow_2040_489"/>
<feColorMatrix in="SourceAlpha" type="matrix" values="0 0 0 0 0 0 0 0 0 0 0 0 0 0 0 0 0 0 127 0" result="hardAlpha"/>
<feOffset/>
<feGaussianBlur stdDeviation="3"/>
<feColorMatrix type="matrix" values="0 0 0 0 0 0 0 0 0 0 0 0 0 0 0 0 0 0 0.02 0"/>
<feBlend mode="normal" in2="effect1_dropShadow_2040_489" result="effect2_dropShadow_2040_489"/>
<feBlend mode="normal" in="SourceGraphic" in2="effect2_dropShadow_2040_489" result="shape"/>
</filter>
<filter id="filter1_d_2040_489" x="25.5996" y="31.0312" width="204.127" height="193.646" filterUnits="userSpaceOnUse" color-interpolation-filters="sRGB">
<feFlood flood-opacity="0" result="BackgroundImageFix"/>
<feColorMatrix in="SourceAlpha" type="matrix" values="0 0 0 0 0 0 0 0 0 0 0 0 0 0 0 0 0 0 127 0" result="hardAlpha"/>
<feOffset dx="3" dy="3"/>
<feGaussianBlur stdDeviation="2"/>
<feComposite in2="hardAlpha" operator="out"/>
<feColorMatrix type="matrix" values="0 0 0 0 0 0 0 0 0 0 0 0 0 0 0 0 0 0 0.2 0"/>
<feBlend mode="normal" in2="BackgroundImageFix" result="effect1_dropShadow_2040_489"/>
<feBlend mode="normal" in="SourceGraphic" in2="effect1_dropShadow_2040_489" result="shape"/>
</filter>
<filter id="filter2_d_2040_489" x="136.717" y="157.51" width="40.2419" height="39.9199" filterUnits="userSpaceOnUse" color-interpolation-filters="sRGB">
<feFlood flood-opacity="0" result="BackgroundImageFix"/>
<feColorMatrix in="SourceAlpha" type="matrix" values="0 0 0 0 0 0 0 0 0 0 0 0 0 0 0 0 0 0 127 0" result="hardAlpha"/>
<feOffset dy="4"/>
<feGaussianBlur stdDeviation="2"/>
<feComposite in2="hardAlpha" operator="out"/>
<feColorMatrix type="matrix" values="0 0 0 0 0 0 0 0 0 0 0 0 0 0 0 0 0 0 0.25 0"/>
<feBlend mode="normal" in2="BackgroundImageFix" result="effect1_dropShadow_2040_489"/>
<feBlend mode="normal" in="SourceGraphic" in2="effect1_dropShadow_2040_489" result="shape"/>
</filter>
<clipPath id="clip0_2040_489">
<rect width="41.5469" height="11.9295" fill="white" transform="translate(110.311 72.3516)"/>
</clipPath>
</defs>
</svg>
