<svg width="19" height="14" viewBox="0 0 19 14" fill="none" xmlns="http://www.w3.org/2000/svg">
<path d="M9.45117 3.93477C8.78818 3.93477 8.15234 4.211 7.68353 4.70269C7.21472 5.19439 6.95135 5.86128 6.95135 6.55664C6.95135 7.25201 7.21472 7.91889 7.68353 8.41059C8.15234 8.90228 8.78818 9.17852 9.45117 9.17852C10.1142 9.17852 10.75 8.90228 11.2188 8.41059C11.6876 7.91889 11.951 7.25201 11.951 6.55664C11.951 5.86128 11.6876 5.19439 11.2188 4.70269C10.75 4.211 10.1142 3.93477 9.45117 3.93477ZM9.45117 10.9264C8.34618 10.9264 7.28645 10.466 6.5051 9.64655C5.72376 8.82706 5.2848 7.71558 5.2848 6.55664C5.2848 5.3977 5.72376 4.28623 6.5051 3.46673C7.28645 2.64724 8.34618 2.18685 9.45117 2.18685C10.5562 2.18685 11.6159 2.64724 12.3972 3.46673C13.1786 4.28623 13.6175 5.3977 13.6175 6.55664C13.6175 7.71558 13.1786 8.82706 12.3972 9.64655C11.6159 10.466 10.5562 10.9264 9.45117 10.9264ZM9.45117 0.00195312C5.2848 0.00195312 1.72672 2.71996 0.285156 6.55664C1.72672 10.3933 5.2848 13.1113 9.45117 13.1113C13.6175 13.1113 17.1756 10.3933 18.6172 6.55664C17.1756 2.71996 13.6175 0.00195312 9.45117 0.00195312Z" fill="#BDBDBD"/>
</svg>
