<svg width="19" height="16" viewBox="0 0 19 16" fill="none" xmlns="http://www.w3.org/2000/svg">
<path d="M9.6915 5L12.3332 7.63333V7.5C12.3332 6.83696 12.0698 6.20107 11.6009 5.73223C11.1321 5.26339 10.4962 5 9.83317 5H9.6915ZM6.10817 5.66667L7.39984 6.95833C7.35817 7.13333 7.33317 7.30833 7.33317 7.5C7.33317 8.16304 7.59656 8.79893 8.0654 9.26777C8.53424 9.73661 9.17013 10 9.83317 10C10.0165 10 10.1998 9.975 10.3748 9.93333L11.6665 11.225C11.1082 11.5 10.4915 11.6667 9.83317 11.6667C8.7281 11.6667 7.66829 11.2277 6.88689 10.4463C6.10549 9.66488 5.6665 8.60507 5.6665 7.5C5.6665 6.84167 5.83317 6.225 6.10817 5.66667ZM1.49984 1.05833L3.39984 2.95833L3.77484 3.33333C2.39984 4.41667 1.3165 5.83333 0.666504 7.5C2.10817 11.1583 5.6665 13.75 9.83317 13.75C11.1248 13.75 12.3582 13.5 13.4832 13.05L13.8415 13.4L16.2748 15.8333L17.3332 14.775L2.55817 0M9.83317 3.33333C10.9382 3.33333 11.998 3.77232 12.7794 4.55372C13.5609 5.33512 13.9998 6.39493 13.9998 7.5C13.9998 8.03333 13.8915 8.55 13.6998 9.01667L16.1415 11.4583C17.3915 10.4167 18.3915 9.05 18.9998 7.5C17.5582 3.84167 13.9998 1.25 9.83317 1.25C8.6665 1.25 7.54984 1.45833 6.49984 1.83333L8.30817 3.625C8.78317 3.44167 9.2915 3.33333 9.83317 3.33333Z" fill="#BDBDBD"/>
</svg>
