<svg width="413" height="455" viewBox="0 0 413 455" fill="none" xmlns="http://www.w3.org/2000/svg">
<circle cx="211.492" cy="244.834" r="195.351" fill="#F7F9FD"/>
<path d="M16.1396 244.832C16.1396 296.643 36.7212 346.331 73.3567 382.967C109.992 419.602 159.681 440.184 211.491 440.184C263.301 440.184 312.99 419.602 349.625 382.967C386.261 346.331 406.842 296.643 406.842 244.832C328.973 267.57 280.233 200.372 211.491 244.832C150.27 285.395 90.7903 232.425 16.1396 244.832Z" fill="#D4D8DD"/>
<path d="M120.081 262.086H54.6025L48.6601 305.252C48.8844 304.505 49.6692 303.496 51.0146 302.225C52.3601 300.954 54.2288 299.684 56.6207 298.413C59.0873 297.068 62.1146 295.984 65.7024 295.162C69.365 294.265 73.5882 293.816 78.3721 293.816C93.3214 293.816 104.683 298.675 112.457 308.392C120.305 318.034 124.229 330.666 124.229 346.288C124.229 358.771 122.062 369.311 117.726 377.906C113.466 386.502 107.15 393.005 98.778 397.415C90.4063 401.751 79.9791 403.918 67.4964 403.918C57.3308 403.918 48.6975 402.423 41.5965 399.434C34.5703 396.369 28.8522 392.333 24.4421 387.325C20.1068 382.242 16.93 376.636 14.9119 370.507C12.8937 364.303 11.8846 358.024 11.8846 351.67C11.8846 351.521 11.8846 351.446 11.8846 351.446C11.8846 351.371 11.8846 351.297 11.8846 351.222H46.3056C46.3056 351.297 46.3056 351.371 46.3056 351.446C46.3056 351.446 46.3056 351.521 46.3056 351.67C46.6793 359.668 48.548 365.872 51.9116 370.282C55.35 374.692 60.7318 376.897 68.057 376.897C72.766 376.897 76.6902 375.814 79.8296 373.646C83.0437 371.478 85.4356 368.189 87.0053 363.779C88.575 359.294 89.3599 353.726 89.3599 347.073C89.3599 338.104 87.7902 331.152 84.6508 326.219C81.5114 321.211 76.466 318.707 69.5145 318.707C65.4034 318.707 61.7782 319.492 58.6388 321.061C55.5742 322.631 53.0328 324.574 51.0146 326.892C49.0712 329.209 47.6884 331.489 46.8662 333.731L13.7906 325.098L26.6845 235.85H120.081V262.086ZM204.127 403.918C193.588 403.918 184.618 401.639 177.219 397.079C169.893 392.52 163.914 386.316 159.279 378.467C154.72 370.544 151.393 361.462 149.301 351.222C147.208 340.981 146.161 330.218 146.161 318.931C146.161 307.644 147.208 296.881 149.301 286.64C151.393 276.325 154.72 267.169 159.279 259.171C163.914 251.173 169.893 244.894 177.219 240.335C184.618 235.7 193.588 233.383 204.127 233.383C214.667 233.383 223.599 235.7 230.924 240.335C238.324 244.894 244.304 251.173 248.864 259.171C253.498 267.169 256.861 276.325 258.954 286.64C261.047 296.881 262.094 307.644 262.094 318.931C262.094 330.218 261.047 340.981 258.954 351.222C256.861 361.462 253.498 370.544 248.864 378.467C244.304 386.316 238.324 392.52 230.924 397.079C223.599 401.639 214.667 403.918 204.127 403.918ZM204.127 376.897C209.135 376.897 213.321 374.991 216.685 371.179C220.123 367.292 222.702 361.088 224.421 352.567C226.14 344.046 227 332.834 227 318.931C227 304.953 226.14 293.741 224.421 285.295C222.702 276.774 220.123 270.57 216.685 266.683C213.321 262.796 209.135 260.853 204.127 260.853C199.194 260.853 195.008 262.796 191.57 266.683C188.132 270.57 185.553 276.774 183.834 285.295C182.114 293.741 181.255 304.953 181.255 318.931C181.255 332.909 182.114 344.158 183.834 352.679C185.553 361.126 188.132 367.292 191.57 371.179C195.008 374.991 199.194 376.897 204.127 376.897ZM366.07 313.998C372.498 314.222 378.067 316.053 382.776 319.492C387.559 322.93 391.185 327.49 393.651 333.17C396.193 338.851 397.463 345.279 397.463 352.455C397.463 361.649 395.483 370.17 391.521 378.019C387.559 385.792 381.393 392.071 373.021 396.855C364.724 401.564 353.998 403.918 340.843 403.918C329.631 403.918 320.287 402.461 312.812 399.546C305.338 396.556 299.395 392.482 294.985 387.325C290.65 382.167 287.548 376.262 285.679 369.61C283.885 362.882 282.988 355.707 282.988 348.082C282.988 348.008 282.988 347.933 282.988 347.858C282.988 347.783 282.988 347.709 282.988 347.634H317.746C317.746 347.709 317.746 347.783 317.746 347.858C317.746 347.933 317.746 348.008 317.746 348.082C317.746 355.632 318.68 361.5 320.549 365.685C322.492 369.871 325.22 372.786 328.734 374.431C332.247 376.075 336.433 376.897 341.291 376.897C347.645 376.897 352.765 374.917 356.652 370.955C360.613 366.993 362.594 360.528 362.594 351.558C362.594 347.746 362.145 344.345 361.249 341.355C360.426 338.365 359.081 335.824 357.212 333.731C355.344 331.638 352.802 330.068 349.588 329.022C346.374 327.901 342.412 327.34 337.703 327.34H331.873V303.01H337.703C342.338 303.01 346.224 302.412 349.364 301.216C352.578 299.945 355.157 298.264 357.1 296.171C359.043 294.003 360.426 291.574 361.249 288.883C362.145 286.117 362.594 283.277 362.594 280.362C362.594 273.41 360.651 268.365 356.764 265.225C352.877 262.086 347.906 260.516 341.852 260.516C334.9 260.516 329.145 262.422 324.585 266.234C320.026 270.047 317.746 276.961 317.746 286.977H282.988C282.988 279.801 284.072 272.999 286.24 266.571C288.408 260.068 291.809 254.35 296.443 249.416C301.077 244.408 307.094 240.484 314.494 237.644C321.894 234.803 330.789 233.383 341.179 233.383C354.334 233.383 365.061 235.551 373.358 239.886C381.654 244.221 387.746 249.827 391.633 256.704C395.52 263.581 397.463 270.869 397.463 278.568C397.463 284.846 396.193 290.639 393.651 295.946C391.185 301.253 387.559 305.514 382.776 308.728C378.067 311.942 372.498 313.699 366.07 313.998Z" fill="#B51F1F"/>
<path d="M199.368 82.7578L199.7 73.0621L193.745 71.1141C193.502 67.801 192.948 64.5323 192.159 61.3741L197.206 57.6552L193.775 48.5499L187.532 49.0516C186.042 46.1075 184.293 43.3036 182.338 40.6767L185.57 35.2828L178.921 28.1919L173.343 31.0474C170.827 28.915 168.178 26.9744 165.344 25.2699L166.245 19.0791L157.39 15.0577L153.332 19.8096C150.24 18.8061 147.038 18.0534 143.725 17.5591L142.219 11.4863L132.509 11.1543L130.59 17.109C127.248 17.382 124.009 17.9059 120.85 18.6954L117.102 13.6778L107.997 17.0794L108.498 23.3219C105.554 24.8345 102.75 26.5833 100.124 28.5387L94.7518 25.3068L87.6313 31.9255L90.4868 37.5334C88.3544 40.02 86.4138 42.6985 84.7314 45.5319L78.5406 44.6022L74.4971 53.4567L79.2785 57.5151C78.275 60.6068 77.5002 63.8313 77.028 67.1222L70.9331 68.657L70.6011 78.3453L76.5779 80.2933C76.8214 83.6285 77.3748 86.8752 78.1643 90.0259L73.1172 93.7448L76.5484 102.85L82.7908 102.348C84.2813 105.293 86.0301 108.096 87.9854 110.723L84.7535 116.117L91.4018 123.208L96.9802 120.353C99.4668 122.485 102.145 124.426 104.979 126.138L104.049 132.328L112.904 136.35L116.984 131.598C120.076 132.601 123.278 133.354 126.591 133.848L128.096 139.921L137.822 140.253L139.74 134.298C143.075 134.025 146.322 133.502 149.473 132.712L153.192 137.73L162.297 134.328L161.817 128.086C164.761 126.573 167.536 124.824 170.192 122.861L175.564 126.093L182.684 119.475L179.829 113.867C181.961 111.38 183.902 108.702 185.584 105.868L191.775 106.798L195.819 97.9433L191.037 93.885C192.041 90.7933 192.816 87.5909 193.288 84.2778L199.368 82.7578ZM133.844 114.169C112.608 113.439 95.984 95.6337 96.7071 74.3977C97.4376 53.1394 115.243 36.5077 136.479 37.2382C157.715 37.9687 174.339 55.7737 173.616 77.0319C172.885 98.268 155.081 114.9 133.844 114.169Z" fill="#D4D8DD"/>
<path d="M235.893 39.8364L238.335 37.5564L237.361 35.6305C238.106 34.7598 238.771 33.8301 239.346 32.8709L241.486 33.1955L242.873 30.1407L241.228 28.7387C241.582 27.6614 241.84 26.5473 242.002 25.4331L244.105 24.9092L244.216 21.5592L242.157 20.8951C242.069 19.7588 241.892 18.6446 241.619 17.5378L243.353 16.2465L242.172 13.1105L240.018 13.2655C239.508 12.2694 238.911 11.3027 238.224 10.373L239.339 8.52832L237.051 6.07857L235.133 7.05995C234.255 6.31469 233.332 5.65061 232.373 5.07506L232.683 2.93522L229.636 1.54063L228.234 3.1861C227.149 2.8393 226.035 2.58104 224.921 2.41871L224.397 0.323138L221.047 0.205078L220.375 2.27113C219.246 2.35968 218.125 2.53677 217.018 2.81716L215.734 1.08315L212.591 2.25637L212.768 4.41097C211.772 4.92011 210.79 5.51779 209.875 6.20401L208.016 5.08982L205.573 7.36248L206.555 9.29571C205.802 10.1664 205.145 11.0961 204.57 12.0554L202.43 11.7307L201.043 14.7855L202.688 16.1875C202.334 17.2648 202.076 18.379 201.914 19.4932L199.811 20.0171L199.7 23.367L201.759 24.0311C201.847 25.16 202.024 26.2816 202.297 27.3884L200.563 28.6723L201.744 31.8083L203.898 31.646C204.408 32.6421 205.005 33.6087 205.692 34.5385L204.577 36.3831L206.865 38.8329L208.783 37.8515C209.661 38.5968 210.584 39.2609 211.543 39.8364L211.226 41.9689L214.273 43.3635L215.675 41.7254C216.76 42.0722 217.866 42.323 218.988 42.4928L219.512 44.5883L222.862 44.7064L223.533 42.6403C224.662 42.5518 225.784 42.3747 226.891 42.0943L228.175 43.8283L231.318 42.6551L231.141 40.5005C232.137 39.9914 233.111 39.4011 234.033 38.7075L235.893 39.8364ZM218.464 25.7208C216.664 23.795 216.767 20.7697 218.693 18.9766C220.619 17.1762 223.644 17.2795 225.444 19.2054C227.245 21.1312 227.142 24.1565 225.208 25.957C223.29 27.7574 220.265 27.6541 218.464 25.7208Z" fill="#D4D8DD"/>
<path d="M284.732 137.207L277.102 131.938C277.102 131.931 277.102 131.923 277.095 131.923C276.342 129.149 275.301 126.485 274.025 123.976L275.98 116.303L264.912 104.452L257.12 105.876C254.707 104.437 252.117 103.213 249.409 102.276C249.402 102.276 249.395 102.276 249.387 102.268L244.65 94.2917L228.446 93.7383L223.178 101.361C223.171 101.361 223.156 101.368 223.148 101.368C220.381 102.121 217.71 103.161 215.209 104.43L207.542 102.475L195.692 113.543L197.116 121.32C197.116 121.32 197.116 121.327 197.109 121.327C195.64 123.77 194.445 126.36 193.508 129.068L185.531 133.805L184.978 150.016L192.615 155.292C193.368 158.081 194.379 160.745 195.677 163.276L193.729 170.928L204.797 182.778L212.538 181.361C214.98 182.807 217.577 184.025 220.322 184.969H220.33L225.059 192.931L241.263 193.484L246.532 185.862C249.336 185.109 252.007 184.069 254.538 182.793L262.175 184.741L274.025 173.672L272.601 165.895C274.069 163.453 275.265 160.863 276.202 158.147L284.178 153.41L284.732 137.207ZM234.224 161.844C224.152 161.497 216.279 153.041 216.626 142.992C216.972 132.92 225.399 125.046 235.478 125.393C245.55 125.74 253.423 134.167 253.077 144.246C252.73 154.288 244.303 162.191 234.224 161.844Z" fill="#D4D8DD"/>
<path d="M239.327 48.7573C239.24 45.2734 239.809 41.9511 240.903 38.8803C241.391 37.5207 243.17 37.1814 244.147 38.2424L249.385 43.912L245.221 47.7624C244.875 48.0811 244.857 48.6208 245.174 48.9595C245.493 49.3061 246.033 49.3238 246.372 49.0065L250.535 45.1561L252.916 47.7285L248.753 51.5789C248.407 51.8977 248.389 52.4374 248.706 52.776C249.025 53.1226 249.565 53.1403 249.903 52.823L254.058 48.974L255.896 50.9601L251.741 54.809C251.394 55.1278 251.377 55.6675 251.694 56.0061C252.013 56.3528 252.552 56.3704 252.891 56.0531L257.046 52.2042L259.201 54.5288C260.742 56.1973 262.781 57.3793 265.03 57.7223C268.052 58.1812 271.014 57.2643 273.212 55.2312L292.122 37.761L290.972 36.5169L277.668 48.8102L269.739 40.2281C269.918 40.2122 270.087 40.1403 270.22 40.0089L274.997 35.5849C275.343 35.2661 275.361 34.7264 275.044 34.3878C274.725 34.0412 274.185 34.0235 273.847 34.3408L269.069 38.7648C268.927 38.8897 268.849 39.0524 268.816 39.2318L266.751 36.998C266.921 36.9755 267.091 36.9117 267.232 36.7788L272.009 32.3548C272.356 32.036 272.373 31.4963 272.056 31.1577C271.737 30.8111 271.197 30.7934 270.859 31.1107L266.082 35.5347C265.947 35.6581 265.861 35.8223 265.826 35.9937L263.228 33.18C263.397 33.1575 263.566 33.0857 263.7 32.9622L268.477 28.5382C268.824 28.2195 268.842 27.6798 268.524 27.3411C268.206 26.9945 267.666 26.9769 267.327 27.2942L262.55 31.7182C262.416 31.8416 262.33 32.0057 262.293 32.1692L255.155 24.4423C254.744 23.9969 254.897 23.2923 255.446 23.0441C259.58 21.1717 264.257 20.2903 269.145 20.7079C283.247 21.9137 294.238 33.9105 294.222 48.0609C294.221 51.4699 293.597 54.7196 292.465 57.7148C292.994 58.1305 293.5 58.6 293.972 59.1087L352.597 122.43C357.205 127.405 357.474 135.165 352.923 140.2C347.717 145.948 338.844 145.899 333.699 140.336L274.879 76.8018C274.275 76.1522 273.75 75.4466 273.305 74.7186C270.325 75.4488 267.159 75.693 263.903 75.351C250.261 73.9543 239.65 62.4582 239.327 48.7573Z" fill="#D4D8DD"/>
</svg>
