<svg width="412" height="432" viewBox="0 0 412 432" fill="none" xmlns="http://www.w3.org/2000/svg">
<circle cx="213.653" cy="220.059" r="197.405" fill="#F7F9FD"/>
<path d="M16.2468 220.058C16.2468 272.413 37.0447 322.624 74.0654 359.644C111.086 396.665 161.297 417.463 213.652 417.463C266.007 417.463 316.218 396.665 353.239 359.644C390.259 322.624 411.057 272.413 411.057 220.058C332.37 243.035 283.117 175.13 213.652 220.058C151.787 261.047 91.6823 207.52 16.2468 220.058Z" fill="#D4D8DD"/>
<path d="M194.849 149.51V172.104H314.276V188.737" stroke="#B51F1F" stroke-width="1.3213" stroke-linejoin="round" stroke-dasharray="3.3 3.3"/>
<circle cx="314.409" cy="189.282" r="3.30326" fill="#B51F1F"/>
<path fill-rule="evenodd" clip-rule="evenodd" d="M312.555 187.561C312.617 187.499 312.701 187.464 312.789 187.464C312.876 187.464 312.96 187.499 313.022 187.561L314.275 188.814L315.528 187.561C315.559 187.529 315.595 187.504 315.635 187.487C315.676 187.469 315.719 187.46 315.763 187.46C315.807 187.46 315.85 187.468 315.891 187.485C315.932 187.501 315.968 187.526 315.999 187.557C316.03 187.588 316.055 187.625 316.072 187.665C316.088 187.706 316.097 187.749 316.096 187.793C316.096 187.837 316.087 187.88 316.069 187.921C316.052 187.961 316.027 187.997 315.995 188.028L314.742 189.281L315.995 190.534C316.056 190.596 316.089 190.679 316.088 190.766C316.087 190.853 316.053 190.936 315.991 190.997C315.93 191.058 315.847 191.093 315.761 191.094C315.674 191.094 315.591 191.061 315.528 191.001L314.275 189.748L313.022 191.001C312.96 191.061 312.877 191.094 312.79 191.094C312.703 191.093 312.621 191.058 312.559 190.997C312.498 190.936 312.463 190.853 312.463 190.766C312.462 190.679 312.495 190.596 312.555 190.534L313.808 189.281L312.555 188.028C312.493 187.966 312.459 187.882 312.459 187.794C312.459 187.707 312.493 187.623 312.555 187.561Z" fill="white"/>
<path d="M181.977 163.291V178.522H62.5504V193.669" stroke="#B51F1F" stroke-width="1.3213" stroke-linejoin="round" stroke-dasharray="3.3 3.3"/>
<circle cx="62.6834" cy="193.252" r="3.30326" fill="#B51F1F"/>
<path fill-rule="evenodd" clip-rule="evenodd" d="M60.8301 191.532C60.8921 191.471 60.9761 191.436 61.0637 191.436C61.1512 191.436 61.2352 191.471 61.2972 191.532L62.5501 192.785L63.803 191.532C63.8335 191.501 63.87 191.476 63.9103 191.458C63.9506 191.441 63.9939 191.432 64.0378 191.432C64.0816 191.431 64.1251 191.44 64.1657 191.456C64.2063 191.473 64.2432 191.497 64.2742 191.528C64.3052 191.559 64.3298 191.596 64.3464 191.637C64.363 191.677 64.3713 191.721 64.371 191.765C64.3706 191.809 64.3615 191.852 64.3442 191.892C64.3268 191.933 64.3017 191.969 64.2701 192L63.0172 193.252L64.2701 194.505C64.3303 194.568 64.3636 194.651 64.3628 194.738C64.3621 194.824 64.3274 194.907 64.2661 194.968C64.2049 195.03 64.122 195.064 64.0354 195.065C63.9488 195.066 63.8653 195.033 63.803 194.973L62.5501 193.72L61.2972 194.973C61.2349 195.033 61.1515 195.066 61.0648 195.065C60.9782 195.064 60.8954 195.03 60.8341 194.968C60.7729 194.907 60.7382 194.824 60.7374 194.738C60.7366 194.651 60.7699 194.568 60.8301 194.505L62.083 193.252L60.8301 192C60.7682 191.938 60.7334 191.854 60.7334 191.766C60.7334 191.678 60.7682 191.594 60.8301 191.532Z" fill="white"/>
<path d="M137.332 32.2811L137.341 33.4081L138.394 33.8103C143.342 35.7005 146.858 40.4909 146.858 46.0881C146.858 53.3534 140.967 59.2387 133.708 59.2387H67.2739C56.6602 59.2387 48.0497 50.6346 48.0497 40.0146C48.0497 29.8183 55.9897 21.4808 66.0226 20.8436L67.2617 20.7649L67.5304 19.5528C69.7748 9.42996 78.8003 1.85671 89.5974 1.85671C98.5184 1.85671 106.24 7.03291 109.914 14.5531L110.59 15.9362L112.017 15.3593C114.15 14.4971 116.476 14.0178 118.913 14.0178C129.036 14.0178 137.247 22.1772 137.332 32.2811Z" stroke="#D4D8DD" stroke-width="3.30326"/>
<path d="M359.616 47.3124L359.625 48.4405L360.68 48.842C364.576 50.3256 367.336 54.091 367.336 58.4993C367.336 64.2057 362.709 68.833 357.002 68.833H303.202C294.775 68.833 287.944 62.0023 287.944 53.5749C287.944 45.4883 294.247 38.8672 302.206 38.3552L303.445 38.2755L303.713 37.0635C305.494 29.0072 312.681 22.9846 321.272 22.9846C328.378 22.9846 334.518 27.1014 337.449 33.0926L338.125 34.475L339.552 33.898C341.24 33.2153 343.083 32.8333 345.017 32.8333C353.039 32.8333 359.548 39.3037 359.616 47.3124Z" stroke="#D4D8DD" stroke-width="3.30326"/>
<path opacity="0.2" d="M305.433 110.776C305.26 90.4609 288.747 74.0466 268.394 74.0466H253.093C245.358 60.637 230.879 51.6045 214.286 51.6045H184.505V62.9554C177.63 69.0945 172.653 77.3233 170.588 86.6464C150.477 87.9385 134.563 104.65 134.563 125.089C134.563 146.368 151.812 163.617 173.092 163.617H295.702C310.787 163.617 323.016 151.389 323.016 136.303C323.016 124.643 315.714 114.696 305.433 110.776Z" fill="#D4D8DD"/>
<path opacity="0.9" d="M282.283 108.946C282.108 87.9172 265.018 70.9347 243.948 70.9347C238.876 70.9347 234.034 71.9329 229.596 73.7269C222.069 58.3227 206.247 47.707 187.956 47.707C165.821 47.707 147.328 63.2326 142.728 83.9784C121.915 85.3003 105.445 102.593 105.445 123.743C105.445 145.771 123.304 163.616 145.318 163.616H272.207C287.814 163.616 300.48 150.964 300.48 135.344C300.48 123.298 292.912 113.006 282.283 108.946Z" fill="#D4D8DD"/>
<path d="M121.281 237.632H55.1143L49.1094 281.252C49.336 280.497 50.1291 279.477 51.4887 278.193C52.8483 276.909 54.7366 275.625 57.1537 274.341C59.6462 272.981 62.7053 271.886 66.3309 271.055C70.032 270.149 74.2996 269.696 79.1337 269.696C94.2403 269.696 105.721 274.605 113.577 284.424C121.508 294.168 125.473 306.933 125.473 322.72C125.473 335.334 123.283 345.984 118.902 354.67C114.596 363.356 108.214 369.928 99.7542 374.384C91.2945 378.765 80.7577 380.956 68.1437 380.956C57.8712 380.956 49.1472 379.445 41.9716 376.424C34.8715 373.327 29.0932 369.248 24.6368 364.187C20.2558 359.051 17.0457 353.386 15.0063 347.192C12.9669 340.923 11.9472 334.578 11.9472 328.158C11.9472 328.007 11.9472 327.931 11.9472 327.931C11.9472 327.856 11.9472 327.78 11.9472 327.705H46.7301C46.7301 327.78 46.7301 327.856 46.7301 327.931C46.7301 327.931 46.7301 328.007 46.7301 328.158C47.1078 336.24 48.9961 342.509 52.3951 346.966C55.8696 351.422 61.308 353.65 68.7102 353.65C73.4688 353.65 77.4342 352.555 80.6066 350.365C83.8545 348.174 86.2716 344.851 87.8578 340.394C89.444 335.862 90.2371 330.235 90.2371 323.513C90.2371 314.449 88.6509 307.424 85.4785 302.439C82.3061 297.378 77.2076 294.848 70.1831 294.848C66.0288 294.848 62.3654 295.641 59.1931 297.227C56.0962 298.813 53.5281 300.777 51.4887 303.119C49.5248 305.46 48.1275 307.764 47.2966 310.03L13.8733 301.306L26.9027 211.12H121.281V237.632ZM206.211 380.956C195.561 380.956 186.497 378.652 179.019 374.044C171.617 369.437 165.575 363.168 160.892 355.237C156.284 347.23 152.923 338.053 150.808 327.705C148.693 317.357 147.636 306.48 147.636 295.075C147.636 283.669 148.693 272.792 150.808 262.444C152.923 252.021 156.284 242.768 160.892 234.686C165.575 226.604 171.617 220.259 179.019 215.652C186.497 210.969 195.561 208.627 206.211 208.627C216.861 208.627 225.888 210.969 233.29 215.652C240.768 220.259 246.81 226.604 251.418 234.686C256.101 242.768 259.5 252.021 261.615 262.444C263.73 272.792 264.787 283.669 264.787 295.075C264.787 306.48 263.73 317.357 261.615 327.705C259.5 338.053 256.101 347.23 251.418 355.237C246.81 363.168 240.768 369.437 233.29 374.044C225.888 378.652 216.861 380.956 206.211 380.956ZM206.211 353.65C211.272 353.65 215.502 351.724 218.901 347.872C222.375 343.944 224.981 337.675 226.719 329.064C228.456 320.454 229.324 309.124 229.324 295.075C229.324 280.95 228.456 269.62 226.719 261.085C224.981 252.474 222.375 246.205 218.901 242.277C215.502 238.349 211.272 236.386 206.211 236.386C201.226 236.386 196.996 238.349 193.522 242.277C190.047 246.205 187.441 252.474 185.704 261.085C183.967 269.62 183.098 280.95 183.098 295.075C183.098 309.199 183.967 320.567 185.704 329.178C187.441 337.713 190.047 343.944 193.522 347.872C196.996 351.724 201.226 353.65 206.211 353.65ZM341.418 380.956C330.768 380.956 321.704 378.652 314.226 374.044C306.824 369.437 300.781 363.168 296.098 355.237C291.491 347.23 288.13 338.053 286.015 327.705C283.9 317.357 282.842 306.48 282.842 295.075C282.842 283.669 283.9 272.792 286.015 262.444C288.13 252.021 291.491 242.768 296.098 234.686C300.781 226.604 306.824 220.259 314.226 215.652C321.704 210.969 330.768 208.627 341.418 208.627C352.068 208.627 361.095 210.969 368.497 215.652C375.974 220.259 382.017 226.604 386.625 234.686C391.308 242.768 394.707 252.021 396.822 262.444C398.936 272.792 399.994 283.669 399.994 295.075C399.994 306.48 398.936 317.357 396.822 327.705C394.707 338.053 391.308 347.23 386.625 355.237C382.017 363.168 375.974 369.437 368.497 374.044C361.095 378.652 352.068 380.956 341.418 380.956ZM341.418 353.65C346.479 353.65 350.709 351.724 354.108 347.872C357.582 343.944 360.188 337.675 361.925 329.064C363.663 320.454 364.531 309.124 364.531 295.075C364.531 280.95 363.663 269.62 361.925 261.085C360.188 252.474 357.582 246.205 354.108 242.277C350.709 238.349 346.479 236.386 341.418 236.386C336.433 236.386 332.203 238.349 328.729 242.277C325.254 246.205 322.648 252.474 320.911 261.085C319.174 269.62 318.305 280.95 318.305 295.075C318.305 309.199 319.174 320.567 320.911 329.178C322.648 337.713 325.254 343.944 328.729 347.872C332.203 351.724 336.433 353.65 341.418 353.65Z" fill="#B51F1F"/>
</svg>
