<svg width="28" height="28" viewBox="0 0 28 28" fill="none" xmlns="http://www.w3.org/2000/svg">
<path d="M9 10C9.82843 10 10.5 9.32843 10.5 8.5C10.5 8.32468 10.4699 8.15639 10.4146 8H23V10H9Z" fill="black"/>
<path d="M7.58535 8C7.53008 8.15639 7.5 8.32468 7.5 8.5C7.5 9.32843 8.17157 10 9 10H5V8H7.58535Z" fill="black"/>
<path fill-rule="evenodd" clip-rule="evenodd" d="M11.5 8.5C11.5 9.88071 10.3807 11 9 11C7.61929 11 6.5 9.88071 6.5 8.5C6.5 7.11929 7.61929 6 9 6C10.3807 6 11.5 7.11929 11.5 8.5ZM9 10C9.82843 10 10.5 9.32843 10.5 8.5C10.5 7.67157 9.82843 7 9 7C8.17157 7 7.5 7.67157 7.5 8.5C7.5 9.32843 8.17157 10 9 10Z" fill="black"/>
<path d="M12 20C12.8284 20 13.5 19.3284 13.5 18.5C13.5 18.3247 13.4699 18.1564 13.4146 18H23V20H12Z" fill="black"/>
<path d="M10.5854 18C10.5301 18.1564 10.5 18.3247 10.5 18.5C10.5 19.3284 11.1716 20 12 20H5V18H10.5854Z" fill="black"/>
<path fill-rule="evenodd" clip-rule="evenodd" d="M14.5 18.5C14.5 19.8807 13.3807 21 12 21C10.6193 21 9.5 19.8807 9.5 18.5C9.5 17.1193 10.6193 16 12 16C13.3807 16 14.5 17.1193 14.5 18.5ZM12 20C12.8284 20 13.5 19.3284 13.5 18.5C13.5 17.6716 12.8284 17 12 17C11.1716 17 10.5 17.6716 10.5 18.5C10.5 19.3284 11.1716 20 12 20Z" fill="black"/>
<path d="M19 15C18.1716 15 17.5 14.3284 17.5 13.5C17.5 13.3247 17.5301 13.1564 17.5854 13H5V15H19Z" fill="black"/>
<path d="M20.4146 13C20.4699 13.1564 20.5 13.3247 20.5 13.5C20.5 14.3284 19.8284 15 19 15H23V13H20.4146Z" fill="black"/>
<path fill-rule="evenodd" clip-rule="evenodd" d="M16.5 13.5C16.5 14.8807 17.6193 16 19 16C20.3807 16 21.5 14.8807 21.5 13.5C21.5 12.1193 20.3807 11 19 11C17.6193 11 16.5 12.1193 16.5 13.5ZM19 15C18.1716 15 17.5 14.3284 17.5 13.5C17.5 12.6716 18.1716 12 19 12C19.8284 12 20.5 12.6716 20.5 13.5C20.5 14.3284 19.8284 15 19 15Z" fill="black"/>
</svg>
