<svg width="25" height="24" viewBox="0 0 25 24" fill="none" xmlns="http://www.w3.org/2000/svg">
<path d="M20.9444 14.9863L16.6695 13.0706C16.4758 12.9876 16.2645 12.9542 16.0546 12.9735C15.8448 12.9928 15.6431 13.0641 15.4678 13.181C15.45 13.1924 15.433 13.2051 15.4171 13.219L13.1828 15.1193C13.1596 15.132 13.1338 15.1391 13.1074 15.14C13.081 15.1409 13.0548 15.1357 13.0308 15.1248C11.5946 14.4316 10.1069 12.9529 9.41104 11.5367C9.39945 11.513 9.39342 11.487 9.39342 11.4607C9.39342 11.4343 9.39945 11.4083 9.41104 11.3847L11.3177 9.12235C11.3314 9.10561 11.3441 9.08808 11.3557 9.06986C11.471 8.89386 11.5406 8.69191 11.5583 8.48226C11.576 8.27261 11.5412 8.06185 11.4571 7.86901L9.55492 3.60134C9.4469 3.34942 9.26008 3.13932 9.02251 3.00259C8.78494 2.86586 8.50943 2.80986 8.23734 2.84301C7.05479 2.99847 5.96931 3.57921 5.18375 4.47669C4.39818 5.37417 3.96628 6.52698 3.96876 7.7197C3.96876 14.8053 9.73319 20.5698 16.8188 20.5698C18.0115 20.5721 19.1642 20.1401 20.0616 19.3546C20.9591 18.569 21.5399 17.4837 21.6955 16.3012C21.7286 16.0304 21.6734 15.7561 21.538 15.5192C21.4027 15.2823 21.1945 15.0954 20.9444 14.9863ZM16.8188 19.4838C10.3323 19.4838 5.05468 14.2063 5.05468 7.7197C5.05166 6.79117 5.3868 5.89331 5.99748 5.19386C6.60817 4.49441 7.45263 4.04122 8.37308 3.91898H8.39389C8.43036 3.91966 8.46577 3.93134 8.49548 3.95249C8.52519 3.97365 8.54782 4.00329 8.5604 4.03752L10.4698 8.30067C10.4807 8.32437 10.4863 8.35014 10.4863 8.37623C10.4863 8.40231 10.4807 8.42809 10.4698 8.45179L8.55949 10.7196C8.54524 10.7357 8.53223 10.753 8.52058 10.7711C8.40104 10.9536 8.33065 11.1639 8.31623 11.3816C8.3018 11.5992 8.34382 11.8169 8.43823 12.0136C9.24091 13.657 10.8969 15.3003 12.5584 16.103C12.7562 16.1969 12.975 16.2379 13.1934 16.222C13.4118 16.2062 13.6223 16.134 13.8045 16.0125C13.8217 16.0008 13.8389 15.9881 13.8552 15.9745L16.0885 14.0741C16.1106 14.0623 16.135 14.0554 16.16 14.0538C16.1849 14.0522 16.21 14.0561 16.2333 14.0651L20.5091 15.9808C20.5441 15.9957 20.5734 16.0212 20.5931 16.0537C20.6127 16.0862 20.6217 16.124 20.6186 16.1618C20.497 17.0827 20.0443 17.9278 19.345 18.5392C18.6457 19.1505 17.7477 19.4863 16.8188 19.4838Z" fill="white"/>
</svg>
