<svg width="25" height="31" viewBox="0 0 25 31" fill="none" xmlns="http://www.w3.org/2000/svg">
<path d="M4.30566 14.7118V7.89416C4.30566 7.49782 4.62697 7.17651 5.02331 7.17651H18.2998" stroke="#A90001" stroke-width="1.07647" stroke-linecap="round"/>
<path fill-rule="evenodd" clip-rule="evenodd" d="M14.7931 11.5349C14.9778 11.7304 15.286 11.7392 15.4815 11.5546L20.2391 7.06124L15.4815 2.56792C15.286 2.38325 14.9778 2.39205 14.7931 2.58758C14.6084 2.78311 14.6172 3.09132 14.8128 3.27599L18.8207 7.06124L14.8128 10.8465C14.6172 11.0312 14.6084 11.3394 14.7931 11.5349Z" fill="#A90001"/>
<path d="M20.0942 15.7882V22.6058C20.0942 23.0022 19.7729 23.3235 19.3766 23.3235H6.10012" stroke="#A90001" stroke-width="1.07647" stroke-linecap="round"/>
<path fill-rule="evenodd" clip-rule="evenodd" d="M9.60681 18.9651C9.42214 18.7696 9.11393 18.7608 8.9184 18.9454L4.16077 23.4388L8.9184 27.9321C9.11393 28.1168 9.42214 28.1079 9.60681 27.9124C9.79147 27.7169 9.78267 27.4087 9.58714 27.224L5.57923 23.4388L9.58714 19.6535C9.78267 19.4688 9.79147 19.1606 9.60681 18.9651Z" fill="#A90001"/>
</svg>
