<svg width="35" height="35" viewBox="0 0 35 35" fill="none" xmlns="http://www.w3.org/2000/svg">
<g clip-path="url(#clip0_1642_236)">
<path fill-rule="evenodd" clip-rule="evenodd" d="M32.2334 17.5C32.2334 15.5652 31.8523 13.6493 31.1119 11.8618C30.3714 10.0743 29.2862 8.45008 27.9181 7.08196C26.55 5.71384 24.9258 4.62859 23.1382 3.88817C21.3507 3.14776 19.4348 2.76667 17.5 2.76667V0.5C20.9171 0.500009 24.2548 1.52976 27.0779 3.45495C29.901 5.38014 32.0784 8.1114 33.3261 11.2925C34.5739 14.4736 34.834 17.9569 34.0726 21.288C33.3112 24.6191 31.5636 27.6435 29.0578 29.9667H34.5V32.2333H25.4334V23.1667H27.7V28.1307C29.1353 26.7573 30.277 25.1072 31.0562 23.2799C31.8354 21.4527 32.2359 19.4864 32.2334 17.5ZM5.94003 5.03333H0.500031V2.76667H9.5667V11.8333H7.30003V6.86933C5.17887 8.90476 3.71511 11.5282 3.09701 14.4023C2.47892 17.2763 2.73474 20.2696 3.83159 22.9971C4.92844 25.7246 6.81615 28.0616 9.25195 29.7075C11.6877 31.3535 14.5603 32.2331 17.5 32.2333V34.5C14.0828 34.5004 10.7447 33.471 7.92129 31.546C5.09785 29.621 2.92008 26.8898 1.67208 23.7086C0.424068 20.5274 0.163752 17.0439 0.925085 13.7125C1.68642 10.3812 3.43405 7.35661 5.94003 5.03333Z" fill="#4ECB71"/>
</g>
<defs>
<clipPath id="clip0_1642_236">
<rect width="34" height="34" fill="white" transform="translate(0.5 0.5)"/>
</clipPath>
</defs>
</svg>
