<svg width="243" height="254" viewBox="0 0 243 254" fill="none" xmlns="http://www.w3.org/2000/svg">
<g filter="url(#filter0_dd_2111_2)">
<path d="M136.233 216.04C88.5372 223.255 34.6857 204.307 27.4706 156.611C20.2556 108.916 72.1445 39.7026 119.84 32.4875C167.535 25.2725 214.948 83.6422 222.163 131.338C229.378 179.033 183.942 208.839 136.233 216.04Z" fill="white"/>
</g>
<g filter="url(#filter1_d_2111_2)">
<path d="M136.233 216.04C88.5372 223.255 34.6857 204.307 27.4706 156.611C20.2556 108.916 72.1445 39.7026 119.84 32.4875C167.535 25.2725 214.948 83.6422 222.163 131.338C229.378 179.033 183.942 208.839 136.233 216.04Z" fill="#F7F9FD"/>
<path d="M136.158 215.546L136.158 215.546C112.393 219.141 87.1106 216.213 66.8886 206.467C46.6774 196.725 31.5428 180.188 27.965 156.537C24.3859 132.877 35.4708 103.784 53.4646 79.6683C71.458 55.5533 96.2508 36.5616 119.915 32.9819C143.532 29.4092 167.157 42.0703 185.82 61.666C204.476 81.2543 218.079 107.679 221.669 131.412C225.246 155.061 215.783 174.275 199.466 188.497C183.135 202.733 159.945 211.955 136.158 215.546Z" stroke="#F7F9FD"/>
</g>
<g clip-path="url(#clip0_2111_2)">
<path d="M122.073 127.008C122.073 140.612 110.252 151.647 95.6723 151.647C81.0925 151.647 69.2715 140.62 69.2715 127.008C69.2715 113.396 81.4419 113.629 96.0217 113.629C110.601 113.629 122.073 113.404 122.073 127.008Z" fill="#DFDB9B"/>
<path d="M68.4872 122.715C68.4872 123.567 67.6064 125.954 66.7548 125.954C66.7548 125.954 63.6612 124.469 62.5475 124.251C61.7105 124.091 61.0044 123.559 61.0044 122.715C61.0044 121.863 61.6959 121.172 62.5475 121.172H66.944C67.7957 121.172 68.4872 121.863 68.4872 122.715Z" fill="#1A1A1A"/>
<path d="M121.885 133.814C123.436 133.814 124.95 132.569 125.248 131.055C125.248 131.055 125.583 129.359 125.583 127.015C125.583 117.894 121.223 113.695 115.145 111.766C109.962 110.113 100.274 110.113 100.274 110.113C98.7237 110.113 96.8094 110.113 96.0232 110.113C95.2371 110.113 93.3228 110.113 91.7723 110.113C91.7723 110.113 80.8102 110.113 75.482 112.086C69.0329 114.481 65.7573 119.496 65.7573 127.008C65.7573 129.352 66.0922 131.048 66.0922 131.048C66.3979 132.569 67.9119 133.806 69.455 133.806H121.885V133.814Z" fill="#1A1A1A"/>
<path d="M115.46 113.068C110.43 111.518 101.113 111.518 101.113 111.518C99.5626 111.518 97.6701 111.518 96.9058 111.518C96.1415 111.518 94.2489 111.518 92.6985 111.518C92.6985 111.518 82.144 111.518 76.976 113.374C70.7088 115.623 67.5352 120.347 67.5352 127.415C67.5352 129.62 67.8336 131.054 67.8336 131.054C68.1466 132.568 69.6679 133.813 71.2183 133.813H121.894C123.445 133.813 124.959 132.568 125.265 131.054C125.265 131.054 125.578 129.482 125.592 127.211C125.519 118.775 121.319 114.866 115.46 113.068Z" fill="#333333"/>
<path d="M122.072 127.004C122.072 140.608 110.251 151.643 95.6708 151.643C81.0911 151.643 69.27 140.616 69.27 127.004C69.27 113.392 81.4404 113.625 96.0202 113.625C110.6 113.625 122.072 113.4 122.072 127.004Z" fill="#B3B3B3"/>
<path d="M71.9201 128.066C71.9201 124.867 72.6354 122.521 73.8886 120.79C75.1419 119.058 76.9607 117.902 79.2391 117.132C83.6842 115.631 89.766 115.632 96.5126 115.634C96.7241 115.634 96.9362 115.634 97.149 115.634C97.3524 115.634 97.5552 115.634 97.7571 115.634C104.408 115.632 110.258 115.631 114.529 117.071C116.714 117.808 118.458 118.916 119.677 120.574C120.896 122.231 121.617 124.475 121.694 127.535C121.395 140.494 110.196 150.98 96.2465 151.264C82.7324 150.98 71.9201 140.683 71.9201 128.066Z" fill="white" stroke="black" stroke-width="0.727896"/>
<path opacity="0.5" d="M100.721 116.662L74.103 136.027C74.9757 136.912 75.9701 137.739 77.0645 138.499L106.858 116.823C104.941 116.719 102.881 116.678 100.721 116.662Z" fill="#F0F0F0"/>
<path opacity="0.5" d="M80.6162 140.681L113.409 117.819C112.446 117.64 111.418 117.496 110.337 117.389L78.4702 139.606C79.1537 139.985 79.8739 140.343 80.6162 140.681Z" fill="#F0F0F0"/>
<path d="M135.621 127.008C135.621 140.612 147.442 151.647 162.022 151.647C176.602 151.647 188.423 140.62 188.423 127.008C188.423 113.396 176.245 113.629 161.672 113.629C147.093 113.629 135.621 113.404 135.621 127.008Z" fill="#DFDB9B"/>
<path d="M189.208 122.713C189.208 123.564 190.089 125.952 190.941 125.952C190.941 125.952 194.034 124.467 195.148 124.248C195.985 124.088 196.691 123.557 196.691 122.705C196.691 121.854 196 121.162 195.148 121.162H190.752C189.9 121.169 189.208 121.861 189.208 122.713Z" fill="#1A1A1A"/>
<path d="M135.813 133.814C134.263 133.814 132.749 132.569 132.451 131.055C132.451 131.055 132.116 129.359 132.116 127.015C132.116 117.894 136.476 113.695 142.554 111.766C147.729 110.113 157.425 110.113 157.425 110.113C158.975 110.113 160.889 110.113 161.676 110.113C162.462 110.113 164.376 110.113 165.926 110.113C165.926 110.113 176.889 110.113 182.217 112.086C188.673 114.481 191.949 119.496 191.949 127.008C191.949 129.352 191.614 131.048 191.614 131.048C191.308 132.569 189.794 133.806 188.251 133.806H135.813V133.814Z" fill="#1A1A1A"/>
<path d="M142.241 113.068C147.27 111.518 156.588 111.518 156.588 111.518C158.138 111.518 160.03 111.518 160.795 111.518C161.559 111.518 163.452 111.518 165.002 111.518C165.002 111.518 175.557 111.518 180.725 113.374C186.992 115.623 190.165 120.347 190.165 127.408C190.165 129.613 189.867 131.047 189.867 131.047C189.554 132.561 188.033 133.806 186.482 133.806H135.806C134.256 133.806 132.742 132.561 132.436 131.047C132.436 131.047 132.123 129.475 132.108 127.204C132.181 118.775 136.381 114.866 142.241 113.068Z" fill="#333333"/>
<path d="M135.621 127.004C135.621 140.608 147.442 151.643 162.022 151.643C176.602 151.643 188.423 140.616 188.423 127.004C188.423 113.392 176.245 113.625 161.672 113.625C147.093 113.625 135.621 113.4 135.621 127.004Z" fill="#B3B3B3"/>
<path d="M187.643 131.295C185.542 142.281 175.499 150.734 163.215 151.249C149.427 150.805 138.41 140.385 138.112 127.535C138.188 124.475 138.91 122.231 140.129 120.574C141.348 118.916 143.091 117.808 145.277 117.071C149.547 115.631 155.398 115.632 162.048 115.634C162.25 115.634 162.453 115.634 162.657 115.634C162.877 115.634 163.096 115.634 163.315 115.634C170.053 115.632 176.126 115.631 180.567 117.13C182.845 117.899 184.664 119.055 185.917 120.786C187.17 122.518 187.886 124.865 187.886 128.066C187.886 129.165 187.8 130.237 187.643 131.295Z" fill="white" stroke="black" stroke-width="0.727896"/>
<path opacity="0.5" d="M142.53 138.443C143.574 139.26 144.719 140.006 145.952 140.683L177.469 117.129C175.657 116.882 173.678 116.743 171.569 116.662L142.53 138.443Z" fill="#F2F2F2"/>
<path opacity="0.5" d="M148.354 141.964C149.124 142.292 149.917 142.593 150.731 142.868L182.565 118.885C181.772 118.584 180.907 118.33 179.985 118.119L148.354 141.964Z" fill="#F2F2F2"/>
<path d="M134.675 124.184C134.653 124.169 132.069 122.437 129.114 122.437C126.253 122.437 124.608 123.864 124.542 123.929L123.13 122.364C123.225 122.277 125.409 120.326 129.121 120.326C132.753 120.326 135.752 122.364 135.876 122.452L134.675 124.184Z" fill="#333333"/>
</g>
<path d="M52.6837 177.366C48.8331 173.022 45.3252 168.445 42.2557 163.69C39.1725 158.936 36.5278 154.002 34.3902 148.973C32.2525 143.944 30.6081 138.792 29.553 133.585C28.4979 128.392 28.032 123.143 28.2238 117.909C28.4157 112.674 29.2652 107.453 30.8685 102.315C32.458 97.1761 34.8013 92.106 37.953 87.1729C41.1046 82.2398 45.147 77.663 49.8883 73.4562C54.6295 69.2494 60.0559 65.4399 65.9893 62.0553C71.9227 58.6706 78.3494 55.6971 85.0913 53.2031C91.8332 50.7092 98.8765 48.6674 106.029 47.1327C113.182 45.598 120.431 44.584 127.612 44.1043C134.792 43.6247 141.89 43.6933 148.714 44.351C155.538 45.0087 162.075 46.242 168.145 48.1056C174.216 49.9692 179.806 52.4632 184.74 55.6149C189.673 58.7666 193.934 62.6719 197.593 67.1528C201.252 71.6337 204.28 76.7175 206.719 82.2124C209.158 87.7073 211.036 93.6407 212.365 99.8345C213.694 106.028 214.475 112.496 214.749 119.073C215.023 125.651 214.79 132.338 214.091 138.984C213.393 145.63 212.228 152.221 210.638 158.607" stroke="#B51F1F" stroke-width="4.57761" stroke-miterlimit="10" stroke-linecap="round" stroke-linejoin="round"/>
<path d="M201.597 177.367C199.504 182.833 196.845 187.661 193.716 191.9C190.587 196.139 186.987 199.79 182.995 202.892C179.002 205.993 174.63 208.543 169.971 210.579C165.298 212.618 160.337 214.142 155.153 215.194C149.97 216.246 144.59 216.821 139.068 216.978C133.546 217.135 127.917 216.838 122.251 216.156C116.585 215.475 110.866 214.399 105.214 212.974C99.5628 211.548 93.9497 209.765 88.4962 207.669" stroke="#B51F1F" stroke-width="4.57761" stroke-miterlimit="10" stroke-linecap="round" stroke-linejoin="round"/>
<circle cx="12.55" cy="12.55" r="12.55" transform="matrix(0.92284 -0.385183 -0.385183 -0.92284 10.0728 211.459)" fill="#BDBDBD"/>
<circle cx="3.13749" cy="3.13749" r="3.13749" transform="matrix(0.92284 -0.385183 -0.385183 -0.92284 29.8735 226.314)" fill="#BDBDBD"/>
<path d="M60.1401 215.762L55.0152 217.901L53.3185 213.836L49.9308 215.249L51.6276 219.315L46.4853 221.461L47.8848 224.814L53.027 222.667L54.731 226.75L58.1187 225.336L56.4147 221.254L61.5395 219.114L60.1401 215.762Z" fill="#BDBDBD"/>
<circle cx="12.55" cy="12.55" r="12.55" transform="matrix(-0.92284 0.385183 0.385183 0.92284 233.135 42.4316)" fill="#BDBDBD"/>
<circle cx="3.13749" cy="3.13749" r="3.13749" transform="matrix(-0.92284 0.385183 0.385183 0.92284 213.334 27.5762)" fill="#BDBDBD"/>
<path d="M183.067 38.129L188.192 35.99L189.889 40.0551L193.277 38.6412L191.58 34.576L196.722 32.4297L195.323 29.0768L190.18 31.2231L188.476 27.1406L185.089 28.5546L186.793 32.6371L181.668 34.7762L183.067 38.129Z" fill="#BDBDBD"/>
<defs>
<filter id="filter0_dd_2111_2" x="20.7949" y="25.8789" width="208.127" height="197.646" filterUnits="userSpaceOnUse" color-interpolation-filters="sRGB">
<feFlood flood-opacity="0" result="BackgroundImageFix"/>
<feColorMatrix in="SourceAlpha" type="matrix" values="0 0 0 0 0 0 0 0 0 0 0 0 0 0 0 0 0 0 127 0" result="hardAlpha"/>
<feOffset dy="-2"/>
<feGaussianBlur stdDeviation="2"/>
<feColorMatrix type="matrix" values="0 0 0 0 0 0 0 0 0 0 0 0 0 0 0 0 0 0 0.08 0"/>
<feBlend mode="normal" in2="BackgroundImageFix" result="effect1_dropShadow_2111_2"/>
<feColorMatrix in="SourceAlpha" type="matrix" values="0 0 0 0 0 0 0 0 0 0 0 0 0 0 0 0 0 0 127 0" result="hardAlpha"/>
<feOffset/>
<feGaussianBlur stdDeviation="3"/>
<feColorMatrix type="matrix" values="0 0 0 0 0 0 0 0 0 0 0 0 0 0 0 0 0 0 0.02 0"/>
<feBlend mode="normal" in2="effect1_dropShadow_2111_2" result="effect2_dropShadow_2111_2"/>
<feBlend mode="normal" in="SourceGraphic" in2="effect2_dropShadow_2111_2" result="shape"/>
</filter>
<filter id="filter1_d_2111_2" x="25.7949" y="30.8789" width="204.127" height="193.646" filterUnits="userSpaceOnUse" color-interpolation-filters="sRGB">
<feFlood flood-opacity="0" result="BackgroundImageFix"/>
<feColorMatrix in="SourceAlpha" type="matrix" values="0 0 0 0 0 0 0 0 0 0 0 0 0 0 0 0 0 0 127 0" result="hardAlpha"/>
<feOffset dx="3" dy="3"/>
<feGaussianBlur stdDeviation="2"/>
<feComposite in2="hardAlpha" operator="out"/>
<feColorMatrix type="matrix" values="0 0 0 0 0 0 0 0 0 0 0 0 0 0 0 0 0 0 0.2 0"/>
<feBlend mode="normal" in2="BackgroundImageFix" result="effect1_dropShadow_2111_2"/>
<feBlend mode="normal" in="SourceGraphic" in2="effect1_dropShadow_2111_2" result="shape"/>
</filter>
<clipPath id="clip0_2111_2">
<rect width="138.846" height="47.5898" fill="white" transform="translate(61 110.113)"/>
</clipPath>
</defs>
</svg>
