<svg width="35" height="34" viewBox="0 0 35 34" fill="none" xmlns="http://www.w3.org/2000/svg">
<path d="M23.6157 19.8409C23.7266 18.9258 23.8098 18.0108 23.8098 17.0681C23.8098 16.1253 23.7266 15.2103 23.6157 14.2953H28.3017C28.5235 15.1826 28.6622 16.1115 28.6622 17.0681C28.6622 18.0247 28.5235 18.9536 28.3017 19.8409M21.1618 27.5492C21.9936 26.0103 22.6313 24.3466 23.075 22.6136H27.1649C25.8217 24.9265 23.6907 26.6786 21.1618 27.5492ZM20.8152 19.8409H14.3268C14.1882 18.9258 14.105 18.0108 14.105 17.0681C14.105 16.1253 14.1882 15.1964 14.3268 14.2953H20.8152C20.9399 15.1964 21.037 16.1253 21.037 17.0681C21.037 18.0108 20.9399 18.9258 20.8152 19.8409ZM17.571 28.1038C16.4203 26.4401 15.4914 24.5962 14.923 22.6136H20.219C19.6506 24.5962 18.7217 26.4401 17.571 28.1038ZM12.0254 11.5225H7.97713C9.30649 9.20334 11.4359 7.44853 13.9664 6.58691C13.1345 8.12581 12.5106 9.78948 12.0254 11.5225ZM7.97713 22.6136H12.0254C12.5106 24.3466 13.1345 26.0103 13.9664 27.5492C11.4412 26.6781 9.31479 24.9258 7.97713 22.6136ZM6.84029 19.8409C6.61846 18.9536 6.47982 18.0247 6.47982 17.0681C6.47982 16.1115 6.61846 15.1826 6.84029 14.2953H11.5263C11.4154 15.2103 11.3322 16.1253 11.3322 17.0681C11.3322 18.0108 11.4154 18.9258 11.5263 19.8409M17.571 6.01849C18.7217 7.68216 19.6506 9.53993 20.219 11.5225H14.923C15.4914 9.53993 16.4203 7.68216 17.571 6.01849ZM27.1649 11.5225H23.075C22.6411 9.80537 21.9986 8.14785 21.1618 6.58691C23.7127 7.46034 25.8339 9.22106 27.1649 11.5225ZM17.571 3.2041C9.90422 3.2041 3.70703 9.44288 3.70703 17.0681C3.70703 20.745 5.16769 24.2714 7.76769 26.8714C9.05508 28.1588 10.5834 29.18 12.2655 29.8767C13.9475 30.5734 15.7504 30.932 17.571 30.932C21.2479 30.932 24.7743 29.4714 27.3743 26.8714C29.9743 24.2714 31.435 20.745 31.435 17.0681C31.435 15.2474 31.0764 13.4446 30.3796 11.7626C29.6829 10.0805 28.6617 8.55215 27.3743 7.26476C26.0869 5.97737 24.5586 4.95616 22.8765 4.25943C21.1944 3.5627 19.3916 3.2041 17.571 3.2041Z" fill="#B22A2E"/>
</svg>
