<svg width="243" height="253" viewBox="0 0 243 253" fill="none" xmlns="http://www.w3.org/2000/svg">
<g filter="url(#filter0_dd_2340_1538)">
<path d="M136.097 215.839C88.4014 223.054 34.5499 204.106 27.3349 156.41C20.1199 108.715 72.0088 39.5014 119.704 32.2864C167.4 25.0713 214.813 83.4411 222.028 131.136C229.243 178.832 183.806 208.638 136.097 215.839Z" fill="white"/>
</g>
<g filter="url(#filter1_d_2340_1538)">
<path d="M136.097 215.839C88.4014 223.054 34.5499 204.106 27.3349 156.41C20.1199 108.715 72.0088 39.5014 119.704 32.2864C167.4 25.0713 214.813 83.4411 222.028 131.136C229.243 178.832 183.806 208.638 136.097 215.839Z" fill="#F7F9FD"/>
<path d="M136.022 215.344L136.022 215.345C112.257 218.939 86.9748 216.012 66.7528 206.266C46.5417 196.524 31.407 179.986 27.8293 156.335C24.2502 132.675 35.335 103.583 53.3289 79.4672C71.3223 55.3521 96.115 36.3605 119.779 32.7807C143.397 29.208 167.021 41.8691 185.684 61.4648C204.34 81.0531 217.943 107.478 221.533 131.211C225.111 154.86 215.647 174.073 199.33 188.296C182.999 202.532 159.809 211.754 136.022 215.344Z" stroke="#F7F9FD"/>
</g>
<path d="M52.5479 177.165C48.6974 172.821 45.1894 168.244 42.12 163.489C39.0368 158.734 36.3921 153.801 34.2544 148.772C32.1168 143.743 30.4724 138.591 29.4173 133.384C28.3621 128.19 27.8962 122.942 28.0881 117.708C28.2799 112.473 29.1295 107.252 30.7328 102.114C32.3223 96.9749 34.6655 91.9048 37.8172 86.9717C40.9689 82.0386 45.0113 77.4618 49.7525 73.255C54.4938 69.0482 59.9202 65.2388 65.8536 61.8541C71.787 58.4695 78.2137 55.4959 84.9555 53.002C91.6974 50.508 98.7408 48.4663 105.894 46.9315C113.047 45.3968 120.296 44.3828 127.476 43.9032C134.656 43.4236 141.755 43.4921 148.579 44.1498C155.403 44.8076 161.939 46.0408 168.009 47.9045C174.08 49.7681 179.671 52.262 184.604 55.4137C189.537 58.5654 193.799 62.4707 197.457 66.9516C201.116 71.4325 204.144 76.5163 206.583 82.0112C209.023 87.5061 210.9 93.4395 212.229 99.6333C213.558 105.827 214.339 112.295 214.613 118.872C214.887 125.45 214.654 132.137 213.956 138.783C213.257 145.429 212.092 152.02 210.502 158.405" stroke="#B51F1F" stroke-width="4.57761" stroke-miterlimit="10" stroke-linecap="round" stroke-linejoin="round"/>
<path d="M201.461 177.165C199.368 182.632 196.71 187.46 193.581 191.699C190.451 195.938 186.852 199.589 182.859 202.69C178.866 205.792 174.494 208.342 169.835 210.378C165.162 212.416 160.201 213.941 155.018 214.993C149.834 216.045 144.454 216.62 138.932 216.777C133.411 216.933 127.781 216.636 122.115 215.955C116.449 215.274 110.73 214.198 105.078 212.773C99.427 211.347 93.814 209.564 88.3605 207.468" stroke="#B51F1F" stroke-width="4.57761" stroke-miterlimit="10" stroke-linecap="round" stroke-linejoin="round"/>
<g clip-path="url(#clip0_2340_1538)">
<path d="M159.514 79.5322V160.663C159.514 166.256 154.98 170.79 149.387 170.79H96.1797C90.5868 170.79 86.0527 166.256 86.0527 160.663V79.5322H159.514Z" fill="white"/>
<path d="M86.9399 80.4199V160.663C86.9399 165.756 91.0865 169.903 96.1796 169.903H149.387C154.48 169.903 158.627 165.756 158.627 160.663V80.4199H86.9399ZM100.986 163.76C100.734 163.76 100.498 163.654 100.329 163.47C100.161 163.284 100.078 163.038 100.101 162.787C100.116 162.636 100.122 162.473 100.122 162.287C100.122 159.282 97.9719 156.759 95.0084 156.289C93.9702 156.123 93.012 155.789 92.1602 155.289C90.2347 154.162 89.2173 152.515 89.2173 150.531V83.5846C89.2173 83.0936 89.6136 82.6973 90.1046 82.6973H155.462C155.953 82.6973 156.35 83.0936 156.35 83.5846V150.531C156.35 152.515 155.332 154.162 153.407 155.289C152.555 155.789 151.597 156.123 150.559 156.289C147.595 156.759 145.445 159.282 145.445 162.287C145.445 162.473 145.451 162.636 145.465 162.787C145.489 163.038 145.406 163.284 145.238 163.47C145.069 163.654 144.833 163.76 144.581 163.76H100.986Z" fill="#D4D8DD"/>
<path d="M88.8836 86.9886H81.4658L88.7357 75.791H95.1833L88.8836 86.9886Z" fill="#F1F2F4"/>
<path d="M96.2986 86.9886H88.8838L95.1835 75.791H101.631L96.2986 86.9886Z" fill="#D4D8DD"/>
<path d="M103.716 86.9886H96.2983L101.631 75.791H108.079L103.716 86.9886Z" fill="#F1F2F4"/>
<path d="M111.134 86.9886H103.716L108.079 75.791H114.526L111.134 86.9886Z" fill="#D4D8DD"/>
<path d="M118.548 86.9886H111.133L114.526 75.791H120.973L118.548 86.9886Z" fill="#F1F2F4"/>
<path d="M125.966 86.9886H118.548L120.974 75.791H127.421L125.966 86.9886Z" fill="#D4D8DD"/>
<path d="M133.384 86.9886H125.966L127.421 75.791H133.869L133.384 86.9886Z" fill="#F1F2F4"/>
<path d="M140.799 86.9886H133.384L133.869 75.791H140.314L140.799 86.9886Z" fill="#D4D8DD"/>
<path d="M148.216 86.9886H140.799L140.313 75.791H146.761L148.216 86.9886Z" fill="#F1F2F4"/>
<path d="M155.634 86.9886H148.216L146.761 75.791H153.208L155.634 86.9886Z" fill="#D4D8DD"/>
<path d="M163.049 86.9886H155.634L153.209 75.791H159.657L163.049 86.9886Z" fill="#F1F2F4"/>
<path d="M85.3016 95.6788C83.2578 95.6788 81.6016 94.0225 81.6016 91.9788V86.9893H88.9986V91.9788C89.0015 94.0225 87.3453 95.6788 85.3016 95.6788Z" fill="#B51F1F"/>
<path d="M92.701 95.6788C90.6572 95.6788 89.001 94.0225 89.001 91.9788V86.9893H96.398V91.9788C96.398 94.0225 94.7417 95.6788 92.701 95.6788Z" fill="#878787"/>
<path d="M100.099 95.6788C98.0552 95.6788 96.3989 94.0225 96.3989 91.9788V86.9893H103.796V91.9788C103.799 94.0225 102.143 95.6788 100.099 95.6788Z" fill="#B51F1F"/>
<path d="M107.498 95.6788C105.455 95.6788 103.798 94.0225 103.798 91.9788V86.9893H111.195V91.9788C111.195 94.0225 109.539 95.6788 107.498 95.6788Z" fill="#878787"/>
<path d="M114.896 95.6788C112.852 95.6788 111.196 94.0225 111.196 91.9788V86.9893H118.593V91.9788C118.596 94.0225 116.94 95.6788 114.896 95.6788Z" fill="#B51F1F"/>
<path d="M122.296 95.6788C120.252 95.6788 118.596 94.0225 118.596 91.9788V86.9893H125.993V91.9788C125.993 94.0225 124.336 95.6788 122.296 95.6788Z" fill="#878787"/>
<path d="M129.693 95.6788C127.649 95.6788 125.993 94.0225 125.993 91.9788V86.9893H133.39V91.9788C133.393 94.0225 131.737 95.6788 129.693 95.6788Z" fill="#B51F1F"/>
<path d="M137.09 95.6788C135.046 95.6788 133.39 94.0225 133.39 91.9788V86.9893H140.787V91.9788C140.79 94.0225 139.133 95.6788 137.09 95.6788Z" fill="#878787"/>
<path d="M144.49 95.6788C142.446 95.6788 140.79 94.0225 140.79 91.9788V86.9893H148.187V91.9788C148.19 94.0225 146.534 95.6788 144.49 95.6788Z" fill="#B51F1F"/>
<path d="M151.887 95.6788C149.843 95.6788 148.187 94.0225 148.187 91.9788V86.9893H155.584V91.9788C155.587 94.0225 153.93 95.6788 151.887 95.6788Z" fill="#878787"/>
<path d="M159.286 95.6788C157.242 95.6788 155.586 94.0225 155.586 91.9788V86.9893H162.983V91.9788C162.986 94.0225 161.33 95.6788 159.286 95.6788Z" fill="#B51F1F"/>
</g>
<path opacity="0.7" d="M143.728 148.669C151.382 141.015 151.382 128.606 143.728 120.952C136.074 113.298 123.665 113.298 116.011 120.952C108.357 128.606 108.357 141.015 116.011 148.669C123.665 156.323 136.074 156.323 143.728 148.669Z" fill="white"/>
<path d="M133.051 135.115L138.62 129.545C139.415 128.751 139.415 127.463 138.62 126.668C137.826 125.874 136.538 125.874 135.743 126.668L130.173 132.238L124.604 126.668C123.809 125.874 122.521 125.874 121.727 126.668C120.932 127.463 120.932 128.751 121.727 129.545L127.296 135.115L121.727 140.684C120.932 141.479 120.932 142.767 121.727 143.562C122.124 143.959 122.645 144.157 123.165 144.157C123.686 144.157 124.207 143.959 124.604 143.562L130.173 137.992L135.743 143.562C136.14 143.959 136.661 144.157 137.182 144.157C137.702 144.157 138.223 143.959 138.62 143.562C139.415 142.767 139.415 141.479 138.62 140.684L133.051 135.115Z" fill="#B51F1F"/>
<path opacity="0.76" d="M114.507 136.22C113.822 136.22 113.268 135.666 113.268 134.982C113.268 125.094 121.313 117.052 131.198 117.052C131.882 117.052 132.437 117.606 132.437 118.29C132.437 118.975 131.882 119.529 131.198 119.529C122.676 119.529 115.745 126.463 115.745 134.982C115.745 135.666 115.191 136.22 114.507 136.22Z" fill="#D1D4D6"/>
<path opacity="0.58" d="M129.871 155.029C118.723 155.029 109.653 145.959 109.653 134.811C109.653 123.663 118.723 114.593 129.871 114.593C141.019 114.593 150.09 123.663 150.09 134.811C150.09 145.959 141.019 155.029 129.871 155.029ZM129.871 115.831C119.404 115.831 110.892 124.347 110.892 134.811C110.892 145.275 119.407 153.791 129.871 153.791C140.335 153.791 148.851 145.275 148.851 134.811C148.851 124.347 140.338 115.831 129.871 115.831Z" fill="#9DA6B4"/>
<path d="M147.887 148.853C147.915 148.825 147.949 148.801 147.98 148.776C150.965 144.911 152.743 140.068 152.743 134.81C152.746 122.178 142.505 111.938 129.874 111.938C117.242 111.938 107.001 122.178 107.001 134.81C107.001 147.441 117.242 157.682 129.874 157.682C135.113 157.682 139.935 155.914 143.79 152.95L146.435 150.306L147.887 148.853ZM129.874 154.409C119.048 154.409 110.275 145.633 110.275 134.81C110.275 123.984 119.051 115.211 129.874 115.211C140.697 115.211 149.473 123.987 149.473 134.81C149.473 145.633 140.697 154.409 129.874 154.409Z" fill="#7D889B"/>
<path d="M129.875 157.993C117.092 157.993 106.693 147.594 106.693 134.811C106.693 122.028 117.092 111.629 129.875 111.629C142.658 111.629 153.057 122.028 153.057 134.811C153.057 139.982 151.388 144.878 148.229 148.966L148.17 149.025C148.139 149.046 148.124 149.059 148.111 149.071L143.983 153.196C139.899 156.333 135.018 157.993 129.875 157.993ZM129.875 112.248C117.435 112.248 107.312 122.368 107.312 134.811C107.312 147.253 117.432 157.373 129.875 157.373C134.876 157.373 139.617 155.763 143.587 152.719L147.671 148.634C147.699 148.607 147.73 148.579 147.764 148.557C150.824 144.584 152.437 139.831 152.437 134.811C152.437 122.368 142.314 112.248 129.875 112.248ZM129.875 154.719C118.897 154.719 109.966 145.789 109.966 134.811C109.966 123.833 118.897 114.902 129.875 114.902C140.853 114.902 149.783 123.833 149.783 134.811C149.783 145.789 140.853 154.719 129.875 154.719ZM129.875 115.521C119.238 115.521 110.585 124.174 110.585 134.811C110.585 145.448 119.238 154.1 129.875 154.1C140.512 154.1 149.164 145.448 149.164 134.811C149.164 124.174 140.512 115.521 129.875 115.521Z" fill="#BDBDBD"/>
<path d="M147.321 152.43L146.436 151.544C146.095 151.204 146.095 150.649 146.436 150.309L143.791 152.953L143.748 152.997C143.407 153.337 143.407 153.891 143.748 154.232L144.825 155.31C145.175 154.712 146.216 153.548 147.321 152.43Z" fill="#B51F1F"/>
<path d="M146.433 150.307C146.093 150.648 146.093 151.202 146.433 151.543L147.319 152.428C148.39 151.348 149.518 150.313 150.152 149.883L149.121 148.852C148.808 148.539 148.319 148.517 147.978 148.774C147.947 148.799 147.913 148.821 147.886 148.852L146.433 150.307Z" fill="#4C65BA"/>
<path d="M146.433 150.307C146.093 150.648 146.093 151.202 146.433 151.543L147.319 152.428C148.39 151.348 149.518 150.313 150.152 149.883L149.121 148.852C148.808 148.539 148.319 148.517 147.978 148.774C147.947 148.799 147.913 148.821 147.886 148.852L146.433 150.307Z" fill="#1A77B9"/>
<path d="M166.751 165.975L150.645 149.692C150.586 149.633 150.41 149.711 150.159 149.884C149.524 150.315 148.397 151.346 147.325 152.43C146.22 153.548 145.182 154.712 144.826 155.31C144.712 155.505 144.665 155.638 144.718 155.688L160.824 171.97C162.462 173.627 165.116 173.627 166.754 171.97C168.389 170.313 168.389 167.628 166.751 165.975Z" fill="#B51F1F"/>
<path opacity="0.14" d="M166.751 165.977L150.645 149.695C150.428 149.475 148.592 151.119 147.015 152.745C145.675 154.126 165.113 173.626 166.751 171.972C168.389 170.316 168.389 167.631 166.751 165.977Z" fill="#060606"/>
<circle cx="12.55" cy="12.55" r="12.55" transform="matrix(0.92284 -0.385183 -0.385183 -0.92284 9.93701 211.259)" fill="#BDBDBD"/>
<circle cx="3.13749" cy="3.13749" r="3.13749" transform="matrix(0.92284 -0.385183 -0.385183 -0.92284 29.7378 226.114)" fill="#BDBDBD"/>
<path d="M60.0043 215.561L54.8795 217.7L53.1827 213.635L49.7951 215.049L51.4918 219.114L46.3496 221.261L47.7491 224.614L52.8913 222.467L54.5953 226.55L57.9829 225.136L56.2789 221.053L61.4038 218.914L60.0043 215.561Z" fill="#BDBDBD"/>
<circle cx="12.55" cy="12.55" r="12.55" transform="matrix(-0.92284 0.385183 0.385183 0.92284 232.999 42.2305)" fill="#BDBDBD"/>
<circle cx="3.13749" cy="3.13749" r="3.13749" transform="matrix(-0.92284 0.385183 0.385183 0.92284 213.198 27.375)" fill="#BDBDBD"/>
<path d="M182.932 37.9279L188.057 35.7888L189.753 39.8539L193.141 38.44L191.444 34.3748L196.586 32.2285L195.187 28.8757L190.045 31.022L188.341 26.9394L184.953 28.3534L186.657 32.4359L181.532 34.575L182.932 37.9279Z" fill="#BDBDBD"/>
<defs>
<filter id="filter0_dd_2340_1538" x="20.6592" y="25.6777" width="208.127" height="197.646" filterUnits="userSpaceOnUse" color-interpolation-filters="sRGB">
<feFlood flood-opacity="0" result="BackgroundImageFix"/>
<feColorMatrix in="SourceAlpha" type="matrix" values="0 0 0 0 0 0 0 0 0 0 0 0 0 0 0 0 0 0 127 0" result="hardAlpha"/>
<feOffset dy="-2"/>
<feGaussianBlur stdDeviation="2"/>
<feColorMatrix type="matrix" values="0 0 0 0 0 0 0 0 0 0 0 0 0 0 0 0 0 0 0.08 0"/>
<feBlend mode="normal" in2="BackgroundImageFix" result="effect1_dropShadow_2340_1538"/>
<feColorMatrix in="SourceAlpha" type="matrix" values="0 0 0 0 0 0 0 0 0 0 0 0 0 0 0 0 0 0 127 0" result="hardAlpha"/>
<feOffset/>
<feGaussianBlur stdDeviation="3"/>
<feColorMatrix type="matrix" values="0 0 0 0 0 0 0 0 0 0 0 0 0 0 0 0 0 0 0.02 0"/>
<feBlend mode="normal" in2="effect1_dropShadow_2340_1538" result="effect2_dropShadow_2340_1538"/>
<feBlend mode="normal" in="SourceGraphic" in2="effect2_dropShadow_2340_1538" result="shape"/>
</filter>
<filter id="filter1_d_2340_1538" x="25.6592" y="30.6777" width="204.127" height="193.646" filterUnits="userSpaceOnUse" color-interpolation-filters="sRGB">
<feFlood flood-opacity="0" result="BackgroundImageFix"/>
<feColorMatrix in="SourceAlpha" type="matrix" values="0 0 0 0 0 0 0 0 0 0 0 0 0 0 0 0 0 0 127 0" result="hardAlpha"/>
<feOffset dx="3" dy="3"/>
<feGaussianBlur stdDeviation="2"/>
<feComposite in2="hardAlpha" operator="out"/>
<feColorMatrix type="matrix" values="0 0 0 0 0 0 0 0 0 0 0 0 0 0 0 0 0 0 0.2 0"/>
<feBlend mode="normal" in2="BackgroundImageFix" result="effect1_dropShadow_2340_1538"/>
<feBlend mode="normal" in="SourceGraphic" in2="effect1_dropShadow_2340_1538" result="shape"/>
</filter>
<clipPath id="clip0_2340_1538">
<rect width="81.5832" height="94.999" fill="white" transform="translate(81.4658 75.791)"/>
</clipPath>
</defs>
</svg>
