<svg width="243" height="253" viewBox="0 0 243 253" fill="none" xmlns="http://www.w3.org/2000/svg">
<g filter="url(#filter0_dd_13_3447)">
<path d="M135.828 215.607C88.1329 222.822 34.2814 203.874 27.0663 156.178C19.8513 108.483 71.7402 39.2695 119.436 32.0544C167.131 24.8394 214.544 83.2091 221.759 130.905C228.974 178.6 183.538 208.406 135.828 215.607Z" fill="white"/>
</g>
<g filter="url(#filter1_d_13_3447)">
<path d="M135.828 215.607C88.1329 222.822 34.2814 203.874 27.0663 156.178C19.8513 108.483 71.7402 39.2695 119.436 32.0544C167.131 24.8394 214.544 83.2091 221.759 130.905C228.974 178.6 183.538 208.406 135.828 215.607Z" fill="#F7F9FD"/>
<path d="M135.754 215.113L135.754 215.113C111.989 218.708 86.7063 215.78 66.4843 206.034C46.2731 196.292 31.1385 179.755 27.5607 156.104C23.9816 132.444 35.0665 103.351 53.0603 79.2352C71.0537 55.1202 95.8465 36.1285 119.51 32.5488C143.128 28.9761 166.752 41.6372 185.415 61.2329C204.071 80.8212 217.675 107.246 221.265 130.979C224.842 154.628 215.379 173.841 199.062 188.064C182.731 202.3 159.541 211.522 135.754 215.113Z" stroke="#F7F9FD"/>
</g>
<path d="M52.2794 176.933C48.4288 172.589 44.9209 168.012 41.8514 163.257C38.7682 158.502 36.1235 153.569 33.9859 148.54C31.8482 143.511 30.2038 138.359 29.1487 133.152C28.0936 127.958 27.6277 122.71 27.8195 117.476C28.0114 112.241 28.861 107.02 30.4642 101.882C32.0538 96.743 34.397 91.6729 37.5487 86.7398C40.7003 81.8067 44.7427 77.2299 49.484 73.0231C54.2252 68.8163 59.6516 65.0068 65.585 61.6222C71.5184 58.2375 77.9451 55.264 84.687 52.77C91.4289 50.2761 98.4722 48.2343 105.625 46.6996C112.778 45.1649 120.027 44.1508 127.207 43.6712C134.388 43.1916 141.486 43.2602 148.31 43.9179C155.134 44.5756 161.67 45.8089 167.741 47.6725C173.811 49.5361 179.402 52.0301 184.335 55.1818C189.268 58.3335 193.53 62.2388 197.189 66.7197C200.847 71.2006 203.876 76.2844 206.315 81.7793C208.754 87.2742 210.631 93.2076 211.96 99.4014C213.29 105.595 214.071 112.063 214.345 118.64C214.619 125.218 214.386 131.905 213.687 138.551C212.988 145.197 211.823 151.788 210.234 158.174" stroke="#0F9BAA" stroke-width="4.57761" stroke-miterlimit="10" stroke-linecap="round" stroke-linejoin="round"/>
<path d="M201.192 176.933C199.099 182.4 196.441 187.228 193.312 191.467C190.183 195.706 186.583 199.357 182.59 202.458C178.598 205.56 174.226 208.11 169.566 210.146C164.893 212.184 159.933 213.709 154.749 214.761C149.565 215.813 144.186 216.388 138.664 216.545C133.142 216.701 127.513 216.404 121.847 215.723C116.181 215.042 110.461 213.966 104.81 212.541C99.1585 211.115 93.5454 209.332 88.0919 207.236" stroke="#0F9BAA" stroke-width="4.57761" stroke-miterlimit="10" stroke-linecap="round" stroke-linejoin="round"/>
<circle cx="12.55" cy="12.55" r="12.55" transform="matrix(0.92284 -0.385183 -0.385183 -0.92284 9.66797 211.028)" fill="#BDBDBD"/>
<circle cx="3.13749" cy="3.13749" r="3.13749" transform="matrix(0.92284 -0.385183 -0.385183 -0.92284 29.4688 225.883)" fill="#BDBDBD"/>
<path d="M59.7353 215.33L54.6104 217.469L52.9137 213.404L49.526 214.818L51.2228 218.883L46.0806 221.03L47.48 224.382L52.6222 222.236L54.3262 226.319L57.7139 224.905L56.0099 220.822L61.1347 218.683L59.7353 215.33Z" fill="#BDBDBD"/>
<circle cx="12.55" cy="12.55" r="12.55" transform="matrix(-0.92284 0.385183 0.385183 0.92284 232.73 41.9985)" fill="#BDBDBD"/>
<circle cx="3.13749" cy="3.13749" r="3.13749" transform="matrix(-0.92284 0.385183 0.385183 0.92284 212.93 27.1431)" fill="#BDBDBD"/>
<path d="M182.663 37.6959L187.788 35.5569L189.485 39.622L192.872 38.2081L191.176 34.1429L196.318 31.9966L194.918 28.6437L189.776 30.79L188.072 26.7075L184.685 28.1215L186.389 32.204L181.264 34.343L182.663 37.6959Z" fill="#BDBDBD"/>
<path d="M123.102 177.205C150.221 177.205 172.205 155.221 172.205 128.103C172.205 100.984 150.221 79 123.102 79C95.9839 79 74 100.984 74 128.103C74 155.221 95.9839 177.205 123.102 177.205Z" fill="#D8D8D8"/>
<path d="M128.205 174.205C155.324 174.205 177.308 152.221 177.308 125.103C177.308 97.9839 155.324 76 128.205 76C101.086 76 79.1025 97.9839 79.1025 125.103C79.1025 152.221 101.086 174.205 128.205 174.205Z" fill="#0F9BAA"/>
<path d="M128.205 170.43C116.098 170.43 104.715 165.715 96.1527 157.154C87.5915 148.592 82.8765 137.209 82.8765 125.101C82.8765 112.994 87.5915 101.611 96.1527 93.0487C104.714 84.4862 116.096 79.7725 128.205 79.7725C140.314 79.7725 151.695 84.4875 160.258 93.0487C168.819 101.61 173.534 112.992 173.534 125.101C173.534 137.21 168.819 148.592 160.258 157.154C151.696 165.715 140.314 170.43 128.205 170.43ZM128.205 83.0312C116.968 83.0312 106.403 87.4075 98.4577 95.3537C90.5127 103.3 86.1352 113.864 86.1352 125.101C86.1352 136.339 90.5115 146.904 98.4577 154.849C106.404 162.795 116.968 167.171 128.205 167.171C139.443 167.171 150.008 162.795 157.953 154.849C165.898 146.902 170.275 136.339 170.275 125.101C170.275 113.864 165.899 103.299 157.953 95.3537C150.006 87.4075 139.443 83.0312 128.205 83.0312Z" fill="black"/>
<g style="mix-blend-mode:multiply">
<path d="M125.312 156.594C128.247 156.594 130.625 154.215 130.625 151.281C130.625 148.347 128.247 145.969 125.312 145.969C122.378 145.969 120 148.347 120 151.281C120 154.215 122.378 156.594 125.312 156.594Z" fill="#0F9BAA"/>
<path d="M122.785 137.95L121.35 101.731C121.264 99.5438 122.966 97.7 125.155 97.6125C127.342 97.5263 129.186 99.2288 129.274 101.418C129.315 101.856 127.827 137.533 127.84 137.95C127.601 141.168 123.034 141.173 122.786 137.95H122.785Z" fill="#0F9BAA"/>
</g>
<path d="M128.205 154.594C131.139 154.594 133.518 152.215 133.518 149.281C133.518 146.347 131.139 143.969 128.205 143.969C125.271 143.969 122.893 146.347 122.893 149.281C122.893 152.215 125.271 154.594 128.205 154.594Z" fill="white"/>
<path d="M125.677 135.95L124.242 99.7313C124.156 97.5438 125.859 95.7 128.047 95.6125C130.235 95.5263 132.079 97.2288 132.166 99.4175C132.207 99.8563 130.72 135.533 130.732 135.95C130.494 139.168 125.926 139.173 125.679 135.95H125.677Z" fill="white"/>
<defs>
<filter id="filter0_dd_13_3447" x="20.3906" y="25.4458" width="208.127" height="197.647" filterUnits="userSpaceOnUse" color-interpolation-filters="sRGB">
<feFlood flood-opacity="0" result="BackgroundImageFix"/>
<feColorMatrix in="SourceAlpha" type="matrix" values="0 0 0 0 0 0 0 0 0 0 0 0 0 0 0 0 0 0 127 0" result="hardAlpha"/>
<feOffset dy="-2"/>
<feGaussianBlur stdDeviation="2"/>
<feColorMatrix type="matrix" values="0 0 0 0 0 0 0 0 0 0 0 0 0 0 0 0 0 0 0.08 0"/>
<feBlend mode="normal" in2="BackgroundImageFix" result="effect1_dropShadow_13_3447"/>
<feColorMatrix in="SourceAlpha" type="matrix" values="0 0 0 0 0 0 0 0 0 0 0 0 0 0 0 0 0 0 127 0" result="hardAlpha"/>
<feOffset/>
<feGaussianBlur stdDeviation="3"/>
<feColorMatrix type="matrix" values="0 0 0 0 0 0 0 0 0 0 0 0 0 0 0 0 0 0 0.02 0"/>
<feBlend mode="normal" in2="effect1_dropShadow_13_3447" result="effect2_dropShadow_13_3447"/>
<feBlend mode="normal" in="SourceGraphic" in2="effect2_dropShadow_13_3447" result="shape"/>
</filter>
<filter id="filter1_d_13_3447" x="25.3906" y="30.4458" width="204.127" height="193.647" filterUnits="userSpaceOnUse" color-interpolation-filters="sRGB">
<feFlood flood-opacity="0" result="BackgroundImageFix"/>
<feColorMatrix in="SourceAlpha" type="matrix" values="0 0 0 0 0 0 0 0 0 0 0 0 0 0 0 0 0 0 127 0" result="hardAlpha"/>
<feOffset dx="3" dy="3"/>
<feGaussianBlur stdDeviation="2"/>
<feComposite in2="hardAlpha" operator="out"/>
<feColorMatrix type="matrix" values="0 0 0 0 0 0 0 0 0 0 0 0 0 0 0 0 0 0 0.2 0"/>
<feBlend mode="normal" in2="BackgroundImageFix" result="effect1_dropShadow_13_3447"/>
<feBlend mode="normal" in="SourceGraphic" in2="effect1_dropShadow_13_3447" result="shape"/>
</filter>
</defs>
</svg>
