<svg width="31" height="44" viewBox="0 0 31 44" fill="none" xmlns="http://www.w3.org/2000/svg">
<g clip-path="url(#clip0_2200_1112)">
<path d="M8.99487 32.1968C10.2236 33.7626 11.3419 35.412 12.3417 37.1331C13.1953 38.7516 13.5511 39.8492 14.175 41.7994C14.5576 42.8769 14.9033 43.1985 15.6468 43.1985C16.4569 43.1985 16.8244 42.6514 17.1084 41.8053C17.6981 39.9636 18.1608 38.558 18.8907 37.2298C20.3232 34.6657 22.1031 32.3872 23.852 30.1973C24.3255 29.5775 27.3867 25.9668 28.7648 23.1178C28.7648 23.1178 30.4587 19.9882 30.4587 15.6174C30.4587 11.5289 28.7882 8.69336 28.7882 8.69336L23.9789 9.98132L21.0583 17.6738L20.3357 18.7345L20.1912 18.9267L19.999 19.1672L19.6617 19.5514L19.1797 20.0334L16.5789 22.1523L10.0765 25.9066L8.99487 32.1968Z" fill="#34A853"/>
<path d="M2.28369 22.5942C3.87067 26.219 6.93094 29.4055 9.00145 32.2018L19.9989 19.1747C19.9989 19.1747 18.4495 21.201 15.6391 21.201C12.5086 21.201 9.97951 18.7011 9.97951 15.5489C9.97951 13.3873 11.28 11.9023 11.28 11.9023L3.81464 13.9027L2.28369 22.5942Z" fill="#FBBC04"/>
<path d="M20.1225 1.3966C23.775 2.57424 26.9013 5.04656 28.7922 8.69224L20.003 19.1661C20.003 19.1661 21.3035 17.6543 21.3035 15.5061C21.3035 12.2805 18.5874 9.8708 15.6532 9.8708C12.8785 9.8708 11.2849 11.8937 11.2849 11.8937V5.29533L20.1225 1.39648V1.3966Z" fill="#4285F4"/>
<path d="M4.29956 6.02048C6.48109 3.41041 10.3197 0.722656 15.6119 0.722656C18.1795 0.722656 20.1139 1.39674 20.1139 1.39674L11.2771 11.8955H5.01612L4.29956 6.02048Z" fill="#1A73E8"/>
<path d="M2.28298 22.5862C2.28298 22.5862 0.822998 19.7271 0.822998 15.5852C0.822998 11.6704 2.3448 8.24853 4.29758 6.01758L11.2801 11.8935L2.28298 22.5862Z" fill="#EA4335"/>
</g>
<defs>
<clipPath id="clip0_2200_1112">
<rect width="29.6392" height="42.4845" fill="white" transform="translate(0.822266 0.722656)"/>
</clipPath>
</defs>
</svg>
