<svg width="295" height="271" viewBox="0 0 295 271" fill="none" xmlns="http://www.w3.org/2000/svg">
<rect y="121.733" width="188.164" height="67.6729" rx="33.8365" transform="rotate(-40.3122 0 121.733)" fill="#EEEEEE"/>
<rect x="107.104" y="218.873" width="188.164" height="67.6729" rx="33.8365" transform="rotate(-40.3122 107.104 218.873)" fill="#EEEEEE"/>
<rect x="24.7344" y="194.622" width="262.995" height="67.6729" rx="33.8365" transform="rotate(-40.3122 24.7344 194.622)" fill="#EEEEEE"/>
<circle cx="11.4202" cy="11.4202" r="11.4202" transform="matrix(-0.982304 -0.187293 -0.187293 0.982304 230.525 78.2856)" fill="#BDBDBD"/>
<circle cx="2.85504" cy="2.85504" r="2.85504" transform="matrix(-0.982304 -0.187293 -0.187293 0.982304 222.943 57.0762)" fill="#BDBDBD"/>
<path d="M194.724 49.6121L199.688 50.5586L198.937 54.4961L202.219 55.1218L202.969 51.1842L207.95 52.1339L208.57 48.8863L203.589 47.9366L204.343 43.9822L201.061 43.3566L200.307 47.3109L195.343 46.3645L194.724 49.6121Z" fill="#BDBDBD"/>
<circle cx="8.59484" cy="8.59484" r="8.59484" transform="matrix(0.999609 -0.0279649 -0.0279649 -0.999609 65.3633 196.182)" fill="#BDBDBD"/>
<circle cx="2.14871" cy="2.14871" r="2.14871" transform="matrix(0.999609 -0.0279649 -0.0279649 -0.999609 74.3633 210.548)" fill="#BDBDBD"/>
<path d="M96.3219 211.795L92.5202 211.902L92.4358 208.886L89.9228 208.956L90.0072 211.972L86.1926 212.079L86.2622 214.566L90.0768 214.459L90.1615 217.488L92.6745 217.417L92.5898 214.389L96.3915 214.282L96.3219 211.795Z" fill="#BDBDBD"/>
<rect x="93.6441" y="79.6441" width="108.508" height="106.864" rx="14.7966" fill="white" stroke="#BDBDBD" stroke-width="3.28813"/>
<rect x="105.77" y="98.6535" width="78.0245" height="2.29484" fill="#BDBDBD"/>
<rect x="105.77" y="112.423" width="78.0245" height="2.29484" fill="#BDBDBD"/>
<rect x="105.77" y="103.243" width="41.3071" height="2.29484" fill="#BDBDBD"/>
<rect x="105.77" y="117.012" width="41.3071" height="2.29484" fill="#BDBDBD"/>
<path opacity="0.21" d="M187.267 170.973C196.356 161.884 196.356 147.148 187.267 138.059C178.178 128.97 163.442 128.97 154.353 138.059C145.264 147.148 145.264 161.884 154.353 170.973C163.442 180.062 178.178 180.062 187.267 170.973Z" fill="white"/>
<path d="M174.588 154.877L181.202 148.263C182.146 147.32 182.146 145.79 181.202 144.847C180.259 143.903 178.729 143.903 177.786 144.847L171.172 151.461L164.558 144.847C163.614 143.903 162.085 143.903 161.141 144.847C160.198 145.79 160.198 147.32 161.141 148.263L167.755 154.877L161.141 161.491C160.198 162.435 160.198 163.964 161.141 164.908C161.613 165.379 162.231 165.615 162.849 165.615C163.468 165.615 164.086 165.379 164.558 164.908L171.172 158.294L177.786 164.908C178.257 165.379 178.876 165.615 179.494 165.615C180.112 165.615 180.73 165.379 181.202 164.908C182.146 163.964 182.146 162.435 181.202 161.491L174.588 154.877Z" fill="#B51F1F"/>
<path opacity="0.76" d="M152.571 156.189C151.758 156.189 151.1 155.531 151.1 154.718C151.1 142.976 160.653 133.426 172.391 133.426C173.204 133.426 173.862 134.085 173.862 134.897C173.862 135.71 173.204 136.368 172.391 136.368C162.271 136.368 154.041 144.602 154.041 154.718C154.041 155.531 153.383 156.189 152.571 156.189Z" fill="#DEDEDE"/>
<path opacity="0.58" d="M170.812 178.525C157.574 178.525 146.803 167.754 146.803 154.516C146.803 141.277 157.574 130.507 170.812 130.507C184.05 130.507 194.821 141.277 194.821 154.516C194.821 167.754 184.05 178.525 170.812 178.525ZM170.812 131.978C158.383 131.978 148.274 142.09 148.274 154.516C148.274 166.942 158.386 177.054 170.812 177.054C183.238 177.054 193.35 166.942 193.35 154.516C193.35 142.09 183.241 131.978 170.812 131.978Z" fill="#9DA6B4"/>
<path d="M192.2 171.193C192.233 171.159 192.274 171.13 192.311 171.101C195.855 166.511 197.966 160.76 197.966 154.516C197.97 139.516 185.809 127.355 170.809 127.355C155.809 127.355 143.648 139.516 143.648 154.516C143.648 169.516 155.809 181.677 170.809 181.677C177.031 181.677 182.757 179.577 187.335 176.058L190.476 172.917L192.2 171.193ZM170.809 177.79C157.953 177.79 147.535 167.368 147.535 154.516C147.535 141.66 157.957 131.242 170.809 131.242C183.661 131.242 194.083 141.664 194.083 154.516C194.083 167.368 183.661 177.79 170.809 177.79Z" fill="#7D889B"/>
<path d="M170.81 182.044C155.63 182.044 143.281 169.696 143.281 154.516C143.281 139.336 155.63 126.987 170.81 126.987C185.99 126.987 198.338 139.336 198.338 154.516C198.338 160.657 196.356 166.471 192.605 171.325L192.535 171.395C192.499 171.42 192.48 171.435 192.466 171.45L187.564 176.348C182.713 180.073 176.918 182.044 170.81 182.044ZM170.81 127.723C156.038 127.723 144.017 139.74 144.017 154.516C144.017 169.291 156.034 181.309 170.81 181.309C176.749 181.309 182.379 179.396 187.093 175.782L191.943 170.931C191.976 170.898 192.013 170.865 192.054 170.839C195.687 166.121 197.603 160.477 197.603 154.516C197.603 139.74 185.582 127.723 170.81 127.723ZM170.81 178.157C157.774 178.157 147.168 167.552 147.168 154.516C147.168 141.479 157.774 130.874 170.81 130.874C183.846 130.874 194.451 141.479 194.451 154.516C194.451 167.552 183.846 178.157 170.81 178.157ZM170.81 131.61C158.178 131.61 147.904 141.884 147.904 154.516C147.904 167.147 158.178 177.422 170.81 177.422C183.441 177.422 193.716 167.147 193.716 154.516C193.716 141.884 183.441 131.61 170.81 131.61Z" fill="#7D889B"/>
<path d="M191.531 175.44L190.48 174.388C190.075 173.983 190.075 173.325 190.48 172.921L187.339 176.061L187.288 176.113C186.883 176.517 186.883 177.175 187.288 177.58L188.567 178.86C188.983 178.15 190.219 176.767 191.531 175.44Z" fill="#B51F1F"/>
<path d="M190.475 172.917C190.071 173.322 190.071 173.98 190.475 174.384L191.527 175.436C192.799 174.153 194.138 172.924 194.892 172.413L193.667 171.189C193.296 170.817 192.715 170.792 192.31 171.097C192.273 171.126 192.233 171.152 192.2 171.189L190.475 172.917Z" fill="#4C65BA"/>
<path d="M190.475 172.917C190.071 173.322 190.071 173.98 190.475 174.384L191.527 175.436C192.799 174.153 194.138 172.924 194.892 172.413L193.667 171.189C193.296 170.817 192.715 170.792 192.31 171.097C192.273 171.126 192.233 171.152 192.2 171.189L190.475 172.917Z" fill="#1A77B9"/>
<path d="M214.6 191.524L195.474 172.189C195.404 172.119 195.195 172.211 194.897 172.417C194.143 172.928 192.804 174.152 191.532 175.439C190.219 176.767 188.987 178.15 188.565 178.859C188.428 179.091 188.373 179.249 188.436 179.308L207.562 198.643C209.507 200.611 212.658 200.611 214.604 198.643C216.545 196.676 216.545 193.488 214.6 191.524Z" fill="#7D889B"/>
<path opacity="0.14" d="M214.602 191.525L195.476 172.189C195.219 171.928 193.038 173.881 191.167 175.811C189.574 177.451 212.657 200.608 214.602 198.644C216.547 196.676 216.547 193.488 214.602 191.525Z" fill="#B9BAC1"/>
</svg>
