<svg width="243" height="254" viewBox="0 0 243 254" fill="none" xmlns="http://www.w3.org/2000/svg">
<g filter="url(#filter0_dd_2040_458)">
<path d="M135.834 216.192C88.1387 223.407 34.2872 204.459 27.0722 156.764C19.8572 109.068 71.7461 39.8549 119.441 32.6399C167.137 25.4249 214.55 83.7946 221.765 131.49C228.98 179.185 183.544 208.992 135.834 216.192Z" fill="white"/>
</g>
<g filter="url(#filter1_d_2040_458)">
<path d="M135.834 216.192C88.1387 223.407 34.2872 204.459 27.0722 156.764C19.8572 109.068 71.7461 39.8549 119.441 32.6399C167.137 25.4249 214.55 83.7946 221.765 131.49C228.98 179.185 183.544 208.992 135.834 216.192Z" fill="#F7F9FD"/>
<path d="M135.76 215.698L135.759 215.698C111.995 219.293 86.7121 216.366 66.4901 206.619C46.279 196.878 31.1443 180.34 27.5666 156.689C23.9875 133.029 35.0723 103.936 53.0662 79.8207C71.0596 55.7056 95.8523 36.714 119.516 33.1343C143.134 29.5616 166.758 42.2226 185.421 61.8184C204.077 81.4066 217.68 107.832 221.271 131.565C224.848 155.213 215.384 174.427 199.068 188.65C182.736 202.885 159.547 212.108 135.76 215.698Z" stroke="#F7F9FD"/>
</g>
<path d="M154.905 128.658C156.508 128.54 157.917 129.744 157.896 131.352C157.807 138.069 155.695 144.629 151.802 150.159C147.348 156.484 140.839 161.07 133.383 163.135C125.927 165.199 117.986 164.614 110.913 161.48C103.84 158.346 98.0728 152.857 94.5935 145.947C91.1142 139.037 90.1384 131.135 91.8323 123.586C93.5263 116.038 97.7851 109.31 103.883 104.55C109.982 99.7892 117.542 97.2905 125.276 97.4792C132.036 97.6442 138.564 99.854 144.014 103.782C145.318 104.722 145.447 106.572 144.397 107.789C143.347 109.006 141.517 109.127 140.196 108.212C135.781 105.15 130.547 103.43 125.134 103.298C118.746 103.142 112.502 105.206 107.465 109.138C102.428 113.07 98.9107 118.626 97.5116 124.861C96.1125 131.095 96.9185 137.622 99.7922 143.329C102.666 149.036 107.429 153.57 113.271 156.159C119.113 158.747 125.672 159.23 131.83 157.525C137.988 155.82 143.364 152.032 147.042 146.808C150.16 142.38 151.895 137.152 152.064 131.781C152.115 130.174 153.302 128.776 154.905 128.658Z" fill="#D4D8DD"/>
<path fill-rule="evenodd" clip-rule="evenodd" d="M167.785 98.9627C169.056 100.212 169.074 102.255 167.824 103.526L129.762 142.251C129.155 142.868 128.326 143.216 127.461 143.216C126.596 143.216 125.767 142.869 125.16 142.252L113.741 130.646C112.491 129.376 112.508 127.333 113.778 126.083C115.049 124.833 117.092 124.849 118.342 126.12L127.459 135.386L163.221 99.002C164.471 97.731 166.514 97.7134 167.785 98.9627Z" fill="#B51F1F"/>
<path d="M52.2852 177.518C48.4347 173.175 44.9267 168.598 41.8573 163.843C38.7741 159.088 36.1294 154.155 33.9917 149.126C31.8541 144.097 30.2097 138.944 29.1546 133.737C28.0994 128.544 27.6335 123.296 27.8254 118.061C28.0172 112.827 28.8668 107.606 30.4701 102.467C32.0596 97.3284 34.4028 92.2583 37.5545 87.3252C40.7062 82.3922 44.7486 77.8153 49.4898 73.6085C54.2311 69.4017 59.6575 65.5923 65.5909 62.2076C71.5243 58.823 77.951 55.8494 84.6929 53.3555C91.4347 50.8615 98.4781 48.8198 105.631 47.2851C112.784 45.7503 120.033 44.7363 127.213 44.2567C134.394 43.7771 141.492 43.8456 148.316 44.5033C155.14 45.1611 161.676 46.3944 167.747 48.258C173.817 50.1216 179.408 52.6155 184.341 55.7672C189.274 58.9189 193.536 62.8243 197.195 67.3051C200.853 71.786 203.882 76.8698 206.321 82.3647C208.76 87.8597 210.637 93.7931 211.966 99.9868C213.296 106.181 214.077 112.648 214.351 119.226C214.625 125.803 214.392 132.49 213.693 139.136C212.994 145.782 211.829 152.373 210.24 158.759" stroke="#B51F1F" stroke-width="4.57761" stroke-miterlimit="10" stroke-linecap="round" stroke-linejoin="round"/>
<path d="M201.198 177.519C199.105 182.986 196.447 187.814 193.318 192.053C190.189 196.292 186.589 199.942 182.596 203.044C178.604 206.146 174.232 208.696 169.572 210.731C164.899 212.77 159.938 214.294 154.755 215.346C149.571 216.399 144.191 216.974 138.67 217.13C133.148 217.287 127.519 216.99 121.853 216.309C116.186 215.628 110.467 214.552 104.816 213.126C99.1643 211.701 93.5513 209.917 88.0978 207.822" stroke="#B51F1F" stroke-width="4.57761" stroke-miterlimit="10" stroke-linecap="round" stroke-linejoin="round"/>
<circle cx="12.55" cy="12.55" r="12.55" transform="matrix(0.92284 -0.385183 -0.385183 -0.92284 9.67383 211.611)" fill="#BDBDBD"/>
<circle cx="3.13749" cy="3.13749" r="3.13749" transform="matrix(0.92284 -0.385183 -0.385183 -0.92284 29.4746 226.467)" fill="#BDBDBD"/>
<path d="M59.7411 215.914L54.6163 218.053L52.9195 213.988L49.5319 215.402L51.2287 219.467L46.0864 221.613L47.4859 224.966L52.6281 222.82L54.3321 226.902L57.7197 225.488L56.0157 221.406L61.1406 219.267L59.7411 215.914Z" fill="#BDBDBD"/>
<circle cx="12.55" cy="12.55" r="12.55" transform="matrix(-0.92284 0.385183 0.385183 0.92284 232.736 42.584)" fill="#BDBDBD"/>
<circle cx="3.13749" cy="3.13749" r="3.13749" transform="matrix(-0.92284 0.385183 0.385183 0.92284 212.936 27.7285)" fill="#BDBDBD"/>
<path d="M182.669 38.2814L187.794 36.1423L189.491 40.2075L192.878 38.7935L191.182 34.7284L196.324 32.582L194.924 29.2292L189.782 31.3755L188.078 27.293L184.69 28.7069L186.394 32.7894L181.27 34.9285L182.669 38.2814Z" fill="#BDBDBD"/>
<defs>
<filter id="filter0_dd_2040_458" x="20.3965" y="26.0312" width="208.127" height="197.646" filterUnits="userSpaceOnUse" color-interpolation-filters="sRGB">
<feFlood flood-opacity="0" result="BackgroundImageFix"/>
<feColorMatrix in="SourceAlpha" type="matrix" values="0 0 0 0 0 0 0 0 0 0 0 0 0 0 0 0 0 0 127 0" result="hardAlpha"/>
<feOffset dy="-2"/>
<feGaussianBlur stdDeviation="2"/>
<feColorMatrix type="matrix" values="0 0 0 0 0 0 0 0 0 0 0 0 0 0 0 0 0 0 0.08 0"/>
<feBlend mode="normal" in2="BackgroundImageFix" result="effect1_dropShadow_2040_458"/>
<feColorMatrix in="SourceAlpha" type="matrix" values="0 0 0 0 0 0 0 0 0 0 0 0 0 0 0 0 0 0 127 0" result="hardAlpha"/>
<feOffset/>
<feGaussianBlur stdDeviation="3"/>
<feColorMatrix type="matrix" values="0 0 0 0 0 0 0 0 0 0 0 0 0 0 0 0 0 0 0.02 0"/>
<feBlend mode="normal" in2="effect1_dropShadow_2040_458" result="effect2_dropShadow_2040_458"/>
<feBlend mode="normal" in="SourceGraphic" in2="effect2_dropShadow_2040_458" result="shape"/>
</filter>
<filter id="filter1_d_2040_458" x="25.3965" y="31.0312" width="204.127" height="193.646" filterUnits="userSpaceOnUse" color-interpolation-filters="sRGB">
<feFlood flood-opacity="0" result="BackgroundImageFix"/>
<feColorMatrix in="SourceAlpha" type="matrix" values="0 0 0 0 0 0 0 0 0 0 0 0 0 0 0 0 0 0 127 0" result="hardAlpha"/>
<feOffset dx="3" dy="3"/>
<feGaussianBlur stdDeviation="2"/>
<feComposite in2="hardAlpha" operator="out"/>
<feColorMatrix type="matrix" values="0 0 0 0 0 0 0 0 0 0 0 0 0 0 0 0 0 0 0.2 0"/>
<feBlend mode="normal" in2="BackgroundImageFix" result="effect1_dropShadow_2040_458"/>
<feBlend mode="normal" in="SourceGraphic" in2="effect1_dropShadow_2040_458" result="shape"/>
</filter>
</defs>
</svg>
