<svg width="305" height="207" viewBox="0 0 305 207" fill="none" xmlns="http://www.w3.org/2000/svg">
<path d="M302.972 206.425H1.93783C0.86126 206.425 0 205.564 0 204.487C0 203.434 0.86126 202.549 1.93783 202.549H302.972C304.025 202.549 304.91 203.41 304.91 204.487C304.886 205.564 304.025 206.425 302.972 206.425Z" fill="#B51F1F"/>
<circle cx="50.4664" cy="46.2616" r="10" transform="rotate(1.60248 50.4664 46.2616)" fill="#B51F1F"/>
<circle cx="53.6498" cy="21.8412" r="2.5" transform="rotate(1.60248 53.6498 21.8412)" fill="#B51F1F"/>
<path d="M76.7458 18.5507L72.3225 18.427L72.2244 21.9356L69.3005 21.8538L69.3987 18.3452L64.9604 18.221L65.0414 15.3271L69.4796 15.4513L69.5782 11.9277L72.502 12.0095L72.4035 15.5331L76.8267 15.6568L76.7458 18.5507Z" fill="#B51F1F"/>
<circle cx="268.393" cy="38.2965" r="10" transform="rotate(-101.609 268.393 38.2965)" fill="#B51F1F"/>
<circle cx="261.417" cy="16.7585" r="2.5" transform="rotate(-101.609 261.417 16.7585)" fill="#B51F1F"/>
<path d="M239.301 13.1408L240.191 17.4752L243.629 16.7689L244.218 19.6341L240.78 20.3404L241.673 24.6896L238.837 25.2721L237.944 20.923L234.491 21.6323L233.902 18.7671L237.355 18.0578L236.465 13.7233L239.301 13.1408Z" fill="#B51F1F"/>
<path fill-rule="evenodd" clip-rule="evenodd" d="M152.346 44.0068C156.068 47.4561 159.399 51.5692 162.188 56.3587L166.157 50.6801C167.96 48.1008 169.918 45.7526 172.006 43.6309C199.2 15.9872 248.262 26.801 259.637 66.191C264.917 84.4724 259.892 104.179 246.504 117.701L162.188 202.857L79.7032 119.55C65.3622 105.066 60.7268 83.5774 67.8216 64.4695C81.2901 28.1953 126.363 19.9272 152.346 44.0068ZM162.188 181.335L235.743 107.047C245.27 97.4248 248.846 83.4013 245.089 70.3924C236.373 40.2114 196.565 33.6062 178.569 59.3549L161.027 84.4533L149.103 63.9799C133.271 36.7962 92.9593 40.2715 82.0175 69.7404C76.974 83.3237 80.2692 98.5992 90.4638 108.895L162.188 181.335Z" fill="#B51F1F"/>
<g clip-path="url(#clip0_561_2)">
<path d="M176.23 151.876V133.888C176.23 124.305 183.298 116.499 191.962 116.499H204.68C213.364 116.499 220.412 124.305 220.412 133.888V151.876C220.412 161.459 213.344 169.265 204.68 169.265H191.962C183.298 169.265 176.23 161.459 176.23 151.876ZM191.962 124.685C187.371 124.685 183.637 128.817 183.637 133.868V151.856C183.637 156.927 187.371 161.04 191.962 161.04H204.68C209.272 161.04 213.005 156.907 213.005 151.856V133.888C213.005 128.817 209.272 124.704 204.68 124.704H191.962V124.685Z" fill="#B51F1F"/>
<path d="M204.679 169.764H191.962C183.017 169.764 175.73 161.739 175.73 151.876V133.888C175.73 124.026 183.017 116 191.962 116H204.679C213.623 116 220.91 124.026 220.91 133.888V151.876C220.91 161.739 213.643 169.764 204.679 169.764ZM191.962 116.998C183.557 116.998 176.729 124.565 176.729 133.888V151.876C176.729 161.18 183.557 168.766 191.962 168.766H204.679C213.084 168.766 219.912 161.2 219.912 151.876V133.888C219.912 124.585 213.084 116.998 204.679 116.998H191.962ZM204.679 161.559H191.962C187.09 161.559 183.137 157.207 183.137 151.876V133.888C183.137 128.538 187.09 124.205 191.962 124.205H204.679C209.55 124.205 213.503 128.558 213.503 133.888V151.876C213.503 157.227 209.55 161.559 204.679 161.559ZM191.962 125.184C187.649 125.184 184.155 129.097 184.155 133.888V151.876C184.155 156.668 187.669 160.561 191.982 160.561H204.699C209.011 160.561 212.525 156.668 212.525 151.876V133.888C212.525 129.097 209.011 125.204 204.699 125.204H191.962V125.184Z" fill="white"/>
<path d="M173.676 199.112H222.968C227.101 199.112 230.455 195.758 230.455 191.625V153.254C230.455 149.121 227.101 145.767 222.968 145.767H173.676C169.543 145.767 166.189 149.121 166.189 153.254V191.645C166.189 195.778 169.543 199.112 173.676 199.112Z" fill="#B51F1F"/>
<path d="M178.065 194.381H218.573C222.705 194.381 226.059 191.026 226.059 186.894V160.541C226.059 156.408 222.705 153.054 218.573 153.054H178.065C173.932 153.054 170.578 156.408 170.578 160.541V186.894C170.578 191.026 173.932 194.381 178.065 194.381Z" fill="#6DC3FF"/>
<path d="M190.824 167.808C190.824 163.655 194.178 160.301 198.331 160.301C202.483 160.301 205.837 163.655 205.837 167.808C205.837 171.182 203.582 174.017 200.507 174.955V184.658H196.155V174.955C193.08 174.037 190.824 171.202 190.824 167.808Z" fill="white"/>
<path d="M212.499 145.778V130.5L197.338 145.778H212.499Z" fill="white"/>
</g>
<defs>
<clipPath id="clip0_561_2">
<rect width="80.6764" height="83.6112" fill="white" transform="translate(166.189 116)"/>
</clipPath>
</defs>
</svg>
