<?xml version="1.0" encoding="UTF-8" standalone="no"?>
<svg
   xmlns:dc="http://purl.org/dc/elements/1.1/"
   xmlns:cc="http://creativecommons.org/ns#"
   xmlns:rdf="http://www.w3.org/1999/02/22-rdf-syntax-ns#"
   xmlns:svg="http://www.w3.org/2000/svg"
   xmlns="http://www.w3.org/2000/svg"
   xmlns:sodipodi="http://sodipodi.sourceforge.net/DTD/sodipodi-0.dtd"
   xmlns:inkscape="http://www.inkscape.org/namespaces/inkscape"
   version="1.1"
   id="svg2"
   xml:space="preserve"
   width="812.59869"
   height="434.64532"
   viewBox="0 0 812.59869 434.64532"
   sodipodi:docname="HUGO_LOGO_SUB_EYEWEAR_red_black_RGB.ai"><metadata
     id="metadata8"><rdf:RDF><cc:Work
         rdf:about=""><dc:format>image/svg+xml</dc:format><dc:type
           rdf:resource="http://purl.org/dc/dcmitype/StillImage" /></cc:Work></rdf:RDF></metadata><defs
     id="defs6"><clipPath
       clipPathUnits="userSpaceOnUse"
       id="clipPath22"><path
         d="M 0,325.984 H 609.449 V 0 H 0 Z"
         id="path20" /></clipPath></defs><sodipodi:namedview
     pagecolor="#ffffff"
     bordercolor="#666666"
     borderopacity="1"
     objecttolerance="10"
     gridtolerance="10"
     guidetolerance="10"
     inkscape:pageopacity="0"
     inkscape:pageshadow="2"
     inkscape:window-width="640"
     inkscape:window-height="480"
     id="namedview4" /><g
     id="g10"
     inkscape:groupmode="layer"
     inkscape:label="HUGO_LOGO_SUB_EYEWEAR_red_black_RGB"
     transform="matrix(1.3333333,0,0,-1.3333333,0,434.64533)"><g
       id="g12"
       transform="translate(127.5589,269.2915)"><path
         d="M 0,0 V -42.52 H -39.685 V 0 h -31.181 v -113.386 h 31.181 v 45.354 H 0 v -45.354 H 31.181 V 0 Z"
         style="fill:#b51f29;fill-opacity:1;fill-rule:nonzero;stroke:none"
         id="path14" /></g><g
       id="g16"><g
         id="g18"
         clip-path="url(#clipPath22)"><g
           id="g24"
           transform="translate(236.6936,153.0713)"><path
             d="m 0,0 c -25.512,0.052 -51.024,17.008 -51.024,51.023 v 65.197 h 31.181 l -0.016,-68.032 c 0,-14.172 11.355,-19.842 19.859,-19.842 8.504,0 19.86,5.67 19.86,19.842 L 19.842,116.22 H 51.023 V 51.023 C 51.023,17.008 25.512,-0.053 0,0"
             style="fill:#b51f29;fill-opacity:1;fill-rule:nonzero;stroke:none"
             id="path26" /></g><g
           id="g28"
           transform="translate(367.0867,153.0713)"><path
             d="m 0,0 c -32.598,0 -59.528,25.512 -59.528,59.528 0,34.014 26.93,59.527 59.528,59.527 22.677,0 36.833,-11.294 36.833,-11.294 L 19.134,85.748 c 0,0 -6.378,5.669 -19.134,5.669 -17.009,0 -29.055,-14.881 -29.055,-31.889 0,-17.008 12.047,-31.182 29.055,-31.182 14.173,0 21.26,5.67 21.26,5.67 V 48.188 H -2.835 V 72.992 H 48.189 V 19.843 C 48.189,19.843 32.598,0 0,0"
             style="fill:#b51f29;fill-opacity:1;fill-rule:nonzero;stroke:none"
             id="path30" /></g><g
           id="g32"
           transform="translate(493.2278,153.0713)"><path
             d="m 0,0 c -32.598,0 -59.528,25.512 -59.528,59.528 0,34.014 26.93,59.527 59.528,59.527 32.598,0 59.528,-25.513 59.528,-59.527 C 59.528,25.512 32.598,0 0,0 m 0,90.708 c -17.008,0 -29.055,-14.172 -29.055,-31.18 0,-17.008 12.047,-31.182 29.055,-31.182 17.008,0 29.055,14.174 29.055,31.182 0,17.007 -12.047,31.18 -29.055,31.18"
             style="fill:#b51f29;fill-opacity:1;fill-rule:nonzero;stroke:none"
             id="path34" /></g><g
           id="g36"
           transform="translate(148.1502,99.1182)"><path
             d="M 0,0 H 27.666 V -8.903 H 9.74 v -8.126 h 14.161 v -8.605 H 9.74 v -7.887 h 19.18 v -8.904 H 0 Z"
             style="fill:#000000;fill-opacity:1;fill-rule:nonzero;stroke:none"
             id="path38" /></g><g
           id="g40"
           transform="translate(198.4002,75.1572)"><path
             d="M 0,0 -13.803,23.961 H -2.39 L 5.079,9.859 h 0.12 l 7.349,14.102 H 24.081 L 10.158,0 V -18.464 H 0 Z"
             style="fill:#000000;fill-opacity:1;fill-rule:nonzero;stroke:none"
             id="path42" /></g><g
           id="g44"
           transform="translate(232.3367,99.1182)"><path
             d="M 0,0 H 27.666 V -8.903 H 9.74 v -8.126 h 14.161 v -8.605 H 9.74 v -7.887 h 19.18 v -8.904 H 0 Z"
             style="fill:#000000;fill-opacity:1;fill-rule:nonzero;stroke:none"
             id="path46" /></g><g
           id="g48"
           transform="translate(269.262,99.1182)"><path
             d="m 0,0 h 10.695 l 7.112,-26.053 h 0.178 L 24.499,0 h 10.517 l 6.453,-25.992 h 0.178 L 48.818,0 H 59.454 L 46.13,-42.425 h -9.143 l -7.05,27.845 h -0.121 l -7.349,-27.845 h -9.142 z"
             style="fill:#000000;fill-opacity:1;fill-rule:nonzero;stroke:none"
             id="path50" /></g><g
           id="g52"
           transform="translate(339.4095,99.1182)"><path
             d="M 0,0 H 27.666 V -8.903 H 9.74 v -8.126 h 14.161 v -8.605 H 9.74 v -7.887 h 19.181 v -8.904 H 0 Z"
             style="fill:#000000;fill-opacity:1;fill-rule:nonzero;stroke:none"
             id="path54" /></g><g
           id="g56"
           transform="translate(401.7288,72.707)"><path
             d="M 0,0 -4.721,14.341 H -4.84 L -9.501,0 Z M -9.561,26.411 H 0 L 15.536,-16.014 H 5.139 l -2.51,7.649 h -14.818 l -2.51,-7.649 h -10.457 z"
             style="fill:#000000;fill-opacity:1;fill-rule:nonzero;stroke:none"
             id="path58" /></g><g
           id="g60"
           transform="translate(442.2376,79.1006)"><path
             d="m 0,0 c 4.303,0 6.633,2.092 6.633,5.617 0,3.227 -1.972,5.617 -6.453,5.617 H -5.019 V 0 Z M -14.759,20.018 H 1.793 c 10.517,0 15.178,-6.155 15.178,-14.64 0,-6.154 -2.749,-10.576 -8.008,-12.728 L 19.062,-22.407 H 7.35 l -8.724,13.683 h -3.645 v -13.683 h -9.74 z"
             style="fill:#000000;fill-opacity:1;fill-rule:nonzero;stroke:none"
             id="path62" /></g></g></g></g></svg>
